<svg width="50" height="50" viewBox="0 0 50 50" fill="none" xmlns="http://www.w3.org/2000/svg">
<path d="M0 14.3787V34.3143C0 37.2755 -2.09421e-08 38.7554 0.248756 39.9851C0.737078 42.392 1.92363 44.6017 3.66024 46.3383C5.39686 48.075 7.60658 49.2615 10.0135 49.7498C11.2432 50 12.7245 50 15.6857 50H33.9868C38.4209 50 40.6372 50 42.4221 49.383C44.0341 48.8262 45.4984 47.9103 46.7043 46.7043C47.9103 45.4984 48.8263 44.0341 49.383 42.4221C50 40.6372 50 38.4209 50 33.9868V14.3787C50 12.6332 50 11.7618 49.9129 11.0282C49.5824 8.24091 48.3234 5.64597 46.3387 3.66126C44.354 1.67655 41.7591 0.417596 38.9718 0.0871349C38.2382 -1.04711e-08 37.3654 0 35.6199 0H14.2859C10.0022 0 7.86042 0 6.15847 0.664755C4.91307 1.15191 3.78201 1.89164 2.83652 2.83737C1.89103 3.7831 1.15159 4.91435 0.664755 6.15988C4.18843e-08 7.85901 0 10.0332 0 14.3787Z" fill="#E1E1E1"/>
<path d="M35.6241 1.2494H10.6248C5.44693 1.2494 1.2494 5.44693 1.2494 10.6248V35.6241C1.2494 40.8021 5.44693 44.9996 10.6248 44.9996H35.6241C40.8021 44.9996 44.9996 40.8021 44.9996 35.6241V10.6248C44.9996 5.44693 40.8021 1.2494 35.6241 1.2494Z" fill="white"/>
<path d="M23.8483 39.1826C29.3293 39.1826 33.0241 36.5138 33.8885 32.403L28.205 32.0263C27.5852 33.7128 25.9985 34.594 23.9495 34.594C20.8758 34.594 18.9294 32.5604 18.9294 29.2563V29.2422H34.0192V27.5543C34.0192 20.0228 29.46 16.3013 23.6023 16.3013C17.0813 16.3013 12.8552 20.9321 12.8552 27.7693C12.8552 34.7964 17.025 39.1826 23.8483 39.1826ZM18.9294 25.435C19.0587 22.9095 20.977 20.8899 23.7035 20.8899C26.3738 20.8899 28.2191 22.7942 28.2331 25.435H18.9294ZM21.2511 13.735H25.5938L29.9927 7.17177H24.3107L21.2525 13.735H21.2511Z" fill="black"/>
</svg>
