<svg width="50" height="50" viewBox="0 0 50 50" fill="none" xmlns="http://www.w3.org/2000/svg">
<path fill-rule="evenodd" clip-rule="evenodd" d="M34.9086 23.3138H27.3186C26.0636 23.3138 25.4986 23.664 25.2636 24.3846L24.5536 26.6962H32.1436C33.3986 26.6962 33.9636 26.346 34.1986 25.6254L34.9086 23.3138Z" fill="#00A952"/>
<path fill-rule="evenodd" clip-rule="evenodd" d="M8.86857 21.3874H7.43857C4.56357 21.3874 2.11357 28.6176 5.49857 28.6076H7.67857C8.93357 28.6076 9.86357 29.0629 9.45357 30.2938L8.88857 31.985H6.57857L4.69857 31.97C2.29857 31.95 0.748571 30.7691 0.188571 28.9728C-0.421429 27.0365 0.438571 22.9986 2.91357 20.4067C4.34857 18.9056 6.33857 18 8.88857 18H13.6036L12.8636 20.1215C12.3886 21.4925 11.4086 21.3874 10.8586 21.3874H8.86857Z" fill="#00A952"/>
<path fill-rule="evenodd" clip-rule="evenodd" d="M33.0586 28.6176H25.4686C24.2136 28.6176 23.6436 28.9678 23.4136 29.6884L22.6986 31.995H30.2886C31.5436 31.995 32.1136 31.6447 32.3436 30.9242L33.0586 28.6176ZM36.6686 18.015H29.0786C27.8236 18.015 27.2536 18.3653 27.0236 19.0858L26.3136 21.3924H33.9036C35.1586 21.3924 35.7286 21.0422 35.9586 20.3217L36.6686 18.015Z" fill="#00A952"/>
<path fill-rule="evenodd" clip-rule="evenodd" d="M17.5836 21.3824H19.4786C21.0936 21.3824 20.7236 23.3989 19.9036 25.3653C19.1836 27.0915 17.9136 28.6276 16.3986 28.6276H13.2486C11.9936 28.6276 11.4136 28.9778 11.1686 29.6984L10.3936 32H12.6986L14.9536 31.98C16.9586 31.965 18.5936 31.8199 20.5136 30.0886C22.5386 28.2573 24.8986 23.5189 24.4936 20.787C24.1786 18.6405 23.0286 18.01 20.2336 18.01H15.1536L12.1936 26.6862H14.0736C15.1886 26.6862 15.7586 26.7012 16.3486 25.1001L17.5836 21.3824Z" fill="#00A952"/>
<path fill-rule="evenodd" clip-rule="evenodd" d="M33.6386 31.995H37.2186L38.7536 27.5919L40.3536 26.2409L41.6186 30.2237C42.0086 31.4546 42.4086 31.995 43.2886 31.995H46.0336L43.2036 24.1794L49.9986 18H45.6086L41.4836 22.4031C41.0036 22.9135 40.5136 23.4189 40.0336 24.0243H39.9936L42.0386 18H38.4586L33.6386 31.995Z" fill="#00A952"/>
</svg>
