<svg width="50" height="50" viewBox="0 0 50 50" fill="none" xmlns="http://www.w3.org/2000/svg">
<path d="M15.2944 10.0004L34.7056 10C43.1525 10 50 16.7156 50 24.9998C50 33.284 43.1525 39.9996 34.7056 39.9996L15.2944 40C6.8475 40 0 33.2844 0 25.0002C0 16.716 6.8475 10.0004 15.2944 10.0004Z" fill="#08C4A9"/>
<path d="M10.9522 27.0086L12.7205 29.2723L22.8182 21.6854C21.5557 19.5917 19.3843 17.5692 16.2039 17.5692C12.1777 17.5692 8.59218 20.5599 8.59218 25.0002C8.59218 28.9559 11.896 32.4313 16.4252 32.4313C19.4616 32.4313 21.847 30.3477 22.8182 28.7535L20.291 26.8546C19.8392 27.4244 18.5104 29.277 16.4265 29.277C13.8152 29.277 11.9229 27.467 11.9229 25.0001C11.9229 22.3026 14.258 20.7232 16.2632 20.7232C17.4911 20.7232 18.2059 21.3042 18.3503 21.4497L10.9522 27.0086Z" fill="white"/>
<path d="M35.6012 17.9103V19.4359C34.6396 18.3538 33.2021 17.5693 31.0887 17.5693C27.4452 17.5693 23.9545 20.4888 23.9545 25.0003C23.9545 29.3925 27.1029 32.4313 31.0887 32.4313C33.2041 32.4313 34.6408 31.5347 35.6012 30.3581V32.0851H39.1869V17.9103H35.6012ZM31.6925 28.9121C29.1059 28.9121 27.5401 27.3195 27.5401 25.0003C27.5401 22.6509 29.1374 21.0885 31.6925 21.0885C33.6666 21.0885 35.6012 22.7668 35.6012 24.9977C35.6012 27.6234 33.4855 28.9121 31.6925 28.9121Z" fill="white"/>
</svg>
