<svg width="50" height="50" viewBox="0 0 50 50" fill="none" xmlns="http://www.w3.org/2000/svg">
<g clip-path="url(#clip0_192_10)">
<path d="M25 50C38.8071 50 50 38.8071 50 25C50 11.1929 38.8071 0 25 0C11.1929 0 0 11.1929 0 25C0 38.8071 11.1929 50 25 50Z" fill="#FFCD00"/>
<path fill-rule="evenodd" clip-rule="evenodd" d="M25 50C21.6848 50 18.5054 48.683 16.1612 46.3388C13.817 43.9946 12.5 40.8152 12.5 37.5C12.5 34.1848 13.817 31.0054 16.1612 28.6612C18.5054 26.317 21.6848 25 25 25H50C50 31.6304 47.3661 37.9893 42.6777 42.6777C37.9893 47.3661 31.6304 50 25 50Z" fill="#FFB400"/>
<path fill-rule="evenodd" clip-rule="evenodd" d="M25 0C28.3152 0 31.4946 1.31696 33.8388 3.66117C36.183 6.00537 37.5 9.18479 37.5 12.5C37.5 15.8152 36.183 18.9946 33.8388 21.3388C31.4946 23.683 28.3152 25 25 25H0C0 18.3696 2.63392 12.0107 7.32233 7.32233C12.0107 2.63392 18.3696 0 25 0Z" fill="#FFEB00"/>
<path fill-rule="evenodd" clip-rule="evenodd" d="M50 15.625V18.7516C49.9998 22.0663 48.6829 25.2452 46.3391 27.5891C43.9952 29.9329 40.8163 31.2498 37.5016 31.25H37.4984C34.1837 31.2498 31.0048 29.9329 28.6609 27.5891C26.3171 25.2452 25.0002 22.0663 25 18.7516V18.75C25 22.0652 23.683 25.2446 21.3388 27.5888C18.9946 29.933 15.8152 31.25 12.5 31.25H12.4984C9.18371 31.2498 6.0048 29.9329 3.66094 27.5891C1.31707 25.2452 0.000207177 22.0663 0 18.7516L0 15.625H50ZM13.9539 34.375C15.4038 35.8264 17.1256 36.9779 19.0207 37.7636C20.9159 38.5493 22.9473 38.9537 24.9989 38.9539C27.0505 38.954 29.0819 38.5498 30.9772 37.7644C32.8725 36.979 34.5944 35.8278 36.0445 34.3766L38.257 36.5883C36.5179 38.3316 34.4514 39.714 32.1763 40.6563C29.9013 41.5985 27.4625 42.082 25 42.0789H24.9984C22.5359 42.0821 20.097 41.5986 17.8219 40.6562C15.5468 39.7138 13.4804 38.3311 11.7414 36.5875L13.9539 34.375Z" fill="#46321E"/>
<path fill-rule="evenodd" clip-rule="evenodd" d="M21.2156 27.7102L9.12969 15.625H26.8078L41.707 30.525C40.3573 31.0065 38.9346 31.2517 37.5016 31.25H37.4984C34.1837 31.2498 31.0048 29.9329 28.6609 27.5891C26.3171 25.2452 25.0002 22.0663 25 18.7516V18.75C25.0022 20.421 24.6683 22.0753 24.0182 23.6146C23.368 25.1539 22.415 26.5467 21.2156 27.7102Z" fill="#2C54A8"/>
</g>
<defs>
<clipPath id="clip0_192_10">
<rect width="50" height="50" fill="white"/>
</clipPath>
</defs>
</svg>
