<svg width="50" height="50" viewBox="0 0 50 50" fill="none" xmlns="http://www.w3.org/2000/svg">
<path opacity="0.35" d="M45 31.1506C45 41.8985 36.628 50 25.5333 50C14.4386 50 6.07195 42.1366 6.07195 31.7026C6.07195 27.3136 6.79016 21.2361 12.4072 13.1237C13.0289 12.2308 14.0312 11.6733 15.1085 11.6246C15.1782 11.6192 15.2425 11.6192 15.3068 11.6192C15.9661 11.6192 16.6093 11.8195 17.156 12.1821C18.1529 10.1797 19.45 7.21399 20.4737 3.62593C20.8006 2.48404 21.6635 1.59649 22.7784 1.24472C23.116 1.13649 23.4698 1.08237 23.8235 1.08237C24.6275 1.08237 25.41 1.36378 26.0264 1.8725C32.4581 7.17069 34.6449 12.707 36.1992 16.0623C36.687 15.808 38.2896 15.4616 38.8523 15.4616C39.0078 15.4616 39.1686 15.4725 39.3454 15.4995C40.4174 15.651 41.3714 16.3167 41.8967 17.2746C43.8959 20.9114 45 25.8415 45 31.1506Z" fill="black"/>
<path d="M43.928 30.0682C43.928 40.8161 35.5561 48.9176 24.4613 48.9176C13.3666 48.9176 5 41.0542 5 30.6202C5 26.2312 5.71821 20.1537 11.3353 12.0413C11.957 11.1484 12.9593 10.591 14.0366 10.5423C14.1063 10.5369 14.1706 10.5369 14.2349 10.5369C14.8941 10.5369 15.5373 10.7371 16.084 11.0997C17.0809 9.09731 18.378 6.13162 19.4017 2.54357C19.7287 1.40167 20.5916 0.514125 21.7064 0.162355C22.0441 0.0541184 22.3978 0 22.7516 0C23.5555 0 24.3381 0.281416 24.9544 0.790129C31.3862 6.08832 34.6288 11.4136 36.1832 14.7689C36.6709 14.5146 37.2176 14.3793 37.7804 14.3793C37.9358 14.3793 38.0966 14.3901 38.2735 14.4171C39.3454 14.5687 40.2995 15.2343 40.8247 16.1922C42.8239 19.829 43.928 24.7592 43.928 30.0682Z" fill="#F2F2F2"/>
<path d="M40.8221 29.8025C40.8221 26.734 40.061 21.7399 37.3982 17.5143L35.1155 19.8192C35.1155 19.8192 33.387 11.1408 22.7998 3.07393C20.8976 10.7566 16.3681 16.6035 16.3681 16.6035L14.5709 13.2888C9.24494 20.5877 8.10331 25.749 8.10331 30.3269C8.10331 39.0264 15.332 45.5569 24.4624 45.5569C33.5928 45.5569 40.8221 39.0264 40.8221 29.8025Z" fill="#F4665C"/>
<path d="M32.8328 36.7215C32.8328 32.8802 31.3111 30.191 29.4089 27.5019C29.4089 30.0319 28.6479 32.4959 26.7457 33.6481C27.1262 31.3432 27.5068 26.3492 23.3219 21.3557C20.315 28.9447 16.0931 31.156 16.0931 36.7215C16.0931 41.3313 20.5192 44.4042 24.7127 44.4042C28.9062 44.4042 32.8328 40.9471 32.8328 36.7215Z" fill="#D9EEEF"/>
<path d="M24.4629 46.2133C14.8952 46.2133 7.68042 39.5097 7.68042 30.6207C7.68042 26.629 8.34557 21.0862 13.5322 13.5924C13.6802 13.3781 13.9213 13.2493 14.1797 13.2455C14.4327 13.2211 14.6824 13.3635 14.8368 13.5729L16.2277 15.4611C16.308 15.5271 16.4142 15.558 16.5187 15.5461C16.6366 15.5341 16.7417 15.4676 16.807 15.3658C16.9335 15.1656 19.9607 14.8642 21.9803 3.29094C22.0553 3.02901 22.2553 2.82282 22.5131 2.7411C22.7709 2.65938 23.0512 2.7135 23.2613 2.88722C32.9035 10.8291 34.8464 18.7926 34.8647 18.8722C34.8931 18.9939 34.9767 19.0957 35.0892 19.1449C35.1803 19.185 35.2822 19.1882 35.3733 19.1579L37.2128 17.3206C37.3913 17.1425 37.6432 17.0603 37.8919 17.0938C38.1406 17.1296 38.3587 17.2816 38.4809 17.5035C40.2636 20.7458 41.2449 25.2078 41.2449 30.0693C41.2455 39.2732 34.0307 46.2133 24.4629 46.2133ZM14.2199 15.4573C9.8656 22.1036 9.28782 27.0327 9.28782 30.6202C9.28782 38.5843 15.8117 44.5892 24.4624 44.5892C33.1131 44.5892 39.637 38.3472 39.637 30.0693C39.637 25.9519 38.9049 22.162 37.5612 19.2564L36.4077 20.4086C36.3579 20.4589 36.3016 20.5017 36.2405 20.5369C35.6933 20.8518 35.0228 20.8881 34.4471 20.6332C33.8731 20.3821 33.4432 19.862 33.2991 19.2434C33.283 19.1774 31.4698 12.1512 23.1686 4.92965C21.1008 11.5629 18.2842 16.045 18.1582 16.2431C17.827 16.7626 17.2905 17.0965 16.6854 17.1609C16.0781 17.2297 15.4848 17.0132 15.056 16.5797C15.0287 16.5516 15.0029 16.5224 14.9799 16.4904L14.2199 15.4573Z" fill="#40396E"/>
</svg>
