<svg width="50" height="50" viewBox="0 0 50 50" fill="none" xmlns="http://www.w3.org/2000/svg">
<path d="M13.0781 35.2226C11.8516 36.3242 10.1016 35.3522 9.14844 34.364C8.66407 34.4369 8.10938 34.4936 7.61719 34.4207C6.875 36.713 7.47657 39.2726 9.35938 41.0384C10.0234 41.6621 10.7656 42.1076 11.5625 42.3749C11.5391 42.3425 11.5156 42.3182 11.4922 42.2858C9.69532 39.7667 11.5781 36.794 13.1094 35.2631L13.0781 35.2226ZM6.1875 21.8901H13.7344L14.6484 25.7214C14.6406 25.7214 14.625 25.7133 14.6172 25.7133C14.0234 24.5226 11.9453 23.502 10.4063 24.3201C9.60938 24.7413 9.125 25.5756 8.92188 26.4504H8.91407C7.82813 26.1183 6.28125 26.2479 5.46875 27.0822C4.35938 28.2324 4.57813 30.3707 5.375 31.5209C4.73438 30.9458 3.57032 29.9172 3.30469 29.0424C2.51563 26.4909 4.21094 23.502 6.67969 22.6839C6.46094 22.4166 6.29688 22.1574 6.1875 21.8901Z" fill="#7AA822"/>
<path d="M18.1094 21.8901L15.5469 26.2722C15.2734 26.0292 14.9609 25.8186 14.6484 25.7214L13.7344 21.8901H18.1094Z" fill="#7AA822"/>
<path d="M21.2891 34.2749C19.6328 32.3552 16.9609 32.9465 15.1484 33.8375L15.0703 33.6755C16.6016 32.8574 16.3125 30.8729 15.7188 29.6822C16.1328 28.8803 16.5625 27.8436 16.2109 27.1389C16.0703 26.8554 15.8281 26.5395 15.5469 26.2803V26.2722L18.1094 21.8901H24.625C24.5234 22.1331 24.4375 22.3761 24.375 22.6353C23.8594 24.6522 23.4063 26.6853 22.7734 28.6616C22.2031 30.4274 21.6719 32.4524 21.2969 34.2668L21.2891 34.2749ZM20.3281 19.1847C22.0156 18.8769 23.9375 19.6626 25.1016 20.9343C24.9141 21.234 24.75 21.5499 24.625 21.8901H6.1875C5.57813 20.4564 6.42969 19.0632 7.8125 17.8401C7.39844 16.1067 8.78907 14.5434 11.7188 13.7901C13.6641 13.2879 15.25 13.4013 16.2188 14.0412C16.7188 14.3652 17.0469 14.8269 17.1875 15.4101C19.2891 15.9042 20.8047 16.9977 20.3281 19.1847Z" fill="#7AA822"/>
<path d="M13.0781 35.2226C11.8516 36.3242 10.1016 35.3522 9.14844 34.364C8.66407 34.4369 8.10938 34.4936 7.61719 34.4207C6.875 36.713 7.47657 39.2726 9.35938 41.0384C10.0234 41.6621 10.7656 42.1076 11.5625 42.3749C11.5391 42.3425 11.5156 42.3182 11.4922 42.2858C9.69532 39.7667 11.5781 36.794 13.1094 35.2631L13.0781 35.2226ZM8.6875 26.4828L8.89844 26.5152C8.94219 26.3224 9.00547 26.1336 9.07578 25.9482C7.9153 25.0773 6.81424 24.1244 5.78047 23.0962C3.82032 24.2553 2.61563 26.8149 3.30469 29.0423C3.57032 29.9171 4.73438 30.9458 5.375 31.5209C4.57813 30.3707 4.35938 28.2323 5.46875 27.0822C6.28125 26.2479 7.60157 26.1507 8.6875 26.4828ZM15.7727 29.5729L15.7188 29.6822C16.3125 30.8729 16.6016 32.8574 15.0703 33.6755L15.1484 33.8375C16.9297 32.9627 19.5547 32.3795 21.2188 34.1858L21.3594 34.04C21.6 32.8974 21.8788 31.7638 22.1953 30.6413C19.9969 30.6761 17.8422 30.2906 15.7727 29.5729Z" fill="#607F0A"/>
<path d="M44.8438 21.8901H34.3984L34.8516 17.1678L35.1563 17.2002L45.5234 19.1118C45.375 19.7112 45.1406 20.6832 44.8438 21.8901Z" fill="#F26A07"/>
<path d="M33.1406 21.8901H24.625C24.7578 21.5418 24.9219 21.2178 25.1094 20.9181C25.9687 19.5411 27.3281 18.6501 28.8516 18.6501H28.9062C29.7969 18.6501 30.6328 18.9579 31.3437 19.4925C31.4687 19.5816 31.5859 19.6788 31.7031 19.7841C32.3125 20.3349 32.8125 21.0558 33.1406 21.8901Z" fill="#8AC926"/>
<path d="M34.3984 21.8901H44.8438C44.3672 23.8341 43.7266 26.3856 43.0937 28.9776C42.3516 28.5888 41.5156 28.3701 40.625 28.3701H40.5937L34.5703 27.2604C34.3906 26.6367 34.2266 26.0049 34.0703 25.3731L34.3984 21.8901Z" fill="#F26A07"/>
<path d="M36.4688 37.7093L36.4609 37.7174C35.5781 41.1842 32.5156 43.76 28.9063 43.76H28.8516C27.5781 43.76 26.3594 43.436 25.2813 42.8609C24.2031 42.2858 23.2578 41.4596 22.5469 40.4795H22.5391C23.1094 38.5517 22.8047 36.3647 21.5469 34.5908C21.4688 34.4774 21.3828 34.3721 21.2891 34.2749L21.2969 34.2668C21.6719 32.4524 22.2031 30.4274 22.7734 28.6617C23.4063 26.6853 23.8594 24.6522 24.375 22.6353C24.4375 22.3761 24.5234 22.1331 24.625 21.8901H33.1406C33.2344 22.1331 33.3203 22.3761 33.3828 22.6353C33.6172 23.5506 33.8438 24.4659 34.0703 25.3731C34.3412 26.4799 34.6487 27.5767 34.9922 28.6617C35.1875 29.2773 35.6094 30.5003 35.8438 31.286C35.3915 32.1281 35.1548 33.0762 35.1563 34.04C35.1563 35.4494 35.6406 36.7211 36.4688 37.7093ZM32.0313 34.85C32.0313 32.1689 30.2031 29.1801 28.9063 29.1801C27.6094 29.1801 25.7813 32.1689 25.7813 34.85C25.7813 37.5311 27.6094 38.09 28.9063 38.09C30.2031 38.09 32.0313 37.5311 32.0313 34.85ZM5.375 31.5209C4.57813 30.3707 4.35938 28.2324 5.46875 27.0822C6.28125 26.2479 7.82813 26.1183 8.91406 26.4504C8.72656 27.2604 8.78125 28.1109 9.07031 28.686C8.84375 29.342 8.98438 30.2897 9.26563 30.8567C9.61719 31.5614 10.6797 31.7963 11.5547 31.9097C12.1484 33.1085 13.5391 34.4936 15.0703 33.6755L15.1484 33.8375C14.6094 34.0967 14.1484 34.3802 13.8125 34.6394C13.6016 34.8014 13.3594 35.012 13.1094 35.2631L13.0781 35.2226C11.8516 36.3242 10.1016 35.3522 9.14844 34.364C8.66406 34.4369 8.10938 34.4936 7.60938 34.4207C7.19531 34.3721 6.82031 34.2344 6.55469 33.959C6.09375 33.473 5.625 32.5658 5.625 31.8449C5.53125 31.7477 5.44531 31.6424 5.375 31.5209Z" fill="#8AC926"/>
<path d="M32.0781 14.43C32.375 16.1958 32.0938 17.9373 31.3672 19.4601L31.3437 19.4925C30.6328 18.9579 29.7969 18.6501 28.9062 18.6501H28.8516C27.3203 18.6501 25.9609 19.5492 25.1016 20.9343C23.9375 19.6626 22.0156 18.8769 20.3281 19.1847C20.8047 16.9977 19.2891 15.9042 17.1875 15.4101C17.1214 15.1268 17.0017 14.86 16.8354 14.625C16.6691 14.39 16.4595 14.1916 16.2188 14.0412C17.9141 12.1053 20.9844 10.2423 22.6172 9.95071C25.1797 9.49711 31.3125 9.79681 32.0781 14.43Z" fill="#EE2D02"/>
<path d="M32.1719 16.374C32.1016 17.4594 31.8203 18.5043 31.3672 19.4601L31.3437 19.4925C30.6328 18.9579 29.7969 18.6501 28.9062 18.6501H28.8516C27.3203 18.6501 25.9609 19.5492 25.1016 20.9343C23.9375 19.6626 22.0156 18.8769 20.3281 19.1847C20.8047 16.9977 19.2891 15.9042 17.1875 15.4101C17.1214 15.1268 17.0017 14.86 16.8354 14.625C16.6691 14.39 16.4595 14.1916 16.2188 14.0412C16.7344 13.4499 17.3906 12.8586 18.0937 12.3159C19.6484 12.7209 21.0625 13.5633 21.3281 14.8431C21.4687 15.5073 21.9687 16.05 22.625 16.131C23.4844 16.2363 24.3359 16.5684 25.0703 17.0544C25.6641 17.4594 26.4375 17.3136 26.9609 16.8195C27.7578 16.0743 28.7422 15.6288 29.8203 15.6288H29.875C30.7109 15.6288 31.4922 15.8961 32.1719 16.374Z" fill="#C92206"/>
<path d="M33.1406 21.8901H34.3984L34.0703 25.3731C33.8438 24.4659 33.6172 23.5506 33.3828 22.6353C33.3203 22.3761 33.2344 22.1331 33.1406 21.8901Z" fill="#9AC2D8"/>
<path d="M48.4453 21.9549L48.4375 21.8901H44.8438C44.3594 23.8503 43.7266 26.418 43.0937 28.9857C43.9972 29.4561 44.7565 30.1782 45.2863 31.0709C45.8162 31.9637 46.0958 32.9918 46.0938 34.04C46.0938 37.1747 43.6484 39.71 40.625 39.71C40.5703 39.71 40.5156 39.71 40.4609 39.7019C40.1172 41.6459 38.4687 43.0148 36.6172 43.0148C36.3906 43.0148 36.1641 42.9905 35.9375 42.95C35.3033 42.8339 34.7072 42.5555 34.2031 42.14L33.9453 41.8322C32.5859 43.0391 30.8203 43.76 28.9062 43.76H28.8516C27.5781 43.76 26.3828 43.4441 25.3203 42.8771C24.2564 42.3174 23.3314 41.5108 22.6172 40.52L22.5313 40.4957C22.1543 41.8053 21.3752 42.9515 20.3125 43.76C19.2549 44.5728 17.9727 45.0102 16.6562 45.0074C15.6691 45.0046 14.6958 44.7656 13.8123 44.309C12.9288 43.8524 12.1589 43.1905 11.5625 42.3749C10.7446 42.0973 9.99347 41.6416 9.35937 41.0384C7.47656 39.2726 6.875 36.713 7.61719 34.4207C7.20313 34.3721 6.82031 34.2344 6.55469 33.959C6.09375 33.473 5.625 32.5658 5.625 31.8449C5.53125 31.7477 5.44531 31.6424 5.375 31.5209C4.73438 30.9458 3.57031 29.9172 3.30469 29.0424C2.51563 26.4909 4.21094 23.502 6.67969 22.6839C6.46094 22.4166 6.29688 22.1574 6.1875 21.8901H1.5625L1.55469 21.9549C1.03906 25.1463 0.78125 28.3782 0.78125 31.61C0.78125 39.6614 7.07813 46.19 14.8438 46.19H35.1562C42.9219 46.19 49.2188 39.6614 49.2188 31.61C49.2188 28.3782 48.9609 25.1463 48.4453 21.9549Z" fill="#9AC2D8"/>
<path d="M49.2188 31.61C49.2188 39.6614 42.9219 46.19 35.1563 46.19H14.8438C10.5625 46.19 6.71875 44.2055 4.15625 41.0708C6.61719 43.2578 9.79688 44.57 13.2813 44.57H33.5938C41.3594 44.57 47.6563 38.0414 47.6563 29.99C47.6563 27.2847 47.4766 24.5712 47.1094 21.8901H48.4375L48.4453 21.9549C48.9609 25.1463 49.2188 28.3782 49.2188 31.61Z" fill="#73BDE5"/>
<path d="M17.1875 46.19H14.8438C11.3594 46.19 8.17969 44.8778 5.71875 42.6908C4.16787 41.3274 2.92259 39.6295 2.06981 37.7157C1.21703 35.8019 0.777284 33.7182 0.781254 31.61C0.781254 28.3782 1.03907 25.1463 1.55469 21.9549L1.5625 21.8901H3.90625L3.89844 21.9549C3.38282 25.1463 3.125 28.3782 3.125 31.61C3.125 36.0488 5.03907 40.034 8.0625 42.6908C10.5234 44.8778 13.7031 46.19 17.1875 46.19Z" fill="#B9DEEF"/>
<path d="M15.1484 33.8375C14.6094 34.0967 14.1484 34.3802 13.8125 34.6394C13.6016 34.8014 13.3594 35.012 13.1094 35.2631L13.0781 35.2226C11.8516 36.3242 10.1016 35.3522 9.14844 34.364C8.66406 34.4369 8.10938 34.4936 7.61719 34.4207C7.20313 34.3721 6.82031 34.2344 6.55469 33.959C6.09375 33.473 5.625 32.5658 5.625 31.8449C5.53125 31.7477 5.44531 31.6424 5.375 31.5209C4.76563 30.6461 4.5 29.2044 4.89063 28.0542C5.00781 28.443 5.17188 28.7994 5.375 29.0909C5.44531 29.2124 5.53125 29.3178 5.625 29.4149C5.625 30.1358 6.09375 31.043 6.55469 31.529C6.82031 31.8044 7.20313 31.9421 7.61719 31.9907C8.10938 32.0636 8.66406 32.0069 9.14844 31.934C9.95313 32.7683 11.3281 33.5945 12.4766 33.1652C13.1641 33.8213 14.0938 34.202 15.0703 33.6755L15.1484 33.8375Z" fill="#7AA822"/>
<path d="M16.2109 27.1388C16.5625 27.8435 16.1328 28.8803 15.7188 29.6822C16.3125 30.8729 16.6016 32.8574 15.0703 33.6755C13.5391 34.4936 12.1484 33.1085 11.5547 31.9097C10.6797 31.7963 9.61719 31.5614 9.26563 30.8567C8.98438 30.2897 8.84375 29.342 9.07032 28.6859C8.78907 28.127 8.73438 27.3089 8.89844 26.5151C9.10157 25.6161 9.59375 24.7494 10.4063 24.3201C11.7266 23.6154 13.4531 24.2715 14.2813 25.2273C14.4219 25.3812 14.5313 25.5432 14.6172 25.7133C14.9375 25.8024 15.2578 26.013 15.5391 26.2641C15.8281 26.5314 16.0703 26.8472 16.2109 27.1388Z" fill="#8AC926"/>
<path d="M16.1875 31.8287C16.1406 32.5739 15.8359 33.2705 15.0703 33.6755C13.5391 34.4936 12.1484 33.1085 11.5547 31.9097C10.6797 31.7963 9.61719 31.5614 9.26563 30.8567C8.98438 30.2897 8.84375 29.342 9.07032 28.686C8.78907 28.1271 8.73438 27.309 8.89844 26.5152C9.03125 25.9239 9.28907 25.3569 9.67969 24.9114C9.51563 25.6971 9.57032 26.5071 9.85157 27.066C9.625 27.7221 9.76563 28.6698 10.0469 29.2367C10.3984 29.9414 11.4609 30.1763 12.3359 30.2897C12.9297 31.4885 14.3203 32.8736 15.8516 32.0555C15.9766 31.9907 16.0859 31.9178 16.1875 31.8287Z" fill="#7AA822"/>
<path d="M24.2813 6.99421C24.8906 6.65401 25.5938 7.24531 25.3906 7.9338L24.9219 9.5376V9.8049C24.0313 9.7806 23.2266 9.8454 22.6172 9.9507C22 10.0641 21.2188 10.3557 20.3828 10.785L20.3047 10.3638L19.3516 9.0111C18.9609 8.4765 19.3516 7.7313 19.9609 7.7313C20.0078 7.7313 20.0469 7.7313 20.0938 7.7394C20.2623 7.76547 20.4345 7.73366 20.584 7.64885C20.7335 7.56403 20.8522 7.43085 20.9219 7.26961L21.3516 6.26521C21.5703 5.73871 22.2422 5.62531 22.625 6.03841L23.3516 6.83221C23.4669 6.96287 23.621 7.0498 23.7895 7.07915C23.958 7.10851 24.1311 7.07861 24.2813 6.99421ZM45.7969 8.5656C47.9219 8.9544 49.4688 10.2666 49.0938 12.4617C48.7188 14.6649 47.4609 16.2768 45.3359 15.888L45.2969 15.9123C44.5234 14.2761 42.8359 12.9558 41.125 12.648C40.8359 12.5913 40.5313 12.567 40.2266 12.567C38.7578 12.567 37.1875 13.1826 36.1328 14.2194L36.1016 14.187C33.9766 13.7982 33.3359 11.838 33.7109 9.6348C34.0859 7.43161 35.9766 6.75931 38.1016 7.14811C38.283 6.09018 38.8623 5.15029 39.7121 4.53512C40.5618 3.91994 41.6124 3.67984 42.6328 3.86762C44.7578 4.26451 46.1719 6.36241 45.7969 8.5656Z" fill="#8AC926"/>
<path d="M33.6227 10.7947C33.6297 12.4909 34.3617 13.8687 36.1016 14.187L36.1328 14.2194C37.1875 13.1826 38.7578 12.567 40.2266 12.567C40.5312 12.567 40.8359 12.5913 41.125 12.648C42.8359 12.9558 44.5234 14.2761 45.2969 15.9123L45.3359 15.888C47.4609 16.2768 48.7187 14.6649 49.0937 12.4617C49.35 10.96 48.707 9.87213 47.5953 9.21037C43.6266 11.6509 39.0187 12.4406 33.6227 10.7947Z" fill="#7AA822"/>
<path d="M45.2969 15.9123C45.6719 16.698 45.8438 17.5647 45.6953 18.4233C45.6953 18.4233 45.6328 18.6663 45.5234 19.1118L35.1562 17.2002L34.8516 17.1678L34.9219 16.4388C35.0703 15.5802 35.5156 14.8269 36.1328 14.2194C37.1875 13.1826 38.7578 12.567 40.2266 12.567C40.5313 12.567 40.8359 12.5913 41.125 12.648C42.8359 12.9558 44.5234 14.2761 45.2969 15.9123Z" fill="#F26A07"/>
<path d="M43.0937 28.9856C43.9972 29.4561 44.7565 30.1782 45.2863 31.0709C45.8162 31.9637 46.0958 32.9918 46.0937 34.04C46.0937 37.1747 43.6484 39.71 40.625 39.71C40.5703 39.71 40.5156 39.71 40.4609 39.7019C38.8516 39.6614 37.4219 38.8919 36.4609 37.7012C35.6145 36.6839 35.1511 35.3836 35.1562 34.04C35.1562 33.0356 35.4062 32.1041 35.8437 31.286C36.3134 30.4055 37.0013 29.671 37.8363 29.1584C38.6714 28.6458 39.6233 28.3736 40.5937 28.37H40.625C41.5156 28.37 42.3516 28.5887 43.0937 28.9856ZM41.4062 32.42C41.4062 31.529 40.7031 30.8 39.8437 30.8C38.9844 30.8 38.2812 31.529 38.2812 32.42C38.2812 33.311 38.9844 34.04 39.8437 34.04C40.7031 34.04 41.4062 33.311 41.4062 32.42Z" fill="#6A4C93"/>
<path d="M46.0937 34.04C46.0937 37.1747 43.6484 39.71 40.625 39.71C40.5703 39.71 40.5156 39.71 40.4609 39.7019C38.8516 39.6614 37.4219 38.8919 36.4609 37.7012C35.764 36.8664 35.3258 35.8334 35.2031 34.7366C35.25 34.8095 35.3047 34.8824 35.3594 34.9472C35.85 35.5572 36.4607 36.0512 37.1506 36.3963C37.8405 36.7414 38.5936 36.9295 39.3594 36.9479C39.4141 36.956 39.4687 36.956 39.5234 36.956C40.3003 36.9563 41.0683 36.7849 41.7762 36.4531C42.4841 36.1214 43.1157 35.637 43.6287 35.0322C44.1418 34.4274 44.5246 33.7162 44.7517 32.9459C44.9787 32.1756 45.0447 31.364 44.9453 30.5651C45.6918 31.5579 46.0961 32.7812 46.0937 34.04Z" fill="#5C3D99"/>
<path d="M44.9812 15.3437C44.6623 16.5157 44.2894 17.6713 43.8641 18.8064L45.5227 19.1126C45.632 18.6671 45.6945 18.4241 45.6945 18.4241C45.843 17.5655 45.6711 16.6988 45.2961 15.9131C45.2028 15.7166 45.0977 15.5264 44.9812 15.3437Z" fill="#E25B00"/>
<path d="M35.3687 27.4078L40.5937 28.3701H40.625C41.5156 28.3701 42.3516 28.5888 43.0937 28.9857C43.7266 26.418 44.3594 23.8503 44.8437 21.8901C45.1406 20.6832 45.375 19.7112 45.5234 19.1118L43.8648 18.8056C42.2219 23.131 39.7305 26.6585 35.3687 27.4078Z" fill="#E25B00"/>
<path d="M39.8438 34.04C40.7067 34.04 41.4062 33.3147 41.4062 32.42C41.4062 31.5253 40.7067 30.8 39.8438 30.8C38.9808 30.8 38.2812 31.5253 38.2812 32.42C38.2812 33.3147 38.9808 34.04 39.8438 34.04Z" fill="#828282"/>
<path d="M34.5703 27.2604L40.5937 28.3701C39.6233 28.3736 38.6714 28.6458 37.8363 29.1584C37.0013 29.671 36.3134 30.4056 35.8438 31.286C35.7422 30.9539 35.6094 30.549 35.4766 30.1359C35.2969 29.577 35.1094 29.0181 34.9922 28.6617C34.8438 28.2 34.7031 27.7302 34.5703 27.2604ZM36.4609 37.7012C36.9515 38.3111 37.5623 38.8052 38.2522 39.1503C38.9421 39.4954 39.6952 39.6834 40.4609 39.7019C40.1172 41.6459 38.4687 43.0148 36.6172 43.0148C36.3906 43.0148 36.1641 42.9905 35.9375 42.95C35.3033 42.8339 34.7072 42.5555 34.2031 42.14L33.9453 41.8322C35.1765 40.7588 36.0555 39.3152 36.4609 37.7012Z" fill="#E25B00"/>
<path d="M36.4609 37.7012C36.0555 39.3152 35.1765 40.7588 33.9453 41.8322C32.5859 43.0391 30.8203 43.76 28.9062 43.76H28.8516C27.5781 43.76 26.3828 43.4441 25.3203 42.8771C24.2564 42.3174 23.3314 41.5108 22.6172 40.52L22.5312 40.4957C22.8281 39.4994 22.8906 38.4383 22.7109 37.4015C23.4062 38.333 24.3047 39.1025 25.3203 39.6371C26.3828 40.2041 27.5781 40.52 28.8516 40.52H28.9062C30.8203 40.52 32.5859 39.7991 33.9453 38.5922C34.6328 37.9847 35.2266 37.2638 35.6719 36.4457C35.8828 36.8993 36.1484 37.3205 36.4609 37.7012Z" fill="#7AA822"/>
<path d="M28.9062 29.1801C30.2031 29.1801 32.0312 32.1689 32.0312 34.85C32.0312 37.5311 30.2031 38.09 28.9062 38.09C27.6094 38.09 25.7812 37.5311 25.7812 34.85C25.7812 32.1689 27.6094 29.1801 28.9062 29.1801Z" fill="#7D5A34"/>
<path d="M32.0312 34.85C32.0312 37.5311 30.2031 38.09 28.9062 38.09C27.6094 38.09 25.7812 37.5311 25.7812 34.85C25.7812 34.4207 25.8281 33.9752 25.9141 33.5459C26.3516 35.2631 27.8125 35.66 28.9062 35.66C30 35.66 31.4609 35.2631 31.8984 33.5459C31.9844 33.9752 32.0312 34.4207 32.0312 34.85Z" fill="#774D23"/>
<path d="M11.5625 42.3749C11.5391 42.3425 11.5156 42.3182 11.4922 42.2858C9.69531 39.7667 11.5781 36.794 13.1094 35.2631C13.3594 35.012 13.6016 34.8014 13.8125 34.6394C14.1484 34.3802 14.6094 34.0967 15.1484 33.8375C16.9297 32.9627 19.5547 32.3795 21.2187 34.1858C21.3359 34.3073 21.4453 34.445 21.5469 34.5908C22.8125 36.3647 23.1094 38.5598 22.5312 40.4957C22.1543 41.8053 21.3752 42.9515 20.3125 43.76C19.2549 44.5728 17.9727 45.0102 16.6562 45.0074C15.6691 45.0046 14.6958 44.7656 13.8123 44.309C12.9288 43.8524 12.1589 43.1905 11.5625 42.3749Z" fill="#EE2D02"/>
<path d="M22.5313 40.4957C22.1543 41.8053 21.3752 42.9515 20.3125 43.76C19.2549 44.5728 17.9727 45.0102 16.6563 45.0074C15.6691 45.0046 14.6958 44.7656 13.8123 44.309C12.9288 43.8524 12.1589 43.1905 11.5625 42.3749C11.5391 42.3425 11.5156 42.3182 11.4922 42.2858C10.4688 40.844 10.6406 39.2564 11.2656 37.8794C11.3281 38.0009 11.4063 38.1143 11.4922 38.2358C11.5156 38.2682 11.5391 38.2925 11.5625 38.3249C12.1589 39.1405 12.9288 39.8024 13.8123 40.259C14.6958 40.7156 15.6691 40.9546 16.6563 40.9574C17.9297 40.9574 19.2188 40.5524 20.3125 39.71C21.3526 38.9184 22.1217 37.8031 22.5078 36.5267C22.9141 37.8308 22.9141 39.224 22.5313 40.4957Z" fill="#C92206"/>
<path d="M28.4992 31.3824C27.4937 31.3824 27.4922 33.0024 28.4992 33.0024C29.5047 33.0024 29.5062 31.3824 28.4992 31.3824Z" fill="#F9DEC5"/>
<path d="M3.39375 31.61C1.67031 31.61 1.66719 34.364 3.39375 34.364C5.11719 34.364 5.12031 31.61 3.39375 31.61ZM4.37969 34.6613C3.37422 34.6613 3.37266 36.2813 4.37969 36.2813C5.38516 36.2813 5.38672 34.6613 4.37969 34.6613Z" fill="#E8F7F9"/>
<path d="M43.0992 30.8C42.4289 30.8 42.4281 31.8798 43.0992 31.8798C43.7695 31.8798 43.7703 30.8 43.0992 30.8Z" fill="#EFE8F9"/>
<path d="M39.2578 14.0938C38.2523 14.0938 38.2508 15.7138 39.2578 15.7138C40.2633 15.7138 40.2648 14.0938 39.2578 14.0938ZM27.5875 11.4613C26.582 11.4613 26.5805 13.0813 27.5875 13.0813C28.593 13.0813 28.5953 11.4613 27.5875 11.4613Z" fill="#F9E4E1"/>
<path d="M49.2078 21.7572C49.1775 21.5681 49.0834 21.3962 48.9424 21.2723C48.8013 21.1483 48.6224 21.0802 48.4375 21.0801H45.8438L46.4625 18.5626C46.5672 17.9519 46.5406 17.3298 46.4023 16.7134C47.1591 16.6274 47.8664 16.2816 48.4117 15.7308C49.1352 15.0051 49.6367 13.9254 49.8625 12.6075C50.2414 10.397 48.9883 8.62231 46.6359 7.93543C46.6535 6.91355 46.3575 5.91232 45.7906 5.07614C45.4394 4.55168 44.9914 4.10466 44.4724 3.76096C43.9534 3.41726 43.3738 3.1837 42.7672 3.07382C41.6708 2.87359 40.5415 3.08376 39.5807 3.66683C38.62 4.2499 37.8903 5.16793 37.5219 6.25712C36.5336 6.17612 35.6422 6.32273 34.9102 6.68965C33.8438 7.22506 33.1625 8.19382 32.9406 9.49144C32.5313 11.8817 33.2758 13.7472 34.8484 14.5798C34.4981 15.1156 34.2591 15.7211 34.1469 16.3578L33.6937 21.0801H33.6172C33.2863 20.4028 32.8403 19.7928 32.3008 19.2795C32.9376 17.7042 33.1276 15.9732 32.8484 14.2899C32.4625 11.966 30.8703 10.3112 28.2422 9.50521C27.4724 9.27457 26.6827 9.12264 25.8844 9.05161L26.1422 8.16871C26.2316 7.86265 26.2313 7.53593 26.1413 7.23004C26.0513 6.92416 25.8757 6.6529 25.6367 6.4507C25.3995 6.24791 25.1092 6.12316 24.8031 6.09242C24.4971 6.06168 24.1891 6.12636 23.9187 6.27818L23.1914 5.48195C23.0153 5.28827 22.7955 5.14298 22.5518 5.05914C22.3081 4.9753 22.0482 4.95554 21.7953 5.00162C21.5424 5.04641 21.3042 5.15544 21.1019 5.31898C20.8996 5.48251 20.7395 5.69546 20.6359 5.93879L20.2117 6.93751C19.907 6.88858 19.595 6.93478 19.3157 7.07022C19.0363 7.20567 18.8021 7.42423 18.643 7.6981C18.4828 7.9713 18.4047 8.28773 18.4186 8.6071C18.4326 8.92647 18.5378 9.23432 18.7211 9.49144L19.4109 10.4642C18.1945 11.1884 16.9813 12.1166 16.0523 13.07C14.9094 12.5905 13.3523 12.5395 11.5344 13.0036C9.95078 13.4086 8.74687 14.0396 7.95547 14.8779C7.23203 15.645 6.89297 16.5716 6.97578 17.529C6.14219 18.3301 5.61328 19.1142 5.36406 19.9161C5.24422 20.291 5.19282 20.6857 5.2125 21.0801H1.5625C1.18047 21.0801 0.84375 21.4332 0.78125 21.8237C0.2625 25.0483 0 28.3417 0 31.61C0 40.0964 6.65859 47 14.8438 47H35.1562C43.3414 47 50 40.0964 50 31.61C50 28.3417 49.7375 25.0483 49.2078 21.7572ZM44.9406 18.1762L35.718 16.4785C36.1648 14.332 38.9344 13.0668 40.9922 13.441C43.068 13.8241 45.2695 16.0395 44.9406 18.1762ZM34.4789 9.77493C34.6141 8.98843 34.9773 8.45626 35.5914 8.14846C36.1992 7.84309 37.0211 7.77586 37.9656 7.94839C38.0667 7.96705 38.1703 7.96488 38.2706 7.942C38.3708 7.91912 38.4657 7.87599 38.5499 7.81506C38.6341 7.75412 38.7058 7.67659 38.7611 7.58689C38.8163 7.4972 38.854 7.39709 38.8719 7.29229C39.1734 5.53298 40.7984 4.36253 42.4953 4.66871C43.3172 4.82018 44.0328 5.29403 44.5109 6.00359C44.9891 6.71314 45.1719 7.57336 45.0258 8.42467C45.0078 8.52934 45.0099 8.63667 45.0319 8.74051C45.0539 8.84435 45.0955 8.94268 45.1542 9.02986C45.2128 9.11705 45.2875 9.19139 45.374 9.24863C45.4604 9.30587 45.5568 9.34489 45.6578 9.36346C46.5836 9.53437 48.6953 10.1637 48.3258 12.3232C48.1578 13.3033 47.8125 14.0785 47.3273 14.5653C46.9039 14.9905 46.3875 15.1598 45.7672 15.1128C45.5788 14.7867 45.3637 14.478 45.1242 14.1902C44.1023 12.9631 42.6961 12.1093 41.2664 11.8453C39.5164 11.5197 37.4398 12.0899 35.9688 13.3187C34.1773 12.7922 34.3227 10.6886 34.4789 9.77493ZM35.5484 18.0928L44.5594 19.7517L44.2328 21.0801H35.2633L35.5484 18.0928ZM15.7719 44.1245C14.3093 43.88 12.9985 43.048 12.1234 41.8087C10.2609 39.1941 13.35 36.0019 14.2789 35.2907C15.0094 34.731 16.3148 34.0765 17.5852 33.8756C17.8586 33.8327 18.1195 33.8108 18.368 33.8108C19.468 33.8108 20.3242 34.2328 20.9211 35.0704C22.7555 37.6453 22.2742 41.2514 19.8484 43.1088C19.2692 43.5525 18.6099 43.8711 17.9096 44.0456C17.2093 44.2201 16.4824 44.2469 15.7719 44.1245ZM6.91641 23.4517C7.07066 23.4001 7.20562 23.3 7.30261 23.1653C7.39961 23.0307 7.45384 22.8681 7.45781 22.7001H13.1195L13.3352 23.6048C12.2945 23.1537 11.068 23.0573 10.05 23.6016C9.32188 23.9912 8.76094 24.6692 8.40859 25.5262C7.2 25.3674 5.77578 25.6234 4.91406 26.5127C4.39141 27.053 4.09453 27.7723 3.98437 28.5377C3.53828 26.5354 4.89687 24.1232 6.91641 23.4517ZM23.5555 22.7001C23.4375 23.1601 23.3219 23.621 23.207 24.0819C22.8516 25.514 22.4836 26.9947 22.0289 28.4081C21.5648 29.8656 21.1592 31.3424 20.8133 32.8348C19.8578 32.2597 18.6891 32.0628 17.3484 32.2742C17.1992 32.2977 17.0523 32.3309 16.9055 32.3633C16.9375 32.2038 16.9617 32.0402 16.9719 31.8684C17.0125 31.1816 16.8742 30.4112 16.5875 29.7001C17 28.8269 17.3687 27.6986 16.9039 26.7679C16.7951 26.56 16.6664 26.3641 16.5195 26.1831L18.5484 22.7001H23.5555ZM9.76172 28.315C9.55469 27.8994 9.52891 27.2174 9.69531 26.5759C9.87891 25.8672 10.2703 25.3083 10.7688 25.041C11.0414 24.8987 11.3432 24.8268 11.6484 24.8312C12.6078 24.8312 13.6117 25.4533 13.9266 26.0842C13.9924 26.208 14.0889 26.3112 14.2063 26.3831C14.2672 26.4269 14.3312 26.4641 14.4023 26.4884L14.4102 26.4925C14.8227 26.6124 15.3242 27.1259 15.5172 27.5123C15.582 27.6427 15.6641 28.0768 15.0312 29.2999C14.9712 29.4158 14.9392 29.5451 14.9381 29.6766C14.937 29.8081 14.9668 29.9379 15.025 30.0548C15.2992 30.6056 15.4445 31.2464 15.4133 31.7688C15.3797 32.3342 15.1508 32.723 14.7125 32.9571C13.3414 33.6925 12.2586 31.5631 12.2484 31.542C12.1903 31.4252 12.1055 31.3248 12.0015 31.2496C11.8975 31.1744 11.7774 31.1265 11.6516 31.1103C10.3227 30.9377 10.0281 30.6162 9.96406 30.4858C9.77187 30.1002 9.65859 29.3785 9.80313 28.9597C9.87578 28.7483 9.86094 28.5142 9.76172 28.315ZM15.3086 25.1301L14.7297 22.7001H16.7242L15.3086 25.1301ZM5.96094 30.9807C5.41406 30.1132 5.21797 28.4867 6.01719 27.6597C6.45703 27.2053 7.29687 27.0441 8.04375 27.1073C8.00703 27.6953 8.06641 28.2656 8.24063 28.7491C8.06953 29.5948 8.26016 30.5975 8.575 31.2293C9.03906 32.16 10.1383 32.5018 11.0641 32.659C11.5141 33.4099 12.1359 34.0392 12.8461 34.4013C12.7678 34.4371 12.696 34.4864 12.6336 34.5471C12.4172 34.7715 12.0406 35.0444 11.2945 34.8217C10.7656 34.6637 10.1711 34.279 9.70313 33.7922C9.61691 33.7024 9.51153 33.6348 9.3955 33.595C9.27947 33.5552 9.15603 33.5442 9.03516 33.5629C7.76719 33.7573 7.29062 33.5775 7.11172 33.3904C6.7375 33.0016 6.40859 32.2799 6.40859 31.8466C6.40866 31.7404 6.38854 31.6352 6.3494 31.5371C6.31026 31.439 6.25285 31.3498 6.18047 31.2747C6.10549 31.1916 6.03802 31.1016 5.97891 31.0058L5.98281 31.0017L5.96094 30.9807ZM8.21094 35.2615C8.44219 35.2567 8.67031 35.2405 8.88594 35.2153C9.48672 35.7605 10.1898 36.1768 10.8617 36.3777C10.9617 36.4077 11.0602 36.4239 11.1586 36.4449C10.3969 37.6502 9.86406 39.0977 10.0203 40.5557C9.97578 40.516 9.92734 40.4819 9.88359 40.4406C8.43125 39.075 7.82422 37.1358 8.21094 35.2615ZM22.1773 34.1081C22.1672 34.0935 22.1547 34.0822 22.1445 34.0676C22.5177 32.3293 22.974 30.6113 23.5117 28.92C23.9836 27.4523 24.3586 25.9441 24.7211 24.4861C24.857 23.9394 24.993 23.3926 25.1336 22.8483C25.1469 22.7965 25.1688 22.7503 25.1828 22.6993H32.5781C32.593 22.7503 32.6141 22.7965 32.6273 22.8483C32.768 23.3926 32.9039 23.9394 33.0391 24.4853C33.4016 25.9441 33.7766 27.4523 34.2484 28.9209C34.3172 29.1339 34.4117 29.4198 34.5172 29.7357C34.6773 30.2168 34.8586 30.7636 35.0039 31.2261C34.5912 32.1025 34.3761 33.0648 34.375 34.04C34.375 35.4754 34.8328 36.7989 35.5977 37.8738C35.1388 39.3523 34.2381 40.6412 33.0259 41.5538C31.8136 42.4664 30.3528 42.9554 28.8547 42.95C26.7594 42.95 24.7531 41.9529 23.4016 40.2803C23.6438 39.2211 23.6597 38.1199 23.4482 37.0537C23.2368 35.9875 22.803 34.9822 22.1773 34.1081ZM36.1141 29.5672L35.9953 29.2084C35.8922 28.8982 35.7992 28.6179 35.732 28.4089C35.7195 28.3709 35.7102 28.3304 35.6984 28.2923L37.2719 28.5823C36.849 28.861 36.4603 29.1917 36.1141 29.5672ZM36.8031 39.156C37.5669 39.7735 38.459 40.1978 39.4086 40.3953C38.8086 41.6516 37.475 42.4146 36.075 42.153C35.742 42.0893 35.4211 41.9701 35.125 41.7998C35.8319 41.0293 36.4002 40.1339 36.8031 39.156ZM40.625 38.9C38.0398 38.9 35.9375 36.7203 35.9375 34.04C35.9375 31.3598 38.0398 29.1801 40.625 29.1801C43.2102 29.1801 45.3125 31.3598 45.3125 34.04C45.3125 36.7203 43.2102 38.9 40.625 38.9ZM40.6703 27.5625L35.193 26.5532C35.0787 26.1331 34.968 25.7118 34.8609 25.2896L35.1078 22.7001H43.8344L42.5602 27.8816C41.9499 27.6748 41.3124 27.5671 40.6703 27.5625ZM25.9734 21.0801C26.707 20.083 27.7594 19.4601 28.9062 19.4601C30.0188 19.4601 31.0594 20.083 31.7898 21.0801H25.9734ZM31.3086 14.5653C31.5191 15.8386 31.4019 17.1471 30.9687 18.3585C30.3102 18.0353 29.5992 17.8401 28.8547 17.8401C27.3836 17.8401 26.0023 18.5634 24.9953 19.7517C23.9016 18.8655 22.5211 18.3382 21.1961 18.3091C21.1617 17.0358 20.493 15.4927 17.7898 14.7305C17.6782 14.4693 17.53 14.2267 17.35 14.0104C19.0117 12.3888 21.4719 10.9762 22.7477 10.7494C24.0195 10.5226 26.0742 10.5307 27.7984 11.0588C29.8453 11.6865 31.0266 12.8659 31.3086 14.5653ZM19.9719 8.53888C20.3101 8.59335 20.6563 8.53054 20.9566 8.36021C21.2569 8.18988 21.4946 7.92155 21.6328 7.59685L22.0555 6.5965L22.782 7.39192C23.0165 7.64891 23.3262 7.81846 23.6631 7.87427C24 7.93007 24.3453 7.869 24.6453 7.70053L24.2687 8.99167C23.5844 9.00544 22.9687 9.06619 22.4828 9.15286C21.9937 9.23953 21.4219 9.43798 20.8133 9.71419L19.9719 8.53888ZM6.84844 20.4143C7.03516 19.8132 7.53047 19.1539 8.31953 18.4565C8.43009 18.359 8.51222 18.2315 8.55666 18.0882C8.6011 17.945 8.6061 17.7917 8.57109 17.6457C8.42969 17.052 8.59297 16.5174 9.06953 16.0111C9.64609 15.3996 10.6273 14.9038 11.9062 14.5766C14.357 13.9505 16.1313 14.3539 16.4297 15.6053C16.4646 15.7512 16.5379 15.8842 16.6415 15.9893C16.7452 16.0945 16.875 16.1676 17.0164 16.2006C20.025 16.9029 19.693 18.4314 19.5688 19.0065C19.5406 19.1366 19.5439 19.272 19.5783 19.4005C19.6127 19.5291 19.6771 19.6468 19.7659 19.7433C19.8547 19.8399 19.965 19.9122 20.0872 19.9539C20.2094 19.9957 20.3397 20.0055 20.4664 19.9825C21.65 19.7671 23.0734 20.2109 24.1078 21.0801H19.1594C19.104 20.8998 18.9885 20.7459 18.8336 20.6459C18.7458 20.5907 18.6483 20.5541 18.5468 20.5381C18.4453 20.5221 18.3417 20.527 18.2421 20.5526C18.1424 20.5782 18.0486 20.6239 17.966 20.6872C17.8835 20.7505 17.8138 20.83 17.7609 20.9213L17.668 21.0801H14.3438L14.075 19.9509C14.0223 19.7456 13.894 19.57 13.7176 19.4619C13.5412 19.3538 13.331 19.3218 13.1321 19.3729C12.9332 19.424 12.7616 19.5541 12.6544 19.7351C12.5471 19.9161 12.5127 20.1335 12.5586 20.3405L12.7344 21.0801H6.78906C6.76299 20.8563 6.78323 20.6293 6.84844 20.4143ZM1.5625 31.61C1.5625 28.6544 1.78359 25.6784 2.22812 22.7001H4.93281C2.925 24.1735 1.83281 26.938 2.56172 29.2918C2.86484 30.2719 3.8375 31.2123 4.81172 32.0904C4.83203 32.1179 4.84687 32.1519 4.86797 32.1787C4.97812 33.0632 5.49453 34.0012 6.00547 34.5317C6.2 34.735 6.42578 34.8841 6.66875 34.9942C6.19297 37.4112 6.97891 39.8955 8.83594 41.6402C9.49429 42.2567 10.2601 42.7373 11.0922 43.0561C11.8942 44.0856 12.9465 44.8746 14.1406 45.3419C7.14453 44.9596 1.5625 38.9567 1.5625 31.61ZM35.1562 45.38H19.0078C19.6393 45.1475 20.2351 44.8215 20.7766 44.4121C21.6156 43.7671 22.302 42.9325 22.7836 41.9715C24.419 43.6332 26.6164 44.5658 28.9062 44.57C30.7445 44.57 32.4727 43.956 33.8937 42.9022C34.4603 43.3286 35.112 43.6176 35.8008 43.7479C36.0766 43.7989 36.3516 43.8232 36.6219 43.8232C37.6035 43.8197 38.5594 43.4969 39.3548 42.9004C40.1502 42.3039 40.745 41.4637 41.0555 40.4981C44.3008 40.2665 46.875 37.4623 46.875 34.04C46.875 31.755 45.725 29.7471 43.9969 28.5928L45.4453 22.7001H47.7719C48.2141 25.642 48.4375 28.6365 48.4375 31.61C48.4375 39.203 42.4797 45.38 35.1562 45.38Z" fill="#472B3C"/>
<path d="M39.8438 29.9901C38.5516 29.9901 37.5 31.0803 37.5 32.42C37.5 33.7598 38.5516 34.85 39.8438 34.85C41.1359 34.85 42.1875 33.7598 42.1875 32.42C42.1875 31.0803 41.1359 29.9901 39.8438 29.9901ZM39.8438 33.23C39.6426 33.2207 39.4527 33.1313 39.3135 32.9804C39.1743 32.8295 39.0967 32.6288 39.0967 32.42C39.0967 32.2113 39.1743 32.0106 39.3135 31.8597C39.4527 31.7088 39.6426 31.6194 39.8438 31.61C40.0449 31.6194 40.2348 31.7088 40.374 31.8597C40.5132 32.0106 40.5908 32.2113 40.5908 32.42C40.5908 32.6288 40.5132 32.8295 40.374 32.9804C40.2348 33.1313 40.0449 33.2207 39.8438 33.23Z" fill="#472B3C"/>
</svg>
