<svg width="50" height="50" viewBox="0 0 50 50" fill="none" xmlns="http://www.w3.org/2000/svg">
<rect x="3" y="6" width="40" height="40" rx="20" fill="black"/>
<rect x="5" y="17" width="32" height="32" rx="16" fill="black"/>
<rect x="10" y="18" width="32" height="32" rx="16" fill="black"/>
<rect x="16" y="15" width="32" height="32" rx="16" fill="black"/>
<rect x="16" y="1" width="8" height="8" rx="4" fill="black"/>
<rect x="45" y="5" width="3" height="3" rx="1.5" fill="black"/>
<rect x="44" y="1" width="3" height="3" rx="1.5" fill="black"/>
<rect x="43" y="1" width="3" height="3" rx="1.5" fill="black"/>
<rect x="45" y="3" width="3" height="3" rx="1.5" fill="black"/>
<rect x="40" y="5" width="8" height="8" rx="4" fill="black"/>
<rect x="39" y="1" width="8" height="8" rx="4" fill="black"/>
<rect x="38" y="3" width="8" height="8" rx="4" fill="black"/>
<rect x="40" y="8" width="8" height="11" rx="4" fill="black"/>
<rect x="33" y="5" width="15" height="15" rx="7.5" fill="black"/>
<rect x="32" y="12" width="16" height="16" rx="8" fill="black"/>
<path fill-rule="evenodd" clip-rule="evenodd" d="M24.986 48.7826C38.0528 48.7826 48.6434 39.0593 48.6434 27.0677C48.6434 24.3551 48.1011 21.7582 47.1102 19.3627L47.3699 16.8746C49.0317 19.946 49.9672 23.4062 49.9672 27.0677C49.9672 39.7328 38.7815 50 24.9835 50C11.1855 50 0 39.7328 0 27.0677C0 16.9324 7.16369 8.33408 17.0937 5.30198C17.0205 5.77419 16.9019 6.58423 16.8918 6.65597C7.8092 9.69038 1.32382 17.6824 1.32382 27.0677C1.32382 39.0616 11.9169 48.7826 24.981 48.7826H24.986ZM23.8085 5.37833C24.1993 5.35988 24.5927 5.35297 24.986 5.35297C29.0837 5.35297 32.939 6.30879 36.3003 7.99382C36.5197 7.69289 36.8097 7.29947 37.0467 6.98239C33.4712 5.17002 29.3585 4.13784 24.986 4.13784C24.3506 4.13784 23.7203 4.1586 23.0949 4.20267L23.806 5.38076L23.8085 5.37833Z" fill="white"/>
<path fill-rule="evenodd" clip-rule="evenodd" d="M24.5096 36.6543C21.8191 36.8789 19.3884 37.0826 17.5703 36.7469C11.5513 35.6336 7.07554 31.3055 7.07554 31.3055C6.92173 31.2105 7.05795 31.007 7.21176 31.0693C7.21176 31.0693 13.5383 33.9973 17.5677 34.1084C21.5972 34.2194 23.027 33.5853 26.3957 31.6319C26.3957 31.6319 26.2923 31.5207 26.2242 31.5369C26.0856 31.5717 25.9116 31.6342 25.6947 31.7128C24.5298 32.1318 22.1318 32.9951 17.5677 32.3401C13.6341 31.7754 9.96016 30.1297 8.24304 29.2711C7.60004 28.9493 7.21427 28.3337 7.19403 27.6601L7.16123 26.6348C7.16123 26.5884 7.17896 26.556 7.21176 26.5236L9.61724 24.6836C10.2527 24.1975 10.7016 23.5403 10.8982 22.8042L11.1404 21.9039C11.3243 21.2212 10.7494 20.5661 9.98291 20.5823L9.79631 20.5869C8.17995 20.624 6.58383 20.2675 5.16678 19.5547L17.2576 19.4042C17.7267 19.3973 18.178 19.2423 18.536 18.9645L24.9862 13.9443C26.373 12.8634 28.1331 12.2709 29.9511 12.2709H33.209C33.7486 11.5673 34.3487 10.7224 34.9892 9.81977C35.1758 9.5583 36.2096 7.7344 36.4012 7.46358C33.2543 5.90832 28.5642 4.97095 24.7391 4.97095C24.56 4.97095 24.6281 6.5841 24.4517 6.58872C25.198 8.06774 25.8511 9.62774 26.3352 10.933H25.2433H24.7391C22.8504 10.933 21.0123 11.5002 19.5069 12.5486L16.6221 14.5577C16.5364 14.6202 16.3978 14.5577 16.3978 14.4627C16.4735 13.4467 15.3085 12.3125 15.3563 11.2618C15.4092 10.1322 15.785 6.83174 15.785 6.83174C7.52942 9.83604 0.844727 18.4182 0.844727 27.0676C0.844727 35.0943 6.18801 42.6582 13.5156 46.0166C16.3372 44.9588 18.4453 43.3456 19.822 42.2925C22.0435 40.596 24.149 38.985 28.3651 38.0871C32.4323 37.2214 35.7734 37.2792 38.2445 37.638C33.9982 35.8604 28.9047 36.2864 24.5071 36.6543H24.5096ZM48.0458 34.1107C48.2198 33.0761 49.1251 28.0629 49.1251 26.982C49.1251 25.4266 48.6637 22.5798 48.3055 21.1239C48.1921 22.8297 46.7648 26.0006 46.886 27.7504C46.9439 28.5836 48.013 33.2867 48.0458 34.1107ZM38.9077 11.0581C40.4963 12.2223 41.9058 13.581 43.096 15.0969C42.7355 16.5736 42.4051 17.666 42.4051 17.666L41.7395 16.8907C40.5291 15.4811 39.117 14.2243 37.5436 13.1573C37.5436 13.1573 38.1033 12.1992 38.9052 11.0581H38.9077ZM25.6771 17.8373C24.9206 18.2632 24.4062 19.0038 24.3709 19.8718C24.3029 21.2743 25.488 22.457 27.016 22.5196H27.137C28.597 22.5196 29.8149 21.4642 29.8855 20.1079C29.9033 19.8555 29.868 19.6195 29.8174 19.3973C28.597 18.4507 27.2076 18.041 25.6771 17.8373ZM17.3761 17.9577L24.4793 12.7384C24.9862 12.3704 24.6862 12.1459 24.5499 12.1459C23.158 12.1366 21.8066 12.5556 20.707 13.3379L13.8837 18.1914H16.6574C16.9197 18.1914 17.1744 18.1104 17.3786 17.96L17.3761 17.9577ZM4.35979 24.5865V25.8409C4.35979 27.0444 4.78855 28.2133 5.58033 29.1738V26.0515L4.35979 24.5865ZM4.35979 24.5865C4.35979 24.4614 4.30941 24.4753 4.35979 24.5865Z" fill="white"/>
<path d="M49.9698 26.2322C49.8764 23.7187 49.3268 21.3462 48.419 19.0989C48.419 19.0918 48.419 19.0849 48.419 19.078C48.1114 18.3211 47.7608 17.5828 47.3725 16.8653C47.3725 16.8676 47.3725 16.8699 47.3725 16.8746L47.1128 19.3627C47.1128 19.3627 47.1128 19.365 47.1128 19.3673C47.0296 20.1057 46.9414 20.8302 46.8505 21.5361C46.5933 23.552 46.7396 25.6535 46.8858 27.7482C47.0068 29.4772 47.128 31.2037 47.0196 32.8702C46.9389 34.1317 46.7245 35.3583 46.2832 36.5318C42.4505 43.7809 34.3563 48.7803 24.9861 48.7803C20.8255 48.7803 16.9147 47.7919 13.5181 46.0606C16.3523 44.9404 18.1225 43.5887 19.8245 42.288C22.0459 40.5915 24.1515 38.9805 28.3676 38.0825C29.6384 37.8118 30.8387 37.6311 31.9658 37.5224C34.4394 37.2816 36.5475 37.3881 38.247 37.6336C36.2727 36.8073 34.1168 36.4555 31.9305 36.3559C29.4165 36.2401 26.8647 36.4532 24.5096 36.6498C21.819 36.8767 19.3882 37.0804 17.5677 36.7424C14.3628 36.1499 11.5941 34.6454 9.70797 33.3679C8.93141 32.8425 8.30599 32.3565 7.85714 31.9884C7.42098 31.6274 7.15371 31.3796 7.08811 31.3172C7.08309 31.3125 7.08057 31.3102 7.07806 31.3079C7.07555 31.3056 7.07304 31.3033 7.07304 31.3033C6.91923 31.2083 7.05531 31.0048 7.20912 31.0672C7.20912 31.0672 7.21666 31.0719 7.23438 31.0788C7.24945 31.0857 7.26969 31.095 7.29747 31.1066C7.4436 31.1736 7.76642 31.3172 8.2203 31.507C8.7649 31.7362 9.49624 32.0347 10.3334 32.3448C12.4969 33.1479 15.3714 34.0437 17.5677 34.1039C19.4992 34.157 20.8331 34.0391 22.0687 33.6873C23.2563 33.3493 24.3558 32.7938 25.8057 31.9675C25.957 31.8819 26.1108 31.7916 26.2696 31.7014C26.2696 31.7014 26.2721 31.7014 26.2746 31.7014C26.3149 31.6783 26.3553 31.6551 26.3956 31.6297C26.3956 31.6297 26.2923 31.5185 26.2242 31.5348C26.088 31.5695 25.9116 31.632 25.6947 31.7107C24.9635 31.9746 23.7506 32.4119 21.8216 32.5393C20.6717 32.6156 19.2698 32.5832 17.5652 32.3379C13.6316 31.7732 9.95766 30.1275 8.2404 29.2666C7.5974 28.9448 7.21163 28.3292 7.19153 27.6556L7.15873 26.6303C7.15873 26.584 7.17632 26.5516 7.20912 26.5191L9.61474 24.6791C10.2502 24.1954 10.6989 23.5357 10.8957 22.7997L11.1377 21.8994C11.284 21.3579 10.9536 20.8348 10.4291 20.6495C10.2905 20.601 10.1392 20.5755 9.98027 20.5778L9.79381 20.5824C8.17745 20.6194 6.58133 20.263 5.16414 19.5502L17.2551 19.3997C17.724 19.3928 18.1754 19.2378 18.5335 18.96L24.9836 13.9398C26.3705 12.8589 28.1305 12.2664 29.9485 12.2664H33.2065C33.7461 11.5628 34.3462 10.7179 34.9867 9.81529C35.4053 9.22278 35.8439 8.60478 36.2978 7.9846C36.4945 7.71608 36.7442 7.37582 36.9661 7.0795C36.9913 7.04479 37.019 7.01007 37.0442 6.97535C36.6685 6.78562 36.2878 6.60281 35.8995 6.42922C35.491 6.24628 35.0774 6.07512 34.6588 5.91306C34.6488 5.90845 34.6361 5.90384 34.626 5.90153C34.4369 5.82966 34.2478 5.75792 34.0562 5.69079C34.0008 5.67004 33.9427 5.65146 33.8873 5.63302C33.741 5.58203 33.5922 5.53117 33.446 5.48249C33.3728 5.45712 33.2972 5.43393 33.2241 5.41075C33.093 5.36911 32.9618 5.32747 32.8308 5.28814C32.7449 5.26265 32.6617 5.23716 32.576 5.21179C32.455 5.17707 32.3314 5.14235 32.2104 5.10764C32.1171 5.08214 32.0263 5.05665 31.933 5.03115C31.8171 5.00118 31.6986 4.97107 31.5826 4.94097C31.4842 4.91547 31.3858 4.89228 31.2875 4.86692C31.1741 4.83912 31.0581 4.81363 30.9446 4.78813C30.8437 4.76507 30.7403 4.74188 30.6395 4.7187C30.5286 4.69564 30.4201 4.67475 30.3092 4.65169C30.0897 4.60762 29.8703 4.56599 29.6511 4.52896C29.5602 4.51282 29.472 4.49655 29.3812 4.48272C29.2551 4.46184 29.1291 4.44339 29.0029 4.42481C28.9097 4.41098 28.8163 4.39701 28.7231 4.38318C28.5971 4.36691 28.4734 4.35076 28.3474 4.3345C28.2516 4.32297 28.1557 4.31143 28.0573 4.29978C27.9338 4.28594 27.8078 4.27211 27.6843 4.26045C27.5834 4.25122 27.4824 4.242 27.3842 4.23265C27.263 4.22112 27.1395 4.21189 27.0185 4.20267C26.9126 4.19562 26.8041 4.18871 26.6982 4.18179C26.5822 4.17487 26.4637 4.16795 26.3452 4.1609C26.2242 4.15399 26.1032 4.15168 25.9796 4.14707C25.8763 4.14246 25.7729 4.13785 25.6669 4.13554C25.4703 4.13093 25.2711 4.12849 25.0745 4.12849C25.0467 4.12849 25.0164 4.12849 24.9886 4.12849C24.8348 4.12849 24.6835 4.13323 24.5322 4.13554C24.5322 4.13554 24.5322 4.13554 24.5322 4.13323C24.0532 4.14015 23.5791 4.1609 23.1076 4.19101L23.8186 5.36911C24.6054 6.76704 25.324 8.34331 25.8964 9.75982C26.0604 10.1625 26.2092 10.5537 26.3477 10.924H24.7516C22.863 10.924 21.0247 11.4911 19.5194 12.5395L16.6347 14.5486C16.549 14.611 16.4102 14.5486 16.4102 14.4536C16.4154 14.405 16.4179 14.3541 16.4204 14.3055C16.4204 14.3008 16.4204 14.2962 16.4204 14.2939C16.4405 14.0023 16.4608 13.7083 16.4758 13.4144C16.4809 13.3381 16.4834 13.264 16.4885 13.1875C16.5237 12.5743 16.5515 11.9516 16.5818 11.3313C16.6574 9.70652 16.7331 8.08875 16.9046 6.64675C16.9147 6.57501 17.0331 5.76727 17.1063 5.29276C17.1063 5.29276 17.1063 5.29045 17.1063 5.28814C16.6499 5.42702 16.196 5.57742 15.7522 5.73947C15.7522 5.74409 15.7522 5.74639 15.7522 5.751C6.53332 9.12554 0.0151367 17.3907 0.0151367 27.0562C0.0151367 34.7982 4.19595 41.6445 10.5981 45.7968L11.9497 46.6138C15.7472 48.7525 20.2153 49.9883 24.9988 49.9883C37.8335 49.9883 48.4063 41.1029 49.8185 29.6692C49.8336 29.609 49.8488 29.5466 49.8638 29.4841C49.952 28.6948 50.0001 27.894 50.0001 27.084C50.0001 26.7946 49.9924 26.5076 49.9798 26.2206L49.9698 26.2322ZM20.707 13.3381C21.4004 12.8451 22.1972 12.4955 23.0395 12.308C23.1933 12.2733 23.3471 12.2455 23.5035 12.2225C23.6623 12.1993 23.8211 12.1807 23.9826 12.1692C23.9826 12.1692 23.9876 12.1692 23.9901 12.1692C24.1767 12.1553 24.3633 12.1483 24.5525 12.1507C24.6835 12.1507 24.961 12.3543 24.5525 12.6899C24.5525 12.6899 24.55 12.6922 24.5474 12.6946C24.5272 12.7108 24.5071 12.727 24.4818 12.7455L17.3786 17.9647C17.1744 18.1151 16.9197 18.1962 16.6574 18.1962H13.8838L20.707 13.3427V13.3381ZM5.5802 29.174C4.94976 28.4102 4.54892 27.5098 4.4127 26.5678C4.38758 26.3965 4.37236 26.2253 4.36483 26.054C4.36231 25.9845 4.3598 25.9128 4.3598 25.8434V24.5889L5.5802 26.054V29.1763V29.174ZM6.84861 29.741C6.90402 29.7943 6.96459 29.8474 7.02503 29.8984C6.96459 29.903 6.90653 29.9123 6.84861 29.9262V29.7433V29.741Z" fill="white"/>
<path d="M41.7393 16.8907L42.405 17.6661C42.405 17.6661 42.574 17.106 42.8009 16.2473C43.5271 13.5184 44.8559 7.76924 43.3152 7.32483C41.2905 6.74154 37.5435 13.1574 37.5435 13.1574C38.9807 14.1318 40.2818 15.2635 41.419 16.5273C41.5275 16.6476 41.6334 16.7681 41.7393 16.8907Z" fill="white"/>
<path d="M48.3105 3.67947C47.902 2.29076 47.1783 0.890518 45.7663 0.30954C44.5004 -0.20892 43.2296 -0.0236737 42.115 0.478517C41.0308 0.966871 40.0096 1.78626 39.0791 2.70506C37.2282 4.53127 35.443 7.04939 33.9629 9.1372L33.9276 9.18806C33.4308 9.88933 32.9694 10.5374 32.5457 11.1114H29.9536C29.2324 11.1114 28.5213 11.1925 27.8304 11.3452L27.5379 10.5582C26.8042 8.57698 25.6745 5.9825 24.3986 3.93184C23.7656 2.91568 23.0545 1.96216 22.288 1.28625C21.5643 0.647493 20.4877 0.00169044 19.2268 0.29109C18.1703 0.534115 17.4391 1.19145 16.9448 1.95985C16.4607 2.70968 16.1556 3.63552 15.9462 4.6007C15.5302 6.50787 15.4167 8.91493 15.3109 11.2203V11.2897C15.2579 12.3451 15.21 13.3866 15.1344 14.3842V14.4235L15.1318 14.4629C15.1318 14.9142 15.3739 15.2475 15.6538 15.4558L11.6395 18.3119L18.5385 18.9669L24.9887 13.9467C26.3754 12.8658 28.1355 12.2733 29.9536 12.2733H33.2114C33.751 11.5697 34.3511 10.7249 34.9916 9.8222C37.9973 5.58203 41.9436 0.015656 45.2493 1.37195C48.6686 2.7745 47.8844 13.4861 46.8506 21.5361L48.1088 21.6726C48.6258 17.636 49.0897 12.8797 48.9863 8.93351C48.9334 6.96843 48.7391 5.13761 48.3105 3.67947ZM24.5499 12.6853C24.5499 12.6853 24.5473 12.6876 24.5448 12.6899C24.5246 12.7061 24.5045 12.7224 24.4792 12.7408L17.376 17.9601C17.1718 18.1105 16.9171 18.1915 16.6548 18.1915H13.8812L20.7044 13.338C21.398 12.845 22.1948 12.4955 23.0369 12.308C23.1907 12.2733 23.3445 12.2455 23.5009 12.2223C23.6597 12.1993 23.8187 12.1807 23.98 12.1692C23.98 12.1692 23.985 12.1692 23.9875 12.1692C24.1741 12.1552 24.3607 12.1483 24.5499 12.1506C24.6809 12.1506 24.9584 12.3543 24.5499 12.6899V12.6853ZM24.7415 10.9355C22.8528 10.9355 21.0146 11.5026 19.5093 12.5511L16.6245 14.5601C16.5388 14.6226 16.4001 14.5601 16.4001 14.4652C16.4053 14.4166 16.4078 14.3656 16.4103 14.3171C16.4103 14.3125 16.4103 14.3077 16.4103 14.3054C16.4304 14.0138 16.4506 13.7199 16.4657 13.4259C16.4707 13.3496 16.4758 13.2755 16.4784 13.1992C16.5136 12.5858 16.5414 11.9632 16.5716 11.3429C16.791 6.63278 17.0079 2.00379 19.5319 1.42512C21.7081 0.925235 24.3355 5.93151 25.8837 9.77365C26.0477 10.1763 26.1964 10.5675 26.3351 10.9378H24.739L24.7415 10.9355Z" fill="white"/>
</svg>
