<svg width="50" height="50" viewBox="0 0 50 50" fill="none" xmlns="http://www.w3.org/2000/svg">
<path d="M37.5 6C42.1023 6 45.8334 9.77655 45.8334 14.4351V18.6527H47.9167C49.0673 18.6527 50 19.5968 50 20.7614V29.1966C50 30.3612 49.0673 31.3053 47.9167 31.3053H43.7501V14.4351C43.7501 10.9412 40.9518 8.10871 37.5 8.10871H35.0001L34.9975 8.21719C34.9416 9.33138 34.0314 10.2174 32.9167 10.2174H17.0834C15.9688 10.2174 15.0585 9.3314 15.0026 8.21719L15 8.10871H12.5C9.04824 8.10872 6.24985 10.9412 6.24985 14.4351V31.3053H2.08328C0.932697 31.3053 0 30.3612 0 29.1966V20.7614C0 19.5968 0.932697 18.6527 2.08328 18.6527H4.16657V14.4351C4.16657 9.77657 7.89765 6.00002 12.5 6H37.5Z" fill="#EBEBED"/>
<path fill-rule="evenodd" clip-rule="evenodd" d="M13.9925 9.4157C14.4871 10.6525 15.6843 11.5246 17.0833 11.5246H32.9167C34.3157 11.5245 35.513 10.6525 36.0076 9.4157H37.5C40.2614 9.4157 42.5001 11.6818 42.5001 14.4769V32.6125H45.8334V35.5647C45.8334 40.2233 42.1023 44 37.5 44H12.5C7.89765 44 4.16656 40.2233 4.16656 35.5647V32.6125H7.5V14.4769C7.5 11.6818 9.73856 9.41573 12.5 9.4157H13.9925Z" fill="#FD57A8"/>
<path d="M24.9847 27.6447H24.9847C24.3941 27.6447 23.9153 28.1297 23.9153 28.7279V28.7279C23.9153 29.3261 24.3941 29.8111 24.9847 29.8111H24.9847C25.5754 29.8111 26.0542 29.3261 26.0542 28.7279V28.7279C26.0542 28.1297 25.5754 27.6447 24.9847 27.6447Z" fill="#151314"/>
<path d="M17.3846 31.449C20.9124 31.449 23.7722 28.5525 23.7722 24.9794C23.7722 21.4064 20.9124 18.5099 17.3846 18.5099C13.8569 18.5099 10.9971 21.4064 10.9971 24.9794C10.9971 28.5525 13.8569 31.449 17.3846 31.449Z" fill="#EBEBED"/>
<path d="M32.6063 31.449C36.134 31.449 38.9939 28.5525 38.9939 24.9794C38.9939 21.4064 36.134 18.5099 32.6063 18.5099C29.0786 18.5099 26.2188 21.4064 26.2188 24.9794C26.2188 28.5525 29.0786 31.449 32.6063 31.449Z" fill="#EBEBED"/>
<path d="M32.0198 27.8701C33.596 27.8701 34.8738 26.5759 34.8738 24.9794C34.8738 23.383 33.596 22.0888 32.0198 22.0888C30.4436 22.0888 29.1658 23.383 29.1658 24.9794C29.1658 26.5759 30.4436 27.8701 32.0198 27.8701Z" fill="#151314"/>
<path d="M17.9711 27.8701C19.5473 27.8701 20.8251 26.5759 20.8251 24.9794C20.8251 23.383 19.5473 22.0888 17.9711 22.0888C16.3949 22.0888 15.1171 23.383 15.1171 24.9794C15.1171 26.5759 16.3949 27.8701 17.9711 27.8701Z" fill="#151314"/>
<mask id="mask0_358_71" style="mask-type:luminance" maskUnits="userSpaceOnUse" x="10" y="18" width="15" height="14">
<path d="M17.035 31.7367C20.7196 31.9323 23.8632 29.0655 24.0563 25.3336C24.2494 21.6016 21.4189 18.4178 17.7343 18.2222C14.0496 18.0266 10.9061 20.8934 10.713 24.6253C10.5199 28.3572 13.3503 31.5411 17.035 31.7367Z" fill="white"/>
</mask>
<g mask="url(#mask0_358_71)">
<path d="M17.7189 18.5188C35.3335 19.4538 49.7626 17.3192 49.9472 13.7511C50.1318 10.183 36.0021 6.5325 18.3875 5.59751C0.772953 4.66253 -13.6561 6.7971 -13.8408 10.3652C-14.0254 13.9333 0.104356 17.5838 17.7189 18.5188Z" fill="#FD57A8"/>
</g>
<mask id="mask1_358_71" style="mask-type:luminance" maskUnits="userSpaceOnUse" x="25" y="18" width="15" height="14">
<path d="M32.956 31.7367C36.6406 31.5411 39.4711 28.3572 39.278 24.6253C39.0849 20.8934 35.9413 18.0266 32.2567 18.2222C28.572 18.4178 25.7416 21.6016 25.9347 25.3336C26.1278 29.0655 29.2713 31.9323 32.956 31.7367Z" fill="white"/>
</mask>
<g mask="url(#mask1_358_71)">
<path d="M32.272 18.5188C49.8866 17.5838 64.0163 13.9333 63.8317 10.3652C63.6471 6.7971 49.218 4.66253 31.6034 5.59751C13.9889 6.5325 -0.140887 10.183 0.0437407 13.7511C0.228369 17.3192 14.6575 19.4538 32.272 18.5188Z" fill="#FD57A8"/>
</g>
<mask id="mask2_358_71" style="mask-type:luminance" maskUnits="userSpaceOnUse" x="10" y="18" width="15" height="14">
<path d="M17.3846 31.746C21.0743 31.746 24.0654 28.7165 24.0654 24.9794C24.0654 21.2424 21.0743 18.2129 17.3846 18.2129C13.6949 18.2129 10.7038 21.2424 10.7038 24.9794C10.7038 28.7165 13.6949 31.746 17.3846 31.746Z" fill="white"/>
</mask>
<g mask="url(#mask2_358_71)">
<path d="M17.3846 44.3879C23.029 44.3879 27.6047 41.4915 27.6047 37.9184C27.6047 34.3454 23.029 31.4489 17.3846 31.4489C11.7402 31.4489 7.16452 34.3454 7.16452 37.9184C7.16452 41.4915 11.7402 44.3879 17.3846 44.3879Z" fill="#FD57A8"/>
</g>
<mask id="mask3_358_71" style="mask-type:luminance" maskUnits="userSpaceOnUse" x="25" y="18" width="15" height="14">
<path d="M32.6063 31.746C36.296 31.746 39.2871 28.7165 39.2871 24.9794C39.2871 21.2424 36.296 18.2129 32.6063 18.2129C28.9166 18.2129 25.9255 21.2424 25.9255 24.9794C25.9255 28.7165 28.9166 31.746 32.6063 31.746Z" fill="white"/>
</mask>
<g mask="url(#mask3_358_71)">
<path d="M32.6063 44.3879C38.2507 44.3879 42.8264 41.4915 42.8264 37.9184C42.8264 34.3454 38.2507 31.4489 32.6063 31.4489C26.9619 31.4489 22.3862 34.3454 22.3862 37.9184C22.3862 41.4915 26.9619 44.3879 32.6063 44.3879Z" fill="#FD57A8"/>
</g>
</svg>
