<svg width="50" height="50" viewBox="0 0 50 50" fill="none" xmlns="http://www.w3.org/2000/svg">
<path d="M37.5159 0H12.484C5.5893 0 0 5.5893 0 12.484V37.5159C0 44.4107 5.5893 50 12.484 50H37.5159C44.4107 50 50 44.4107 50 37.5159V12.484C50 5.5893 44.4107 0 37.5159 0Z" fill="url(#paint0_linear_354_11)"/>
<path d="M37.5159 0H12.484C5.5893 0 0 5.5893 0 12.484V37.5159C0 44.4107 5.5893 50 12.484 50H37.5159C44.4107 50 50 44.4107 50 37.5159V12.484C50 5.5893 44.4107 0 37.5159 0Z" fill="url(#paint1_radial_354_11)"/>
<path fill-rule="evenodd" clip-rule="evenodd" d="M25.4105 43.9164C21.6602 43.9164 19.9173 43.3689 16.8879 41.1789C14.9716 43.6427 8.9036 45.5681 8.63895 42.2739C8.63895 39.8011 8.09145 37.7115 7.47095 35.4302C6.73185 32.6197 5.89235 29.4899 5.89235 24.9548C5.89235 14.1235 14.78 5.975 25.3102 5.975C35.8494 5.975 44.1075 14.5251 44.1075 25.0552C44.1429 35.4225 35.7778 43.8611 25.4105 43.9164ZM25.5657 15.3372C20.4375 15.0726 16.4407 18.6222 15.5556 24.1884C14.8256 28.7965 16.1214 34.4083 17.2255 34.7003C17.7547 34.828 19.087 33.7513 19.9173 32.9209C21.2904 33.8694 22.8893 34.4391 24.5529 34.5725C29.8665 34.8281 34.4068 30.7828 34.7636 25.475C34.9713 20.1559 30.8801 15.6507 25.5657 15.3463V15.3372Z" fill="white"/>
<defs>
<linearGradient id="paint0_linear_354_11" x1="5.89235" y1="38.0268" x2="50" y2="25" gradientUnits="userSpaceOnUse">
<stop stop-color="#44CCFF"/>
<stop offset="0.662" stop-color="#5533EE"/>
<stop offset="1" stop-color="#9933DD"/>
</linearGradient>
<radialGradient id="paint1_radial_354_11" cx="0" cy="0" r="1" gradientUnits="userSpaceOnUse" gradientTransform="translate(-1.18954 -21.9593) rotate(51.356) scale(60.6759 25)">
<stop stop-color="#0000FF"/>
<stop offset="1" stop-opacity="0"/>
</radialGradient>
</defs>
</svg>
