<svg width="50" height="50" viewBox="0 0 50 50" fill="none" xmlns="http://www.w3.org/2000/svg">
<path fill-rule="evenodd" clip-rule="evenodd" d="M25 0C38.8071 0 50 11.1927 50 25C50 38.8073 38.8065 50 25 50C11.1927 50 0 38.8073 0 25C0 11.1927 11.1927 0 25 0ZM29.1667 17.6951C29.4349 18.5271 30.1782 19.0672 31.0527 19.0656L38.4907 19.051C39.3636 19.0494 40.1056 19.5871 40.3756 20.4175C40.6451 21.2477 40.3612 22.1193 39.6545 22.6308L33.628 26.9916C32.9195 27.5045 32.6359 28.3781 32.9072 29.2088L35.2191 36.2782C35.4904 37.1087 35.2076 37.9808 34.5019 38.4939C33.7955 39.0067 32.8787 39.0059 32.1738 38.4915L26.1648 34.1079C25.4584 33.5927 24.5395 33.5927 23.8336 34.1079L17.8246 38.4915C17.1197 39.0059 16.2024 39.0067 15.4968 38.4939C14.7903 37.9808 14.5077 37.1079 14.7793 36.2782L17.0918 29.2088C17.3631 28.3776 17.0795 27.5042 16.3707 26.9916L10.3449 22.6308C9.63772 22.1193 9.35358 21.2467 9.62386 20.4175C9.89336 19.5871 10.6354 19.0494 11.5082 19.051L18.946 19.0656C19.8202 19.0672 20.5638 18.5271 20.8325 17.6951L23.1172 10.6163C23.3854 9.78529 24.1264 9.24578 24.9997 9.24578C25.8726 9.24578 26.6138 9.78582 26.8818 10.6163L29.1672 17.6951H29.1667Z" fill="#E30E25"/>
</svg>
