<svg width="50" height="50" viewBox="0 0 50 50" fill="none" xmlns="http://www.w3.org/2000/svg">
<path d="M47.4759 28.8142C47.3428 28.54 47.195 28.2585 47.0347 27.9722C45.3985 25.8293 42.8037 23.5822 38.6909 21.6505C41.7465 22.3421 46.0638 23.4876 49.4744 28.0886C49.8687 26.1448 50.0338 24.184 49.9943 22.2475C49.9499 21.7694 49.8859 21.2598 49.8317 20.8278C49.7676 20.311 49.4867 19.0442 48.5527 17.9764C48.018 17.3673 47.0644 16.2194 45.1226 15.5909C42.9097 14.8774 40.1743 14.426 36.8058 14.4722C39.7283 13.7951 43.883 12.9894 48.9001 15.2075C48.3827 13.4676 47.6878 11.8076 46.8327 10.269C46.5247 9.77398 45.7879 8.81787 44.5952 8.23302C44.154 8.01705 43.028 7.50014 41.6997 7.44433C39.3415 7.24534 36.5297 7.42734 33.2179 8.26214C35.6377 7.04877 39.026 5.49565 43.745 5.99313C41.8451 3.95467 39.5607 2.35545 36.9585 1.37504C36.547 1.21973 35.3248 0.68099 33.9177 0.945511C33.7403 0.974629 32.8014 1.2173 32.5106 1.31437C30.5417 1.97688 28.3904 3.0228 26.0962 4.60746C27.3751 3.20239 29.0508 1.4624 31.6013 0.171378C20.8055 -1.09781 17.1905 4.9909 16.0372 8.27428C18.2822 8.46113 27.8162 9.92451 26.8552 21.2841C26.8478 21.3715 26.8404 21.4588 26.833 21.5437C28.0159 20.556 29.6693 19.4907 30.6821 20.1969C32.2518 21.2914 28.1637 27.3291 25.968 27.1689C23.765 36.427 17.5872 41.4285 0.569237 37.9825C0.377026 37.9437 0.187281 37.9024 0 37.8587C2.39523 41.3484 5.95604 44.7653 10.372 47.0804C10.8377 47.3254 12.0526 47.8253 13.4769 47.6822C16.8381 47.3473 21.4437 45.6534 26.0346 40.4068C24.5684 43.2024 22.2569 47.1871 15.8598 49.2135C19.0017 50.0313 22.4295 50.2642 26.0666 49.66C26.1085 49.6527 27.04 49.4828 27.4663 49.3882C28.0898 49.2135 29.0015 48.7912 29.8418 48.0632C31.6925 46.4591 32.9221 43.3456 33.0749 42.8117C33.6318 40.8679 33.9324 38.5358 33.7895 35.7475C34.6373 38.5237 35.6771 42.5156 33.1735 47.4565C34.6963 46.7649 36.2415 45.9204 37.8087 44.906C38.5529 44.423 40.1128 43.1369 41.0418 41.7294C41.3301 41.2925 41.9363 40.1423 41.9141 38.7324C41.9043 38.1038 41.8156 36.7158 41.2044 35.3834C40.5194 33.8352 39.5435 32.1777 38.1858 30.4232C40.3148 32.1486 43.1684 34.6384 44.2674 39.1473C45.3714 37.7835 46.3053 36.3493 47.0791 34.8641C47.2714 34.4953 47.8135 33.1096 47.9392 31.8889C48.0156 31.3818 48.087 30.0859 47.4759 28.8142Z" fill="#89CA5D"/>
<path d="M11.7421 32.3039C11.6903 33.4396 11.6558 34.4297 12.8879 34.6554C14.12 34.8811 16.0126 34.7476 16.5449 34.4637C17.0771 34.1798 19.3787 32.4956 20.2437 29.7097C20.2437 29.7097 17.597 32.0491 15.606 32.3282C14.8519 32.435 12.3409 32.3961 11.7421 32.3039Z" fill="#89CA5D"/>
<path d="M21.1775 26.0842L22.2174 30.2703C22.2174 30.2703 23.001 29.2244 22.9345 27.9746C22.8704 26.7273 21.1775 26.0842 21.1775 26.0842Z" fill="#89CA5D"/>
<path d="M24.1175 20.209C24.12 20.2042 24.3639 19.6605 24.3639 18.7894C24.3639 18.3526 24.3023 17.8356 24.1175 17.263C23.9746 16.8212 23.6 16.4913 23.1269 16.2413C22.4147 15.8676 21.742 15.6711 20.9731 15.5667C20.2067 15.4623 19.6178 15.4526 19.6154 15.4526H11.3972C11.439 15.8651 11.4366 16.416 11.3454 17.1562C11.338 17.263 11.3256 17.3722 11.3109 17.4935C11.2764 17.7628 11.2197 18.0759 11.1335 18.4448V18.4472C11.1063 18.5807 11.0768 18.7021 11.0423 18.8112C11.0152 18.918 10.9857 19.0272 10.9535 19.1437C10.7614 19.8281 10.4878 20.6677 10.1034 21.7209C9.84468 22.216 9.63768 22.745 9.4923 23.2837C9.34444 23.837 9.26065 24.3975 9.26065 24.9437C9.26065 25.3707 9.3124 25.7905 9.43068 26.1861C9.54897 26.5817 9.74117 26.9603 10.0196 27.2806L10.2735 27.5718L10.6628 27.5233C10.9462 27.4893 11.2542 27.4505 11.577 27.414C12.3064 27.3291 13.1196 27.2393 13.9451 27.1447C15.0245 27.0233 16.1211 26.8972 17.0895 26.7758C17.0895 26.7758 17.5947 26.6958 17.8091 26.5938C17.8189 26.589 17.8288 26.584 17.8386 26.5792C18.0062 26.4967 18.159 26.3923 18.2921 26.271C18.4917 26.089 18.642 25.8682 18.7331 25.6376C18.8268 25.4047 18.8662 25.1644 18.8662 24.9315C18.8662 24.616 18.7973 24.3127 18.6839 24.0263C18.5139 23.5968 18.2427 23.1987 17.8978 22.8663C17.7253 22.6989 17.5306 22.5508 17.3187 22.4247C17.1067 22.2984 16.8727 22.1965 16.6238 22.1286C16.5104 22.097 16.4192 22.0582 16.3379 22.0096C16.1975 21.9247 16.0866 21.8131 15.993 21.67C15.9215 21.5632 15.8624 21.4418 15.8155 21.3132C15.744 21.1215 15.7021 20.9176 15.68 20.7477C15.6578 20.5779 15.6529 20.442 15.6529 20.3838C15.6529 20.3716 15.6529 20.3619 15.6529 20.3571V20.3546L15.6627 20.1241L17.1364 20.1435L17.3779 20.1459L17.3901 20.1362C17.6046 19.9833 18.0851 19.6775 18.6937 19.481C18.6715 19.5684 18.6567 19.6605 18.6567 19.7553C18.6567 20.0368 18.7651 20.2915 18.9426 20.4784C19.12 20.6628 19.364 20.7793 19.6351 20.7793C19.9061 20.7793 20.1525 20.6628 20.3275 20.4784C20.5049 20.294 20.6134 20.0368 20.6134 19.7553C20.6134 19.6363 20.5937 19.5223 20.5567 19.4155C20.9781 19.5417 21.4019 19.7819 21.8061 20.1896L21.8184 20.2017L24.0978 20.2357L24.1175 20.209ZM16.2443 23.4681C16.3872 23.507 16.5376 23.5773 16.6829 23.6817C16.8997 23.8345 17.0994 24.0554 17.2349 24.2884C17.3015 24.4048 17.3532 24.5238 17.3877 24.633C17.4222 24.7422 17.4369 24.8441 17.4345 24.929C17.4345 25.0043 17.4222 25.0625 17.4074 25.1111C17.3951 25.1474 17.3803 25.1742 17.3606 25.2032C17.331 25.2421 17.2916 25.281 17.2152 25.3246C17.1906 25.3391 17.1585 25.3538 17.124 25.3659C17.0625 25.3731 16.9983 25.3829 16.9342 25.3901C15.9757 25.5115 14.8717 25.6376 13.7825 25.7614C13.1123 25.8366 12.4469 25.9119 11.8259 25.9822C11.5154 26.0187 11.2147 26.0527 10.9314 26.0866C10.8871 25.9992 10.8501 25.9021 10.8181 25.7954C10.7442 25.5527 10.7047 25.2615 10.7047 24.9437C10.7047 24.5384 10.7687 24.087 10.8895 23.6356C11.0102 23.1842 11.1902 22.7328 11.4095 22.3179L11.4317 22.2766L11.4489 22.233C11.9836 20.772 12.3212 19.6825 12.5257 18.8185C12.6293 18.3866 12.6983 18.0104 12.7426 17.6707C12.7747 17.4328 12.7919 17.2145 12.7993 17.0081C12.8017 16.9232 12.8042 16.8382 12.8042 16.7582C12.8042 16.6393 12.7993 16.5277 12.7944 16.416C12.7944 16.416 14.019 16.4839 14.268 17.5784L14.2827 17.6003C14.2877 17.6391 14.2902 17.6779 14.2926 17.7167C14.3049 17.809 14.3124 17.9109 14.3099 18.0177C14.3099 18.0395 14.3124 18.0613 14.3124 18.0832H14.3099L14.2779 18.8816L14.231 20.061L14.2212 20.2988C14.2212 20.3085 14.2187 20.3376 14.2187 20.3813C14.2187 20.4882 14.2236 20.6847 14.2582 20.9346C14.2827 21.1215 14.3246 21.3399 14.3961 21.5729C14.5021 21.9198 14.6721 22.3058 14.9679 22.66C15.1157 22.8348 15.2955 23.0022 15.51 23.1429C15.7218 23.2813 15.9683 23.3929 16.2443 23.4681ZM21.5966 18.9763L21.5769 19.0029L21.5473 18.9836C20.9461 18.6123 20.3004 18.4884 19.7016 18.4884C18.5828 18.4884 17.6439 18.9253 17.533 18.9786L17.5232 18.9836L17.4813 19.0054L17.1487 17.6221L17.1807 17.6124C17.7894 17.4207 18.4153 17.3431 18.9968 17.3431C19.5267 17.3431 20.0219 17.4085 20.431 17.5153C20.8425 17.6221 21.1678 17.7701 21.3649 17.9376C21.6336 18.1681 21.7124 18.4011 21.7124 18.5855C21.7149 18.8185 21.5991 18.9714 21.5966 18.9763Z" fill="#89CA5D"/>
<path d="M13.4472 27.7319C10.1673 27.9018 12.1584 31.0832 12.1584 31.0832L20.7142 28.6783C20.5368 28.2051 16.7246 27.562 13.4472 27.7319Z" fill="#89CA5D"/>
</svg>
