<svg width="50" height="50" viewBox="0 0 50 50" fill="none" xmlns="http://www.w3.org/2000/svg">
<path d="M2 9C2 12.866 5.13401 16 9 16C12.866 16 16 12.866 16 9C16 5.13401 12.866 2 9 2C5.13401 2 2 5.13401 2 9Z" fill="url(#paint0_linear_363_267)"/>
<path d="M5.16401 8.9216C7.20241 8.0368 8.56041 7.4488 9.24361 7.1632C11.184 6.3512 11.5928 6.2112 11.8532 6.2056C11.912 6.2056 12.0408 6.2196 12.1276 6.2896C12.1976 6.3456 12.2172 6.4212 12.2284 6.48C12.2396 6.5388 12.2508 6.662 12.2396 6.7544C12.1332 7.8632 11.6796 10.5484 11.4472 11.786C11.3464 12.3096 11.156 12.4832 10.9684 12.5028C10.5596 12.5364 10.2516 12.234 9.86241 11.9764C9.24361 11.576 8.89921 11.324 8.30001 10.9292C7.60561 10.4728 8.05361 10.2236 8.45121 9.8148C8.55481 9.7084 10.344 8.0788 10.3804 7.9332C10.386 7.9136 10.386 7.8436 10.344 7.81C10.3048 7.7736 10.246 7.7876 10.1984 7.7988C10.134 7.81 9.15681 8.4624 7.25001 9.7504C6.97001 9.9436 6.72081 10.036 6.49121 10.0304C6.24201 10.0248 5.76321 9.8904 5.40201 9.7728C4.96521 9.6328 4.61521 9.5572 4.64601 9.3136C4.66281 9.1848 4.83641 9.056 5.16401 8.9216Z" fill="white"/>
<mask id="mask0_363_267" style="mask-type:luminance" maskUnits="userSpaceOnUse" x="18" y="2" width="14" height="14">
<path d="M32 2H18V16H32V2Z" fill="white"/>
</mask>
<g mask="url(#mask0_363_267)">
<path fill-rule="evenodd" clip-rule="evenodd" d="M26.671 9.81841C26.4061 9.92669 26.2368 10.3415 26.0651 10.5534C25.977 10.6619 25.872 10.6789 25.7367 10.6245C24.7422 10.2283 23.9799 9.56465 23.4311 8.64944C23.3381 8.50754 23.3548 8.39542 23.4669 8.26363C23.6326 8.06841 23.8409 7.84665 23.8858 7.58359C23.9853 7.00172 23.2246 5.19676 22.22 6.01461C19.3292 8.37028 27.0424 14.6181 28.4344 11.2389C28.8282 10.2811 27.1102 9.63848 26.671 9.81841ZM24.9998 14.7772C23.9774 14.7772 22.9714 14.5054 22.0907 13.9908C21.9493 13.9079 21.7784 13.8861 21.6203 13.929L19.7066 14.4543L20.3732 12.9856C20.4178 12.8876 20.4357 12.7795 20.425 12.6723C20.4143 12.5651 20.3755 12.4626 20.3125 12.3753C19.5994 11.3868 19.2223 10.2198 19.2223 9C19.2223 5.81419 21.8139 3.22254 24.9998 3.22254C28.1856 3.22254 30.777 5.81419 30.777 9C30.777 12.1856 28.1853 14.7772 24.9998 14.7772ZM24.9998 2C21.1399 2 17.9998 5.14014 17.9998 9C17.9998 10.3579 18.3853 11.6619 19.1179 12.7937L18.0545 15.1357C18.0064 15.2415 17.9895 15.3587 18.0057 15.4738C18.0218 15.5888 18.0704 15.6969 18.1458 15.7854C18.2033 15.8526 18.2746 15.9066 18.355 15.9437C18.4353 15.9807 18.5227 15.9999 18.6112 16C19.0055 16 21.1555 15.3243 21.7027 15.1742C22.7141 15.7154 23.8486 16 24.9998 16C28.8593 16 31.9998 12.8596 31.9998 9C31.9998 5.14014 28.8593 2 24.9998 2Z" fill="#39AE41"/>
</g>
<path d="M12.5045 34H5.49552C3.565 34 2 35.565 2 37.4955V44.5045C2 46.435 3.565 48 5.49552 48H12.5045C14.435 48 16 46.435 16 44.5045V37.4955C16 35.565 14.435 34 12.5045 34Z" fill="url(#paint1_linear_363_267)"/>
<path d="M12.5045 34H5.49552C3.565 34 2 35.565 2 37.4955V44.5045C2 46.435 3.565 48 5.49552 48H12.5045C14.435 48 16 46.435 16 44.5045V37.4955C16 35.565 14.435 34 12.5045 34Z" fill="url(#paint2_radial_363_267)"/>
<path fill-rule="evenodd" clip-rule="evenodd" d="M9.11494 46.2966C8.06486 46.2966 7.57684 46.1433 6.72861 45.5301C6.19205 46.22 4.49301 46.7591 4.4189 45.8367C4.4189 45.1443 4.2656 44.5592 4.09186 43.9205C3.88492 43.1335 3.64986 42.2572 3.64986 40.9873C3.64986 37.9546 6.1384 35.673 9.08686 35.673C12.0378 35.673 14.3501 38.067 14.3501 41.0155C14.36 43.9183 12.0178 46.2811 9.11494 46.2966ZM9.1584 38.2944C7.7225 38.2203 6.60339 39.2142 6.35557 40.7727C6.15117 42.063 6.51399 43.6343 6.82314 43.7161C6.97131 43.7518 7.34436 43.4504 7.57684 43.2178C7.96131 43.4834 8.409 43.6429 8.87481 43.6803C10.3626 43.7519 11.6339 42.6192 11.7338 41.133C11.792 39.6436 10.6464 38.3822 9.1584 38.297V38.2944Z" fill="white"/>
<path d="M34 9C34 12.866 37.134 16 41 16C44.866 16 48 12.866 48 9C48 5.13401 44.866 2 41 2C37.134 2 34 5.13401 34 9Z" fill="#5865F2"/>
<path d="M44.6904 5.7352C44.0016 5.4272 43.2652 5.206 42.498 5.08C42.4028 5.2424 42.2908 5.4608 42.2152 5.6344C41.3976 5.5168 40.5856 5.5168 39.782 5.6344C39.7064 5.4608 39.5944 5.2424 39.4992 5.08C38.7264 5.206 37.99 5.43 37.3012 5.738C35.9124 7.7344 35.5344 9.6832 35.7248 11.604C36.646 12.2592 37.5392 12.6568 38.4156 12.9172C38.634 12.6344 38.8272 12.332 38.9924 12.0128C38.676 11.898 38.3708 11.758 38.0852 11.5928C38.1608 11.5396 38.2364 11.4836 38.3064 11.4248C40.0592 12.206 41.9604 12.206 43.6908 11.4248C43.7636 11.4836 43.8364 11.5396 43.912 11.5928C43.6236 11.758 43.3212 11.9008 43.002 12.0156C43.17 12.332 43.3632 12.6344 43.5788 12.92C44.458 12.6596 45.3512 12.2592 46.2724 11.604C46.4936 9.378 45.8972 7.446 44.6904 5.7352ZM39.2304 10.4224C38.7068 10.4224 38.2756 9.9576 38.2756 9.3864C38.2756 8.818 38.6956 8.3504 39.2304 8.3504C39.7652 8.3504 40.1964 8.818 40.188 9.3864C40.188 9.9576 39.7652 10.4224 39.2304 10.4224ZM42.7668 10.4224C42.2404 10.4224 41.8092 9.9576 41.8092 9.3864C41.8092 8.818 42.232 8.3504 42.7668 8.3504C43.3016 8.3504 43.7328 8.818 43.7216 9.3864C43.7216 9.9576 43.3016 10.4224 42.7668 10.4224Z" fill="white"/>
<g clip-path="url(#clip0_363_267)">
<mask id="mask1_363_267" style="mask-type:luminance" maskUnits="userSpaceOnUse" x="34" y="34" width="14" height="14">
<path d="M48 34H34V48H48V34Z" fill="white"/>
</mask>
<g mask="url(#mask1_363_267)">
<path fill-rule="evenodd" clip-rule="evenodd" d="M34 34H48V48H34V34Z" fill="url(#paint3_linear_363_267)"/>
<g filter="url(#filter0_d_363_267)">
<path d="M37.176 39.4299C38.8229 41.9448 41.4726 43.2375 44.5953 43.6426C44.475 43.7413 44.3332 43.8805 44.1676 44.0395C43.2579 44.9128 41.6314 46.3864 38.9247 45.0507C35.7249 43.4715 37.2976 40.1909 37.176 39.4299Z" fill="url(#paint4_linear_363_267)"/>
<mask id="mask2_363_267" style="mask-type:luminance" maskUnits="userSpaceOnUse" x="36" y="39" width="9" height="7">
<path d="M37.1816 39.4299C38.8248 41.9449 41.4726 43.2363 44.5949 43.6393C44.4745 43.7382 44.3324 43.8775 44.1666 44.0367C43.2556 44.9113 41.6268 46.3869 38.922 45.0524C35.7243 43.4748 37.302 40.1913 37.1816 39.4299Z" fill="white"/>
</mask>
<g mask="url(#mask2_363_267)">
<path fill-rule="evenodd" clip-rule="evenodd" d="M37.2741 39.0481L38.4617 40.917C38.1059 41.373 37.806 41.8881 37.5616 42.4623C37.3173 43.0366 37.2689 43.5688 37.4163 44.0588L36.1333 43.1963L37.2741 39.0481Z" fill="url(#paint5_linear_363_267)"/>
</g>
<mask id="mask3_363_267" style="mask-type:luminance" maskUnits="userSpaceOnUse" x="36" y="39" width="9" height="7">
<path d="M37.1816 39.4299C38.8248 41.9449 41.4726 43.2363 44.5949 43.6393C44.4745 43.7382 44.3324 43.8775 44.1666 44.0367C43.2556 44.9113 41.6268 46.3869 38.922 45.0524C35.7243 43.4748 37.302 40.1913 37.1816 39.4299Z" fill="white"/>
</mask>
<g mask="url(#mask3_363_267)">
<g filter="url(#filter1_d_363_267)">
<path d="M42.9579 42.9389L44.3211 43.6675C43.8678 44.3028 43.3372 44.8091 42.7292 45.1862C42.1213 45.5634 41.3571 45.74 40.4368 45.7162L39.9235 45.5296C40.6862 45.4107 41.3048 45.0685 41.7793 44.503C42.2539 43.9375 42.6468 43.4163 42.9579 42.9389Z" fill="black"/>
</g>
<path d="M42.9579 42.9389L44.3211 43.6675C43.8678 44.3028 43.3372 44.8091 42.7292 45.1862C42.1213 45.5634 41.3571 45.74 40.4368 45.7162L39.9235 45.5296C40.6862 45.4107 41.3048 45.0685 41.7793 44.503C42.2539 43.9375 42.6468 43.4163 42.9579 42.9389Z" fill="url(#paint6_radial_363_267)"/>
</g>
<mask id="mask4_363_267" style="mask-type:luminance" maskUnits="userSpaceOnUse" x="36" y="39" width="9" height="7">
<path d="M37.1816 39.4299C38.8248 41.9449 41.4726 43.2363 44.5949 43.6393C44.4745 43.7382 44.3324 43.8775 44.1666 44.0367C43.2556 44.9113 41.6268 46.3869 38.922 45.0524C35.7243 43.4748 37.302 40.1913 37.1816 39.4299Z" fill="white"/>
</mask>
<g mask="url(#mask4_363_267)">
<g filter="url(#filter2_d_363_267)">
<path d="M41.4202 42.5828L43.3835 43.452C42.9965 43.9558 42.5084 44.4267 41.919 44.8643C41.3295 45.3019 40.5802 45.4585 39.6715 45.3341L38.7454 44.929C39.7775 44.7769 40.4398 44.5156 40.7319 44.1451C41.0241 43.7746 41.2536 43.2538 41.4202 42.5828Z" fill="black"/>
</g>
<path d="M41.4202 42.5828L43.3835 43.452C42.9965 43.9558 42.5084 44.4267 41.919 44.8643C41.3295 45.3019 40.5802 45.4585 39.6715 45.3341L38.7454 44.929C39.7775 44.7769 40.4398 44.5156 40.7319 44.1451C41.0241 43.7746 41.2536 43.2538 41.4202 42.5828Z" fill="url(#paint7_radial_363_267)"/>
</g>
<mask id="mask5_363_267" style="mask-type:luminance" maskUnits="userSpaceOnUse" x="36" y="39" width="9" height="7">
<path d="M37.1816 39.4299C38.8248 41.9449 41.4726 43.2363 44.5949 43.6393C44.4745 43.7382 44.3324 43.8775 44.1666 44.0367C43.2556 44.9113 41.6268 46.3869 38.922 45.0524C35.7243 43.4748 37.302 40.1913 37.1816 39.4299Z" fill="white"/>
</mask>
<g mask="url(#mask5_363_267)">
<g filter="url(#filter3_d_363_267)">
<path d="M41.5547 42.064L40.0851 41.5376L38.2935 44.9738L39.0068 45.4454C39.7237 45.1856 40.2827 44.7824 40.684 44.2356C41.0854 43.6889 41.3756 42.965 41.5547 42.064Z" fill="black"/>
</g>
<path d="M41.5547 42.064L40.0851 41.5376L38.2935 44.9738L39.0068 45.4454C39.7237 45.1856 40.2827 44.7824 40.684 44.2356C41.0854 43.6889 41.3756 42.965 41.5547 42.064Z" fill="url(#paint8_radial_363_267)"/>
</g>
<mask id="mask6_363_267" style="mask-type:luminance" maskUnits="userSpaceOnUse" x="36" y="39" width="9" height="7">
<path d="M37.1816 39.4299C38.8248 41.9449 41.4726 43.2363 44.5949 43.6393C44.4745 43.7382 44.3324 43.8775 44.1666 44.0367C43.2556 44.9113 41.6268 46.3869 38.922 45.0524C35.7243 43.4748 37.302 40.1913 37.1816 39.4299Z" fill="white"/>
</mask>
<g mask="url(#mask6_363_267)">
<g filter="url(#filter4_d_363_267)">
<path d="M38.8377 40.5613L40.0921 41.5L38.2997 44.9356L37.5148 44.6014C37.2999 43.6949 37.3169 42.9415 37.5657 42.3409C37.8146 41.7404 38.2387 41.1472 38.8377 40.5613Z" fill="black"/>
</g>
<path d="M38.8377 40.5613L40.0921 41.5L38.2997 44.9356L37.5148 44.6014C37.2999 43.6949 37.3169 42.9415 37.5657 42.3409C37.8146 41.7404 38.2387 41.1472 38.8377 40.5613Z" fill="url(#paint9_radial_363_267)"/>
</g>
<g style="mix-blend-mode:overlay" opacity="0.491" filter="url(#filter5_f_363_267)">
<path fill-rule="evenodd" clip-rule="evenodd" d="M40.3712 42.4432L40.5113 42.5165C42.064 43.3199 43.5831 43.7628 44.6043 43.5954C44.5539 43.6396 44.4997 43.6899 44.4419 43.7452C44.4137 43.7488 44.2662 43.7611 44.2374 43.7637C43.2021 43.86 41.8203 43.3827 40.2997 42.5802C38.8127 41.7954 37.6191 40.722 37.1235 39.71C37.1213 39.7054 37.1238 39.4988 37.1514 39.5047C37.1553 39.5055 37.1767 39.5336 37.1806 39.5422C37.6647 40.5656 38.866 41.6488 40.3712 42.4432Z" fill="black"/>
</g>
<path d="M40.3105 42.4812C42.6414 43.7335 44.6486 44.2105 45.5768 42.9993C46.5051 41.7879 45.3972 38.869 42.8305 37.5619C40.2638 36.2546 37.7812 36.6461 37.0846 37.9634C36.3881 39.2808 37.9796 41.229 40.3105 42.4812Z" fill="url(#paint10_radial_363_267)"/>
<path d="M40.3105 42.4812C42.6414 43.7335 44.6486 44.2105 45.5768 42.9993C46.5051 41.7879 45.3972 38.869 42.8305 37.5619C40.2638 36.2546 37.7812 36.6461 37.0846 37.9634C36.3881 39.2808 37.9796 41.229 40.3105 42.4812Z" fill="url(#paint11_radial_363_267)" style="mix-blend-mode:overlay"/>
<path d="M40.3105 42.4812C42.6414 43.7335 44.6486 44.2105 45.5768 42.9993C46.5051 41.7879 45.3972 38.869 42.8305 37.5619C40.2638 36.2546 37.7812 36.6461 37.0846 37.9634C36.3881 39.2808 37.9796 41.229 40.3105 42.4812Z" fill="url(#paint12_radial_363_267)"/>
<g filter="url(#filter6_d_363_267)">
<path d="M44.4419 39.6033C44.7609 39.0001 44.0906 37.8529 43.0257 37.298C41.9607 36.7432 41.0186 36.7748 40.6576 37.4574C39.9717 38.7545 43.7922 40.8321 44.4419 39.6033Z" fill="black"/>
</g>
<path fill-rule="evenodd" clip-rule="evenodd" d="M43.0076 37.3322C43.527 37.6028 43.9514 38.0159 44.2101 38.4367C44.4691 38.8583 44.5643 39.2889 44.4077 39.5851C44.3382 39.7165 44.23 39.8075 44.0943 39.8642C43.9437 39.9271 43.7595 39.9482 43.5557 39.9359C43.0952 39.908 42.5364 39.7098 42.0298 39.4226C41.5351 39.1422 41.0899 38.777 40.8351 38.4004C40.7228 38.2347 40.6477 38.0671 40.623 37.9034C40.6006 37.7554 40.6202 37.611 40.6918 37.4756C40.8638 37.1503 41.1731 36.9796 41.5648 36.9534C41.9759 36.9254 42.4762 37.0555 43.0076 37.3322Z" fill="url(#paint13_radial_363_267)" stroke="url(#paint14_linear_363_267)" stroke-width="0.5"/>
</g>
</g>
</g>
<path d="M28.5 35.68C29.7886 35.68 30.8334 36.7374 30.8334 38.0418V39.2228H31.4167C31.7388 39.2228 32 39.4871 32 39.8132V42.175C32 42.5011 31.7388 42.7655 31.4167 42.7655H30.25V38.0418C30.25 37.0635 29.4665 36.2704 28.5 36.2704H27.8L27.7993 36.3008C27.7836 36.6128 27.5288 36.8609 27.2167 36.8609H22.7834C22.4713 36.8609 22.2164 36.6128 22.2007 36.3008L22.2 36.2704H21.5C20.5335 36.2704 19.75 37.0635 19.75 38.0418V42.7655H18.5833C18.2612 42.7655 18 42.5011 18 42.175V39.8132C18 39.4871 18.2612 39.2228 18.5833 39.2228H19.1666V38.0418C19.1666 36.7374 20.2113 35.68 21.5 35.68H28.5Z" fill="#EBEBED"/>
<path fill-rule="evenodd" clip-rule="evenodd" d="M21.9179 36.6364C22.0564 36.9827 22.3916 37.2269 22.7833 37.2269H27.2167C27.6084 37.2269 27.9436 36.9827 28.0821 36.6364H28.5C29.2732 36.6364 29.9 37.2709 29.9 38.0535V43.1315H30.8334V43.9581C30.8334 45.2625 29.7886 46.32 28.5 46.32H21.5C20.2113 46.32 19.1666 45.2625 19.1666 43.9581V43.1315H20.1V38.0535C20.1 37.2709 20.7268 36.6364 21.5 36.6364H21.9179Z" fill="#FD57A8"/>
<path d="M24.9957 41.7405C24.8304 41.7405 24.6963 41.8763 24.6963 42.0438C24.6963 42.2113 24.8304 42.3471 24.9957 42.3471C25.1611 42.3471 25.2952 42.2113 25.2952 42.0438C25.2952 41.8763 25.1611 41.7405 24.9957 41.7405Z" fill="#151314"/>
<path d="M22.8677 42.8057C23.8555 42.8057 24.6562 41.9947 24.6562 40.9942C24.6562 39.9938 23.8555 39.1828 22.8677 39.1828C21.8799 39.1828 21.0792 39.9938 21.0792 40.9942C21.0792 41.9947 21.8799 42.8057 22.8677 42.8057Z" fill="#EBEBED"/>
<path d="M27.1298 42.8057C28.1175 42.8057 28.9183 41.9947 28.9183 40.9942C28.9183 39.9938 28.1175 39.1828 27.1298 39.1828C26.142 39.1828 25.3413 39.9938 25.3413 40.9942C25.3413 41.9947 26.142 42.8057 27.1298 42.8057Z" fill="#EBEBED"/>
<path d="M26.9655 41.8036C27.4069 41.8036 27.7647 41.4412 27.7647 40.9942C27.7647 40.5472 27.4069 40.1849 26.9655 40.1849C26.5242 40.1849 26.1664 40.5472 26.1664 40.9942C26.1664 41.4412 26.5242 41.8036 26.9655 41.8036Z" fill="#151314"/>
<path d="M23.0319 41.8036C23.4732 41.8036 23.831 41.4412 23.831 40.9942C23.831 40.5472 23.4732 40.1849 23.0319 40.1849C22.5906 40.1849 22.2328 40.5472 22.2328 40.9942C22.2328 41.4412 22.5906 41.8036 23.0319 41.8036Z" fill="#151314"/>
<mask id="mask7_363_267" style="mask-type:luminance" maskUnits="userSpaceOnUse" x="20" y="39" width="5" height="4">
<path d="M22.7698 42.8863C23.8015 42.941 24.6817 42.1383 24.7358 41.0934C24.7898 40.0484 23.9973 39.157 22.9656 39.1022C21.9339 39.0474 21.0537 39.8502 20.9996 40.8951C20.9456 41.94 21.7381 42.8315 22.7698 42.8863Z" fill="white"/>
</mask>
<g mask="url(#mask7_363_267)">
<path d="M22.9613 39.1853C27.8934 39.4471 31.9335 38.8494 31.9852 37.8503C32.0369 36.8512 28.0806 35.8291 23.1485 35.5673C18.2164 35.3055 14.1763 35.9032 14.1246 36.9023C14.0729 37.9013 18.0292 38.9235 22.9613 39.1853Z" fill="#FD57A8"/>
</g>
<mask id="mask8_363_267" style="mask-type:luminance" maskUnits="userSpaceOnUse" x="25" y="39" width="5" height="4">
<path d="M27.2277 42.8863C28.2594 42.8315 29.0519 41.94 28.9978 40.8951C28.9438 39.8502 28.0636 39.0474 27.0319 39.1022C26.0002 39.157 25.2077 40.0484 25.2617 41.0934C25.3158 42.1383 26.196 42.941 27.2277 42.8863Z" fill="white"/>
</mask>
<g mask="url(#mask8_363_267)">
<path d="M27.0362 39.1853C31.9683 38.9235 35.9246 37.9013 35.8729 36.9023C35.8212 35.9032 31.781 35.3055 26.849 35.5673C21.9169 35.8291 17.9606 36.8512 18.0123 37.8503C18.0639 38.8494 22.1041 39.4471 27.0362 39.1853Z" fill="#FD57A8"/>
</g>
<mask id="mask9_363_267" style="mask-type:luminance" maskUnits="userSpaceOnUse" x="20" y="39" width="5" height="4">
<path d="M22.8677 42.8889C23.9008 42.8889 24.7383 42.0406 24.7383 40.9942C24.7383 39.9479 23.9008 39.0996 22.8677 39.0996C21.8346 39.0996 20.9971 39.9479 20.9971 40.9942C20.9971 42.0406 21.8346 42.8889 22.8677 42.8889Z" fill="white"/>
</mask>
<g mask="url(#mask9_363_267)">
<path d="M22.8677 46.4286C24.4481 46.4286 25.7293 45.6176 25.7293 44.6171C25.7293 43.6167 24.4481 42.8057 22.8677 42.8057C21.2873 42.8057 20.0061 43.6167 20.0061 44.6171C20.0061 45.6176 21.2873 46.4286 22.8677 46.4286Z" fill="#FD57A8"/>
</g>
<mask id="mask10_363_267" style="mask-type:luminance" maskUnits="userSpaceOnUse" x="25" y="39" width="5" height="4">
<path d="M27.1298 42.8889C28.1629 42.8889 29.0004 42.0406 29.0004 40.9942C29.0004 39.9479 28.1629 39.0996 27.1298 39.0996C26.0966 39.0996 25.2591 39.9479 25.2591 40.9942C25.2591 42.0406 26.0966 42.8889 27.1298 42.8889Z" fill="white"/>
</mask>
<g mask="url(#mask10_363_267)">
<path d="M27.1298 46.4286C28.7102 46.4286 29.9914 45.6176 29.9914 44.6171C29.9914 43.6167 28.7102 42.8057 27.1298 42.8057C25.5493 42.8057 24.2681 43.6167 24.2681 44.6171C24.2681 45.6176 25.5493 46.4286 27.1298 46.4286Z" fill="#FD57A8"/>
</g>
<g clip-path="url(#clip1_363_267)">
<mask id="mask11_363_267" style="mask-type:alpha" maskUnits="userSpaceOnUse" x="2" y="18" width="14" height="14">
<path d="M16 18H2V32H16V18Z" fill="black"/>
</mask>
<g mask="url(#mask11_363_267)">
<path d="M8.99999 18C6.07959 18 5.22279 18.0028 5.05759 18.0168C4.45839 18.0644 4.08599 18.1596 3.67719 18.3612C3.36359 18.518 3.11719 18.6972 2.87359 18.952C2.42839 19.4112 2.15959 19.9796 2.06439 20.6544C2.01679 20.982 2.00279 21.0492 1.99999 22.7208C1.99719 23.278 1.99999 24.0116 1.99999 24.9972C1.99999 27.9176 2.00279 28.7716 2.01679 28.9368C2.06439 29.5192 2.15679 29.8888 2.34999 30.2892C2.71959 31.0592 3.42799 31.636 4.26239 31.8516C4.55079 31.9244 4.86719 31.9664 5.27879 31.986C5.45239 31.9944 7.21919 32 8.98599 32C10.7528 32 12.5224 31.9972 12.6904 31.9888C13.1636 31.9664 13.4408 31.93 13.7432 31.8488C14.5832 31.6332 15.2776 31.0648 15.6556 30.2864C15.846 29.8944 15.9412 29.5108 15.986 28.9592C15.9944 28.8388 16 26.9152 16 24.9944C16 23.0736 15.9944 21.1528 15.986 21.0324C15.9412 20.4696 15.8432 20.0916 15.6472 19.694C15.4876 19.3664 15.3084 19.1228 15.048 18.8708C14.586 18.4284 14.0204 18.1596 13.3456 18.0616C13.018 18.0168 12.9536 18.0028 11.2792 18H8.99999Z" fill="url(#paint15_radial_363_267)"/>
<path d="M8.99999 18C6.07959 18 5.22279 18.0028 5.05759 18.0168C4.45839 18.0644 4.08599 18.1596 3.67719 18.3612C3.36359 18.518 3.11719 18.6972 2.87359 18.952C2.42839 19.4112 2.15959 19.9796 2.06439 20.6544C2.01679 20.982 2.00279 21.0492 1.99999 22.7208C1.99719 23.278 1.99999 24.0116 1.99999 24.9972C1.99999 27.9176 2.00279 28.7716 2.01679 28.9368C2.06439 29.5192 2.15679 29.8888 2.34999 30.2892C2.71959 31.0592 3.42799 31.636 4.26239 31.8516C4.55079 31.9244 4.86719 31.9664 5.27879 31.986C5.45239 31.9944 7.21919 32 8.98599 32C10.7528 32 12.5224 31.9972 12.6904 31.9888C13.1636 31.9664 13.4408 31.93 13.7432 31.8488C14.5832 31.6332 15.2776 31.0648 15.6556 30.2864C15.846 29.8944 15.9412 29.5108 15.986 28.9592C15.9944 28.8388 16 26.9152 16 24.9944C16 23.0736 15.9944 21.1528 15.986 21.0324C15.9412 20.4696 15.8432 20.0916 15.6472 19.694C15.4876 19.3664 15.3084 19.1228 15.048 18.8708C14.586 18.4284 14.0204 18.1596 13.3456 18.0616C13.018 18.0168 12.9536 18.0028 11.2792 18H8.99999Z" fill="url(#paint16_radial_363_267)"/>
<path d="M8.99999 18C6.07959 18 5.22279 18.0028 5.05759 18.0168C4.45839 18.0644 4.08599 18.1596 3.67719 18.3612C3.36359 18.518 3.11719 18.6972 2.87359 18.952C2.42839 19.4112 2.15959 19.9796 2.06439 20.6544C2.01679 20.982 2.00279 21.0492 1.99999 22.7208C1.99719 23.278 1.99999 24.0116 1.99999 24.9972C1.99999 27.9176 2.00279 28.7716 2.01679 28.9368C2.06439 29.5192 2.15679 29.8888 2.34999 30.2892C2.71959 31.0592 3.42799 31.636 4.26239 31.8516C4.55079 31.9244 4.86719 31.9664 5.27879 31.986C5.45239 31.9944 7.21919 32 8.98599 32C10.7528 32 12.5224 31.9972 12.6904 31.9888C13.1636 31.9664 13.4408 31.93 13.7432 31.8488C14.5832 31.6332 15.2776 31.0648 15.6556 30.2864C15.846 29.8944 15.9412 29.5108 15.986 28.9592C15.9944 28.8388 16 26.9152 16 24.9944C16 23.0736 15.9944 21.1528 15.986 21.0324C15.9412 20.4696 15.8432 20.0916 15.6472 19.694C15.4876 19.3664 15.3084 19.1228 15.048 18.8708C14.586 18.4284 14.0204 18.1596 13.3456 18.0616C13.018 18.0168 12.9536 18.0028 11.2792 18H8.99999Z" fill="url(#paint17_radial_363_267)"/>
<path d="M8.99999 18C6.07959 18 5.22279 18.0028 5.05759 18.0168C4.45839 18.0644 4.08599 18.1596 3.67719 18.3612C3.36359 18.518 3.11719 18.6972 2.87359 18.952C2.42839 19.4112 2.15959 19.9796 2.06439 20.6544C2.01679 20.982 2.00279 21.0492 1.99999 22.7208C1.99719 23.278 1.99999 24.0116 1.99999 24.9972C1.99999 27.9176 2.00279 28.7716 2.01679 28.9368C2.06439 29.5192 2.15679 29.8888 2.34999 30.2892C2.71959 31.0592 3.42799 31.636 4.26239 31.8516C4.55079 31.9244 4.86719 31.9664 5.27879 31.986C5.45239 31.9944 7.21919 32 8.98599 32C10.7528 32 12.5224 31.9972 12.6904 31.9888C13.1636 31.9664 13.4408 31.93 13.7432 31.8488C14.5832 31.6332 15.2776 31.0648 15.6556 30.2864C15.846 29.8944 15.9412 29.5108 15.986 28.9592C15.9944 28.8388 16 26.9152 16 24.9944C16 23.0736 15.9944 21.1528 15.986 21.0324C15.9412 20.4696 15.8432 20.0916 15.6472 19.694C15.4876 19.3664 15.3084 19.1228 15.048 18.8708C14.586 18.4284 14.0204 18.1596 13.3456 18.0616C13.018 18.0168 12.9536 18.0028 11.2792 18H8.99999Z" fill="url(#paint18_radial_363_267)"/>
<path d="M9.0028 19.7976C7.5888 19.7976 7.4096 19.8032 6.8552 19.8284C6.3008 19.8536 5.9228 19.9404 5.5924 20.0692C5.2508 20.2008 4.9596 20.38 4.6684 20.6684C4.38 20.9596 4.2036 21.248 4.0692 21.5896C3.9404 21.92 3.8508 22.298 3.8284 22.8524C3.8032 23.4068 3.7948 23.586 3.7948 24.9972C3.7948 26.4112 3.8032 26.5876 3.8284 27.142C3.8536 27.6964 3.9404 28.0744 4.0692 28.4048C4.2008 28.7464 4.38 29.0376 4.6684 29.326C4.9596 29.6144 5.248 29.7936 5.5924 29.9252C5.9228 30.054 6.3008 30.1436 6.8552 30.1688C7.4096 30.194 7.586 30.1996 9 30.1996C10.414 30.1996 10.5904 30.194 11.1476 30.1688C11.702 30.1436 12.08 30.054 12.4104 29.9252C12.752 29.7936 13.0432 29.6144 13.3316 29.326C13.6228 29.0376 13.7992 28.7464 13.9336 28.4048C14.0596 28.0744 14.1492 27.6964 14.1744 27.142C14.1996 26.5876 14.2052 26.4112 14.2052 24.9972C14.2052 23.586 14.1996 23.4068 14.1744 22.8524C14.1492 22.298 14.0596 21.92 13.9336 21.5896C13.7992 21.248 13.6228 20.9596 13.3316 20.6684C13.0432 20.38 12.752 20.2008 12.4104 20.0692C12.0772 19.9404 11.6992 19.8536 11.1448 19.8284C10.5904 19.8032 10.414 19.7976 9 19.7976H9.0028ZM8.5352 20.7328C8.6724 20.7328 8.8264 20.7328 9.0028 20.7328C10.3916 20.7328 10.5568 20.7384 11.1056 20.7636C11.6124 20.786 11.8868 20.8728 12.0716 20.9428C12.3152 21.038 12.486 21.15 12.6708 21.332C12.8528 21.514 12.9648 21.6876 13.06 21.9312C13.13 22.1132 13.214 22.3876 13.2392 22.8944C13.2644 23.4432 13.2672 23.6084 13.2672 24.9972C13.2672 26.386 13.2644 26.5484 13.2392 27.0972C13.214 27.604 13.13 27.8812 13.06 28.0632C12.9648 28.3068 12.8528 28.4776 12.6708 28.6596C12.486 28.8416 12.3152 28.9564 12.0716 29.0488C11.8868 29.1216 11.6124 29.2056 11.1056 29.228C10.5568 29.2532 10.3916 29.2588 9.0028 29.2588C7.6112 29.2588 7.446 29.2532 6.8972 29.228C6.3904 29.2056 6.116 29.1216 5.9312 29.0488C5.6876 28.9564 5.514 28.8416 5.332 28.6596C5.15 28.4776 5.038 28.3068 4.9428 28.0632C4.8728 27.8784 4.786 27.604 4.7636 27.0972C4.7384 26.5484 4.7328 26.3832 4.7328 24.9944C4.7328 23.6056 4.7384 23.4432 4.7636 22.8944C4.786 22.3876 4.8728 22.1104 4.9428 21.9284C5.038 21.6848 5.15 21.5112 5.332 21.3292C5.514 21.1472 5.6876 21.0352 5.9312 20.94C6.116 20.87 6.3904 20.786 6.8972 20.7608C7.3788 20.7412 7.5636 20.7356 8.5352 20.7328ZM11.7804 21.598C11.436 21.598 11.156 21.8752 11.156 22.2224C11.156 22.5668 11.436 22.844 11.7804 22.844C12.1248 22.844 12.4048 22.5668 12.4048 22.2224C12.4048 21.878 12.1248 21.598 11.7804 21.598ZM9.0028 22.326C7.5244 22.326 6.3288 23.5216 6.3288 24.9972C6.3288 26.4728 7.5244 27.6684 9.0028 27.6684C10.4784 27.6684 11.674 26.4728 11.674 24.9972C11.674 23.5216 10.4784 22.326 9.0028 22.326ZM9.0028 23.264C9.9604 23.264 10.736 24.0396 10.736 24.9972C10.736 25.9548 9.9604 26.7304 9.0028 26.7304C8.0424 26.7304 7.2668 25.9548 7.2668 24.9972C7.2668 24.0396 8.0424 23.264 9.0028 23.264Z" fill="white"/>
</g>
</g>
<g clip-path="url(#clip2_363_267)">
<path d="M32 18H18V32H32V18Z" fill="black"/>
<path d="M31.9943 32L26.5644 23.9741L31.6303 18H29.867L25.7811 22.8203L22.5216 18H18.0783L23.3121 25.7366L18 32H19.7633L24.0961 26.8896L27.5552 32H32H31.9943ZM21.9408 19.1257L29.8892 30.8743H28.1324L20.1826 19.1257H21.9394H21.9408Z" fill="#E7E9EA"/>
</g>
<g clip-path="url(#clip3_363_267)">
<mask id="mask12_363_267" style="mask-type:luminance" maskUnits="userSpaceOnUse" x="34" y="18" width="14" height="14">
<path d="M48 18H34V32H48V18Z" fill="white"/>
</mask>
<g mask="url(#mask12_363_267)">
<path d="M38.3983 31.5042C38.3206 30.7069 38.3711 29.9428 38.55 29.2117L39.25 26.19C39.1216 25.8 39.0528 25.393 39.0458 24.9825C39.0458 24.0025 39.5183 23.3025 40.265 23.3025C40.7783 23.3025 41.1575 23.6642 41.1575 24.3525C41.1575 24.5742 41.1128 24.8231 41.0233 25.0992L40.72 26.1025C40.6617 26.2969 40.6325 26.4758 40.6325 26.6392C40.6325 27.3392 41.1633 27.73 41.8458 27.73C43.065 27.73 43.9283 26.47 43.9283 24.8367C43.9283 23.0167 42.7383 21.85 40.9825 21.85C39.0225 21.85 37.78 23.1275 37.78 24.9067C37.78 25.6183 38.0017 26.2833 38.4275 26.7383C38.2875 26.9775 38.1358 27.0183 37.9142 27.0183C37.2142 27.0183 36.5492 26.0325 36.5492 24.685C36.5492 22.3517 38.4158 20.5025 41.0292 20.5025C43.7708 20.5025 45.4975 22.4217 45.4975 24.7783C45.4975 27.135 43.8175 28.9492 42.0092 28.9492C41.665 28.9537 41.3246 28.8781 41.0148 28.7282C40.7049 28.5784 40.4343 28.3584 40.2242 28.0858L39.8625 29.5442C39.6814 30.3097 39.3611 31.0353 38.9175 31.685C39.9656 32.0142 41.0765 32.0917 42.1601 31.9112C43.2437 31.7306 44.2695 31.2972 45.1542 30.646C46.0389 29.9948 46.7577 29.1442 47.2521 28.1632C47.7466 27.1823 48.0028 26.0986 48 25C48 23.1435 47.2625 21.363 45.9498 20.0503C44.637 18.7375 42.8565 18 41 18C39.1435 18 37.363 18.7375 36.0503 20.0503C34.7375 21.363 34 23.1435 34 25C33.9989 26.3996 34.4174 27.7674 35.2014 28.9268C35.9854 30.0862 37.099 30.984 38.3983 31.5042Z" fill="#E60023"/>
</g>
</g>
<defs>
<filter id="filter0_d_363_267" x="34.895" y="35.6996" width="13.0063" height="12.888" filterUnits="userSpaceOnUse" color-interpolation-filters="sRGB">
<feFlood flood-opacity="0" result="BackgroundImageFix"/>
<feColorMatrix in="SourceAlpha" type="matrix" values="0 0 0 0 0 0 0 0 0 0 0 0 0 0 0 0 0 0 127 0" result="hardAlpha"/>
<feOffset dy="1"/>
<feGaussianBlur stdDeviation="1"/>
<feColorMatrix type="matrix" values="0 0 0 0 0 0 0 0 0 0 0 0 0 0 0 0 0 0 0.25 0"/>
<feBlend mode="normal" in2="BackgroundImageFix" result="effect1_dropShadow_363_267"/>
<feBlend mode="normal" in="SourceGraphic" in2="effect1_dropShadow_363_267" result="shape"/>
</filter>
<filter id="filter1_d_363_267" x="35.9235" y="40.9389" width="12.3976" height="10.7794" filterUnits="userSpaceOnUse" color-interpolation-filters="sRGB">
<feFlood flood-opacity="0" result="BackgroundImageFix"/>
<feColorMatrix in="SourceAlpha" type="matrix" values="0 0 0 0 0 0 0 0 0 0 0 0 0 0 0 0 0 0 127 0" result="hardAlpha"/>
<feOffset dy="2"/>
<feGaussianBlur stdDeviation="2"/>
<feColorMatrix type="matrix" values="0 0 0 0 0.780392 0 0 0 0 0.270588 0 0 0 0 0.00784314 0 0 0 1 0"/>
<feBlend mode="normal" in2="BackgroundImageFix" result="effect1_dropShadow_363_267"/>
<feBlend mode="normal" in="SourceGraphic" in2="effect1_dropShadow_363_267" result="shape"/>
</filter>
<filter id="filter2_d_363_267" x="34.7454" y="40.5828" width="12.6382" height="10.7926" filterUnits="userSpaceOnUse" color-interpolation-filters="sRGB">
<feFlood flood-opacity="0" result="BackgroundImageFix"/>
<feColorMatrix in="SourceAlpha" type="matrix" values="0 0 0 0 0 0 0 0 0 0 0 0 0 0 0 0 0 0 127 0" result="hardAlpha"/>
<feOffset dy="2"/>
<feGaussianBlur stdDeviation="2"/>
<feColorMatrix type="matrix" values="0 0 0 0 0.871207 0 0 0 0 0.296299 0 0 0 0 0 0 0 0 1 0"/>
<feBlend mode="normal" in2="BackgroundImageFix" result="effect1_dropShadow_363_267"/>
<feBlend mode="normal" in="SourceGraphic" in2="effect1_dropShadow_363_267" result="shape"/>
</filter>
<filter id="filter3_d_363_267" x="30.2935" y="35.5376" width="19.2612" height="19.9079" filterUnits="userSpaceOnUse" color-interpolation-filters="sRGB">
<feFlood flood-opacity="0" result="BackgroundImageFix"/>
<feColorMatrix in="SourceAlpha" type="matrix" values="0 0 0 0 0 0 0 0 0 0 0 0 0 0 0 0 0 0 127 0" result="hardAlpha"/>
<feOffset dy="2"/>
<feGaussianBlur stdDeviation="4"/>
<feColorMatrix type="matrix" values="0 0 0 0 0.780392 0 0 0 0 0.270588 0 0 0 0 0.00784314 0 0 0 1 0"/>
<feBlend mode="normal" in2="BackgroundImageFix" result="effect1_dropShadow_363_267"/>
<feBlend mode="normal" in="SourceGraphic" in2="effect1_dropShadow_363_267" result="shape"/>
</filter>
<filter id="filter4_d_363_267" x="33.3654" y="38.5613" width="10.7267" height="12.3743" filterUnits="userSpaceOnUse" color-interpolation-filters="sRGB">
<feFlood flood-opacity="0" result="BackgroundImageFix"/>
<feColorMatrix in="SourceAlpha" type="matrix" values="0 0 0 0 0 0 0 0 0 0 0 0 0 0 0 0 0 0 127 0" result="hardAlpha"/>
<feOffset dy="2"/>
<feGaussianBlur stdDeviation="2"/>
<feColorMatrix type="matrix" values="0 0 0 0 0.8 0 0 0 0 0.301961 0 0 0 0 0.0313725 0 0 0 1 0"/>
<feBlend mode="normal" in2="BackgroundImageFix" result="effect1_dropShadow_363_267"/>
<feBlend mode="normal" in="SourceGraphic" in2="effect1_dropShadow_363_267" result="shape"/>
</filter>
<filter id="filter5_f_363_267" x="36.1229" y="38.5046" width="9.48141" height="6.27137" filterUnits="userSpaceOnUse" color-interpolation-filters="sRGB">
<feFlood flood-opacity="0" result="BackgroundImageFix"/>
<feBlend mode="normal" in="SourceGraphic" in2="BackgroundImageFix" result="shape"/>
<feGaussianBlur stdDeviation="0.5" result="effect1_foregroundBlur_363_267"/>
</filter>
<filter id="filter6_d_363_267" x="38.5755" y="35.9109" width="7.94621" height="7.06707" filterUnits="userSpaceOnUse" color-interpolation-filters="sRGB">
<feFlood flood-opacity="0" result="BackgroundImageFix"/>
<feColorMatrix in="SourceAlpha" type="matrix" values="0 0 0 0 0 0 0 0 0 0 0 0 0 0 0 0 0 0 127 0" result="hardAlpha"/>
<feOffset dy="1"/>
<feGaussianBlur stdDeviation="1"/>
<feComposite in2="hardAlpha" operator="out"/>
<feColorMatrix type="matrix" values="0 0 0 0 0 0 0 0 0 0 0 0 0 0 0 0 0 0 0.25 0"/>
<feBlend mode="normal" in2="BackgroundImageFix" result="effect1_dropShadow_363_267"/>
<feBlend mode="normal" in="SourceGraphic" in2="effect1_dropShadow_363_267" result="shape"/>
</filter>
<linearGradient id="paint0_linear_363_267" x1="9" y1="2" x2="9" y2="16" gradientUnits="userSpaceOnUse">
<stop stop-color="#2AABEE"/>
<stop offset="1" stop-color="#229ED9"/>
</linearGradient>
<linearGradient id="paint1_linear_363_267" x1="3.64986" y1="44.6475" x2="16" y2="41" gradientUnits="userSpaceOnUse">
<stop stop-color="#44CCFF"/>
<stop offset="0.662" stop-color="#5533EE"/>
<stop offset="1" stop-color="#9933DD"/>
</linearGradient>
<radialGradient id="paint2_radial_363_267" cx="0" cy="0" r="1" gradientUnits="userSpaceOnUse" gradientTransform="translate(1.66693 27.8514) rotate(51.356) scale(16.9893 7)">
<stop stop-color="#0000FF"/>
<stop offset="1" stop-opacity="0"/>
</radialGradient>
<linearGradient id="paint3_linear_363_267" x1="734" y1="34" x2="734" y2="1434" gradientUnits="userSpaceOnUse">
<stop stop-color="#6DCD5B"/>
<stop offset="1" stop-color="#39B631"/>
</linearGradient>
<linearGradient id="paint4_linear_363_267" x1="59.2289" y1="253.677" x2="426.549" y2="680.352" gradientUnits="userSpaceOnUse">
<stop stop-color="#EA8D25"/>
<stop offset="0.41694" stop-color="#E57929"/>
<stop offset="1" stop-color="#DE5E30"/>
</linearGradient>
<linearGradient id="paint5_linear_363_267" x1="89.9824" y1="162.255" x2="66.018" y2="453.101" gradientUnits="userSpaceOnUse">
<stop stop-color="#EF641D"/>
<stop offset="1" stop-color="#D66020"/>
</linearGradient>
<radialGradient id="paint6_radial_363_267" cx="0" cy="0" r="1" gradientUnits="userSpaceOnUse" gradientTransform="translate(-94.6258 179.212) rotate(117.917) scale(193.552 138.381)">
<stop stop-color="#F17733"/>
<stop offset="1" stop-color="#E35834"/>
</radialGradient>
<radialGradient id="paint7_radial_363_267" cx="0" cy="0" r="1" gradientUnits="userSpaceOnUse" gradientTransform="translate(-122.473 237.455) rotate(118.008) scale(218.331 107.834)">
<stop stop-color="#F17733"/>
<stop offset="1" stop-color="#E35834"/>
</radialGradient>
<radialGradient id="paint8_radial_363_267" cx="0" cy="0" r="1" gradientUnits="userSpaceOnUse" gradientTransform="translate(67.6392 124.423) rotate(117.537) scale(117.141 289.923)">
<stop stop-color="#F17733"/>
<stop offset="1" stop-color="#E9471E"/>
</radialGradient>
<radialGradient id="paint9_radial_363_267" cx="0" cy="0" r="1" gradientUnits="userSpaceOnUse" gradientTransform="translate(10.0171 48.8856) rotate(80.7651) scale(160.644 189.272)">
<stop stop-color="#EC7027"/>
<stop offset="1" stop-color="#E84D0F"/>
</radialGradient>
<radialGradient id="paint10_radial_363_267" cx="0" cy="0" r="1" gradientUnits="userSpaceOnUse" gradientTransform="translate(31.0987 120.507) rotate(54.9585) scale(962.192 316.389)">
<stop stop-color="#FFE397"/>
<stop offset="1" stop-color="#F8A04F"/>
</radialGradient>
<radialGradient id="paint11_radial_363_267" cx="0" cy="0" r="1" gradientUnits="userSpaceOnUse" gradientTransform="translate(-153.819 116.083) rotate(117.868) scale(982.674 312.782)">
<stop stop-color="white" stop-opacity="0.24"/>
<stop offset="1" stop-opacity="0"/>
</radialGradient>
<radialGradient id="paint12_radial_363_267" cx="0" cy="0" r="1" gradientUnits="userSpaceOnUse" gradientTransform="translate(-494.125 516.476) rotate(126.617) scale(482.762 306.816)">
<stop stop-color="white" stop-opacity="0.5"/>
<stop offset="1" stop-color="white" stop-opacity="0"/>
</radialGradient>
<radialGradient id="paint13_radial_363_267" cx="0" cy="0" r="1" gradientUnits="userSpaceOnUse" gradientTransform="translate(44.6926 123.979) rotate(66.2747) scale(309.168 151.203)">
<stop stop-color="#FE774C"/>
<stop offset="1" stop-color="#C5501B"/>
</radialGradient>
<linearGradient id="paint14_linear_363_267" x1="167.248" y1="203.35" x2="144.758" y2="262.264" gradientUnits="userSpaceOnUse">
<stop stop-color="#D55B28" stop-opacity="0"/>
<stop offset="0.19535" stop-color="#D0490F"/>
<stop offset="1" stop-color="#C03B01"/>
</linearGradient>
<radialGradient id="paint15_radial_363_267" cx="0" cy="0" r="1" gradientUnits="userSpaceOnUse" gradientTransform="translate(15.5479 24.562) rotate(164.25) scale(8.94519 6.44459)">
<stop stop-color="#FF005F"/>
<stop offset="1" stop-color="#FC01D8"/>
</radialGradient>
<radialGradient id="paint16_radial_363_267" cx="0" cy="0" r="1" gradientUnits="userSpaceOnUse" gradientTransform="translate(5.71865 33.0783) rotate(-90) scale(11.1751 11.8565)">
<stop stop-color="#FFCC00"/>
<stop offset="0.1242" stop-color="#FFCC00"/>
<stop offset="0.5672" stop-color="#FE4A05"/>
<stop offset="0.6942" stop-color="#FF0F3F"/>
<stop offset="1" stop-color="#FE0657" stop-opacity="0"/>
</radialGradient>
<radialGradient id="paint17_radial_363_267" cx="0" cy="0" r="1" gradientUnits="userSpaceOnUse" gradientTransform="translate(9.35377 31.8025) rotate(-59.8703) scale(4.62098 6.01602)">
<stop stop-color="#FFCC00"/>
<stop offset="1" stop-color="#FFCC00" stop-opacity="0"/>
</radialGradient>
<radialGradient id="paint18_radial_363_267" cx="0" cy="0" r="1" gradientUnits="userSpaceOnUse" gradientTransform="translate(3.8995 18.5701) rotate(164.274) scale(8.84598 3.01384)">
<stop stop-color="#780CFF"/>
<stop offset="1" stop-color="#820BFF" stop-opacity="0"/>
</radialGradient>
<clipPath id="clip0_363_267">
<rect x="34" y="34" width="14" height="14" rx="7" fill="white"/>
</clipPath>
<clipPath id="clip1_363_267">
<rect width="14" height="14" fill="white" transform="translate(2 18)"/>
</clipPath>
<clipPath id="clip2_363_267">
<rect width="14" height="14" fill="white" transform="translate(18 18)"/>
</clipPath>
<clipPath id="clip3_363_267">
<rect width="14" height="14" fill="white" transform="translate(34 18)"/>
</clipPath>
</defs>
</svg>
