<svg width="50" height="50" viewBox="0 0 50 50" fill="none" xmlns="http://www.w3.org/2000/svg">
<path d="M49.9045 14.5778C50.2458 15.2743 49.6235 16.0212 48.8125 15.9255L20.8772 12.6292C19.7403 12.495 19.1876 13.8912 20.1427 14.4849L47.1898 31.2987C49.2743 32.5944 50.1924 35.0902 48.9762 37.1392C44.4233 44.8102 35.689 50 25.6619 50C13.5072 50 3.25203 42.3742 0.0417389 31.9468C-0.184455 31.2121 0.546053 30.5602 1.3319 30.7647L28.6817 37.8826C29.8502 38.1866 30.5885 36.737 29.6017 36.0759L3.86516 18.8393C1.89543 17.5202 1.04805 15.1072 2.2008 13.1114C6.71102 5.30303 15.526 0 25.6619 0C36.4203 0 45.6905 5.9744 49.9045 14.5778Z" fill="#7AEC7E"/>
</svg>
