<svg width="50" height="50" viewBox="0 0 50 50" fill="none" xmlns="http://www.w3.org/2000/svg">
<path fill-rule="evenodd" clip-rule="evenodd" d="M0 0H50V33.5426L33.5345 50H0V0Z" fill="#36AEE1"/>
<path fill-rule="evenodd" clip-rule="evenodd" d="M33.5345 50V33.5426H50L33.5345 50Z" fill="#1E96C8"/>
<path fill-rule="evenodd" clip-rule="evenodd" d="M32.605 8.89882L28.5732 27.9522L25.845 28.4352L20.2318 24.3178L17.3225 27.2036L13.0372 19.8503L17.6968 12.98L29.7682 8.72978L32.605 8.89882Z" fill="white"/>
<path fill-rule="evenodd" clip-rule="evenodd" d="M17.5036 22.2531C17.5519 22.398 18.7108 23.1707 18.7953 23.207L18.7711 23.0862L26.1226 18.51C26.2675 18.4134 26.3641 18.3651 26.5089 18.2685C27.4747 17.6286 28.6456 16.9645 29.5992 16.3366L30.746 15.6122C30.8305 15.5639 30.8426 15.5397 30.9512 15.4794C31.1202 15.3828 31.0116 15.4069 31.2168 15.3707L31.3617 14.7307C31.4341 14.3806 31.6272 13.7044 31.6031 13.4026C31.5548 13.2939 31.6152 13.306 31.2168 13.5475C31.0599 13.644 30.9271 13.7286 30.7702 13.8252L28.0903 15.5035C26.4124 16.6023 24.4568 17.7493 22.7547 18.836L20.0748 20.5144C19.7731 20.7076 19.4954 20.8766 19.1936 21.0698L17.8658 21.8908C17.3346 22.2048 17.4553 22.0961 17.4916 22.241L17.5036 22.2531Z" fill="#F2F8FB"/>
<path fill-rule="evenodd" clip-rule="evenodd" d="M18.7953 23.207C18.8436 23.3277 19.2661 23.5933 19.4109 23.702C19.6403 23.871 19.8576 24.0159 20.0748 24.185C20.1111 24.0401 20.0869 24.1005 20.1714 24.0039L23.0324 22.2169C23.141 22.1444 23.2496 22.084 23.3583 22.0116C23.479 21.9271 23.5514 21.8908 23.6842 21.8063L30.8064 17.375L30.9271 16.88L31.0961 16.0468L31.2289 15.3707C31.0116 15.4069 31.1323 15.3828 30.9633 15.4794C30.8667 15.5397 30.8426 15.5518 30.7581 15.6122L29.6113 16.3366C28.6577 16.9645 27.4746 17.6407 26.521 18.2685C26.3761 18.3651 26.2916 18.4134 26.1347 18.51L18.7832 23.0862L18.8073 23.207H18.7953Z" fill="#F5FAFD"/>
<path fill-rule="evenodd" clip-rule="evenodd" d="M23.7325 26.8534C23.7687 26.9379 23.9136 27.0225 24.0101 27.0949C24.2033 27.2398 24.9517 27.759 25.0724 27.928C25.2294 27.9522 26.0985 28.6404 26.2192 28.7249C26.8228 29.1717 26.9918 29.0872 27.7523 29.1234C27.9817 28.9061 27.9937 29.063 28.2834 28.6284C28.4524 28.3748 28.4524 28.2057 28.5732 27.9522L29.0319 25.7909L29.3578 24.2574C29.4061 23.9435 29.5268 23.6537 29.5027 23.3398L29.4785 23.1828L26.5331 25.006C26.2916 25.163 26.0502 25.2958 25.7967 25.4649L23.9981 26.5878C23.8774 26.6602 23.7566 26.6844 23.7325 26.8534Z" fill="#FEFEFF"/>
<path fill-rule="evenodd" clip-rule="evenodd" d="M16.719 21.6614C16.7793 21.7822 17.3467 22.1686 17.5036 22.241C17.4674 22.0961 17.3467 22.2048 17.8778 21.8908L19.2057 21.0698C19.5075 20.8766 19.7851 20.7076 20.0869 20.5144L22.7668 18.836C24.4689 17.7373 26.4244 16.6023 28.1024 15.5035L30.7822 13.8252C30.9392 13.7286 31.0719 13.644 31.2289 13.5475C31.6272 13.2939 31.5548 13.2939 31.6152 13.4026C31.76 13.2577 31.7479 12.8592 31.8204 12.6298C31.8445 12.4487 31.8928 12.3642 31.8687 12.2072C31.76 12.0623 31.9169 12.0865 31.7359 12.0865C31.6634 12.2072 30.9512 12.6177 30.7943 12.7143L26.0744 15.6605C24.4809 16.6989 22.6943 17.7373 21.0888 18.7757L17.0811 21.2871C16.9966 21.3475 16.7793 21.432 16.731 21.5165C16.6707 21.6252 16.55 21.3958 16.719 21.6614Z" fill="#F0F7FC"/>
<path fill-rule="evenodd" clip-rule="evenodd" d="M22.1753 25.6943C22.1753 25.7063 22.1873 25.7063 22.1873 25.7184C22.1994 25.7909 23.0324 26.3463 23.1651 26.4791C23.2134 26.2255 23.2376 26.3101 23.7446 25.9961C23.817 25.9478 23.9015 25.9116 23.9619 25.8754C24.0222 25.8392 24.0946 25.7788 24.1671 25.7426L24.5775 25.489C25.7243 24.8008 26.9435 23.9676 28.0903 23.2915L29.3337 22.5187C29.7199 22.2772 29.6113 22.241 29.7079 22.4221C29.8286 22.2893 29.8165 21.9995 29.8889 21.8184L30.0579 21.0094V20.7921C29.9252 20.6351 30.0579 20.7076 29.9131 20.7438L27.0884 22.5187C26.9797 22.5912 26.9194 22.6274 26.8228 22.6757C25.4949 23.4967 23.986 24.4868 22.6702 25.2717C22.5012 25.3683 22.3684 25.4649 22.1753 25.5615C22.2236 25.6339 22.1753 25.5856 22.1873 25.6943H22.1753Z" fill="#FBFDFE"/>
<path fill-rule="evenodd" clip-rule="evenodd" d="M19.1333 25.4407L21.3423 26.3825C21.7648 26.5636 24.7827 27.9401 25.0724 27.928C24.9517 27.759 24.2033 27.2398 24.0101 27.0949C23.9015 27.0225 23.7566 26.9379 23.7325 26.8534C23.4911 26.7447 23.3945 26.624 23.1772 26.4791C23.0444 26.3463 22.2115 25.8029 22.1994 25.7184C22.1994 25.7064 22.1873 25.7064 22.1873 25.6943C21.9821 25.6098 21.8373 25.4769 21.6562 25.332C21.5234 25.2355 21.3423 25.1026 21.1854 24.9819C20.9802 24.8249 20.4491 24.4023 20.2318 24.3057C20.0507 24.4868 19.9058 24.6076 19.7006 24.8491C19.5196 25.0543 19.2781 25.1872 19.1453 25.4166L19.1333 25.4407Z" fill="#2199CC"/>
<path fill-rule="evenodd" clip-rule="evenodd" d="M20.0748 24.1729L20.2318 24.3178C20.437 24.4144 20.9681 24.837 21.1854 24.994C21.3423 25.1147 21.5234 25.2475 21.6562 25.3441C21.8373 25.4769 21.9821 25.6098 22.1873 25.7064C22.1753 25.5977 22.2236 25.646 22.1753 25.5735C22.3563 25.489 22.5012 25.3803 22.6702 25.2837C23.9981 24.4989 25.4949 23.5088 26.8228 22.6878C26.9194 22.6274 26.9797 22.6032 27.0884 22.5308L29.9131 20.7559C30.0579 20.7196 29.9372 20.6472 30.0579 20.8042L30.2028 20.297C30.239 20.1401 30.2632 19.9589 30.3114 19.8261L30.5408 18.7274L30.8064 17.3992L23.6842 21.8305C23.5514 21.915 23.479 21.9512 23.3583 22.0357C23.2496 22.1082 23.1531 22.1686 23.0324 22.241L20.1714 24.028C20.0869 24.1125 20.1111 24.0642 20.0748 24.2091V24.1729Z" fill="#F7FBFD"/>
<path fill-rule="evenodd" clip-rule="evenodd" d="M30.7219 6.96691L28.7301 7.73968L27.1246 8.35547L24.3844 9.43009L23.1531 9.87684L19.7006 11.205L18.7953 11.5552L16.3085 12.5211L14.7272 13.1369L12.832 13.8735L11.0937 14.5617L9.9831 14.9843L8.78802 15.4431L7.61709 15.8899C7.53259 15.9503 6.89281 16.2159 6.77209 16.2521C6.71173 16.3366 5.25109 17.1577 6.60309 17.8218C6.94109 17.9908 12.5543 19.7537 13.0372 19.8503C13.3148 19.7416 13.7011 19.4639 13.9788 19.2949L18.6263 16.3608C20.9923 14.8756 23.7446 13.1973 26.0261 11.688C26.5814 11.3258 27.5712 10.5651 28.0299 10.9032C28.0541 11.205 27.704 11.4103 27.4505 11.6276L25.2776 13.6199C25.1569 13.7406 25.0241 13.801 24.9034 13.9218L24.1791 14.5858C24.0101 14.7187 23.9739 14.767 23.8049 14.9239L16.5138 21.5165C16.5379 21.5528 16.562 21.589 16.5862 21.6373L16.719 21.6614C16.55 21.3958 16.6707 21.6252 16.731 21.5165C16.7793 21.432 16.9845 21.3354 17.0811 21.2871L21.0888 18.7757C22.6943 17.7373 24.4689 16.6989 26.0744 15.6605L30.7943 12.7143C30.9633 12.6177 31.6634 12.2072 31.7359 12.0865C31.9169 12.0865 31.76 12.0502 31.8687 12.2072C31.9049 12.1589 31.8807 12.1951 31.929 12.0985L32.1946 10.8549L32.5326 9.30934C32.6171 8.81429 32.7861 8.34339 32.6895 7.8242C32.605 7.36537 32.3998 7.03936 32.0256 6.88239C31.5065 6.66506 31.1806 6.87032 30.7339 6.99106L30.7219 6.96691Z" fill="#EDF5FB"/>
<path fill-rule="evenodd" clip-rule="evenodd" d="M13.0372 19.8503L13.5321 21.4803L14.0512 23.207L14.522 24.7404L14.9686 26.2255C15.041 26.3342 15.198 26.9259 15.2463 27.0949C15.3549 27.4692 15.4032 27.759 15.8015 27.7469L16.0792 27.7228L16.5983 21.6494C16.5741 21.6131 16.55 21.5648 16.5258 21.5286L23.817 14.936C23.986 14.779 24.0222 14.7307 24.1912 14.5979L24.9155 13.9338C25.0362 13.8131 25.1569 13.7406 25.2897 13.632L27.4626 11.6397C27.7161 11.4224 28.0662 11.2171 28.042 10.9152C27.5833 10.5772 26.5814 11.3378 26.0381 11.7001C23.7566 13.2094 21.0043 14.8756 18.6383 16.3729L13.9908 19.3069C13.7253 19.488 13.339 19.7537 13.0493 19.8624L13.0372 19.8503Z" fill="#C8DAEA"/>
<path fill-rule="evenodd" clip-rule="evenodd" d="M15.8015 27.7348V27.7831C16.1516 27.8073 16.4293 27.7952 16.719 27.6383C17.1173 27.433 17.1053 27.276 17.3226 27.2036C17.3588 27.1311 18.0951 26.3584 18.2038 26.3342C18.3003 26.129 18.7108 25.8029 18.8798 25.6339L19.1333 25.4286C19.2661 25.1872 19.5075 25.0664 19.6886 24.8611C19.9058 24.6197 20.0507 24.4989 20.2197 24.3178L20.0628 24.1729C19.8576 24.0039 19.6403 23.859 19.3988 23.6899C19.254 23.5813 18.8315 23.3277 18.7832 23.1949C18.6987 23.1587 17.5398 22.3859 17.4916 22.241C17.3346 22.1686 16.7673 21.7822 16.7069 21.6614L16.5741 21.6373L16.055 27.7107L15.7774 27.7348H15.8015Z" fill="#A9C9DD"/>
<path fill-rule="evenodd" clip-rule="evenodd" d="M23.1772 26.4791C23.3945 26.624 23.4911 26.7447 23.7325 26.8534C23.7566 26.6723 23.8774 26.6482 23.9981 26.5878L25.7967 25.4649C26.0502 25.2958 26.2916 25.163 26.5331 25.006L29.4785 23.1828L29.5027 23.3398C29.5992 23.2311 29.563 23.1587 29.6113 23.0258L29.6958 22.4342C29.5992 22.2531 29.7079 22.2893 29.3216 22.5308L28.0782 23.3035C26.9314 23.9797 25.7122 24.8128 24.5654 25.5011L24.155 25.7546C24.0946 25.7909 24.0101 25.8512 23.9498 25.8875C23.8894 25.9237 23.817 25.9599 23.7325 26.0082C23.2376 26.3221 23.2014 26.2376 23.1531 26.4912L23.1772 26.4791Z" fill="#FCFDFE"/>
</svg>
