<svg width="50" height="50" viewBox="0 0 50 50" fill="none" xmlns="http://www.w3.org/2000/svg">
<path d="M46.25 0H3.75C1.67893 0 0 1.67893 0 3.75V8.75C0 10.8211 1.67893 12.5 3.75 12.5H46.25C48.3211 12.5 50 10.8211 50 8.75V3.75C50 1.67893 48.3211 0 46.25 0Z" fill="#888888"/>
<path d="M7.5 6.25H17.5" stroke="white" stroke-linecap="round"/>
<path d="M22.5 6.25H27.5" stroke="white" stroke-linecap="round"/>
<path d="M18.75 17.5H3.75C1.67893 17.5 0 19.1789 0 21.25V46.25C0 48.3211 1.67893 50 3.75 50H18.75C20.8211 50 22.5 48.3211 22.5 46.25V21.25C22.5 19.1789 20.8211 17.5 18.75 17.5Z" fill="#46C5E6"/>
<path d="M5 25H12.5" stroke="white" stroke-linecap="round"/>
<path d="M5 32.5H15" stroke="white" stroke-linecap="round"/>
<path d="M5 40H10" stroke="white" stroke-linecap="round"/>
<path d="M46.25 17.5H31.25C29.1789 17.5 27.5 19.1789 27.5 21.25V28.75C27.5 30.8211 29.1789 32.5 31.25 32.5H46.25C48.3211 32.5 50 30.8211 50 28.75V21.25C50 19.1789 48.3211 17.5 46.25 17.5Z" fill="#FFB85C"/>
<path d="M35 27.5C36.3807 27.5 37.5 26.3807 37.5 25C37.5 23.6193 36.3807 22.5 35 22.5C33.6193 22.5 32.5 23.6193 32.5 25C32.5 26.3807 33.6193 27.5 35 27.5Z" fill="white"/>
<path d="M42.5 25H45" stroke="white" stroke-linecap="round"/>
<path d="M46.25 37.5H31.25C29.1789 37.5 27.5 39.1789 27.5 41.25V46.25C27.5 48.3211 29.1789 50 31.25 50H46.25C48.3211 50 50 48.3211 50 46.25V41.25C50 39.1789 48.3211 37.5 46.25 37.5Z" fill="#F07865"/>
<path d="M35 43.75L38.75 47.5L42.5 43.75" stroke="white" stroke-linecap="round" stroke-linejoin="round"/>
</svg>
