<svg width="54" height="58" viewBox="0 0 54 58" fill="none" xmlns="http://www.w3.org/2000/svg">
<g filter="url(#filter0_d_349_12)">
<path d="M26.9953 1.84904L48.1989 10.4144C48.1718 16.9108 47.6917 24.6119 44.8633 31.5308C41.9842 38.5569 36.7084 44.7045 27.0047 48.0902C17.3518 44.5974 12.0724 38.4415 9.18385 31.4427C6.33539 24.5559 5.82939 16.906 5.80108 10.4144L26.9953 1.84904ZM26.6686 0.0633495L4.55318 8.99182C4.38945 9.0579 4.24917 9.17211 4.15053 9.31964C4.0519 9.46717 3.99945 9.64121 4 9.81919C4 16.5155 4.46944 24.6762 7.55262 32.1356C10.6299 39.5903 16.3846 46.3235 26.7098 49.9509C26.8946 50.0164 27.096 50.0164 27.2807 49.9509C37.6708 46.4354 43.4303 39.7022 46.4946 32.2165C49.5577 24.7273 50 16.5108 50 9.81919C49.9997 9.64077 49.9464 9.46655 49.8469 9.31905C49.7475 9.17155 49.6064 9.05756 49.4421 8.99182L27.3267 0.0633495C27.1153 -0.0211165 26.88 -0.0211165 26.6686 0.0633495Z" fill="url(#paint0_linear_349_12)"/>
<path d="M33.6299 27.6759H36.6529C35.6061 29.9835 33.7828 31.8419 31.5068 32.921C31.7415 32.5818 31.9586 32.2234 32.1614 31.8425C32.8007 30.6473 33.2985 29.2342 33.6299 27.6759ZM27.8846 27.6759H31.8052C31.5056 28.9366 31.0952 30.0616 30.5986 30.9913C29.806 32.4794 28.8565 33.4139 27.8846 33.7627V27.6759ZM22.1995 27.6759H26.1154V33.7627C25.1435 33.4056 24.194 32.4746 23.4014 30.9913C22.9084 30.0616 22.4944 28.9366 22.1995 27.6759ZM17.3435 27.6759H20.3748C20.7015 29.2342 21.204 30.6473 21.8445 31.8425C22.0473 32.2234 22.2632 32.5818 22.4991 32.921C20.2188 31.8448 18.3916 29.9859 17.3435 27.6759ZM33.9248 20.5331H37.2839C37.501 21.389 37.6107 22.2819 37.6107 23.2069C37.6107 24.1319 37.4998 25.0342 37.2792 25.8902H33.92C34.0262 25.0247 34.0816 24.1283 34.0816 23.2069C34.0816 22.2914 34.0262 21.3938 33.9248 20.5331ZM27.8846 20.5331H32.1331C32.3737 22.3105 32.3737 24.1127 32.1331 25.8902H27.8846V20.5331ZM21.8669 20.5331H26.1154V25.8902H21.8669C21.7494 25.0007 21.6911 24.1042 21.6923 23.2069C21.6923 22.2819 21.7572 21.389 21.8669 20.5331ZM16.716 20.5331H20.0799C19.9756 21.4205 19.9232 22.3133 19.9231 23.2069C19.9231 24.1283 19.9785 25.0247 20.0847 25.8902H16.716C16.2727 24.1325 16.2727 22.2908 16.716 20.5331ZM31.5056 13.5022C33.783 14.5814 35.6081 16.4396 36.6576 18.7474H33.6299C33.2985 17.1891 32.8007 15.7808 32.1603 14.5808C31.9617 14.2095 31.7432 13.8494 31.5056 13.5022ZM22.4991 13.5022C22.2632 13.8415 22.0473 14.1998 21.8445 14.5808C21.204 15.7808 20.7015 17.1891 20.3748 18.7474H17.3435C18.3924 16.4379 20.2193 14.5792 22.4991 13.5022ZM26.1154 12.6606V18.7474H22.1948C22.4944 17.4867 22.9036 16.357 23.4014 15.4272C24.194 13.9439 25.1435 13.0141 26.1154 12.6606ZM27.8846 12.6606C28.8565 13.0094 29.806 13.9391 30.5986 15.4272C31.0964 16.357 31.5104 17.4867 31.8052 18.7474H27.8846V12.6606ZM27 10.7118C20.1719 10.7118 14.6154 16.3153 14.6154 23.2069C14.6154 30.1032 20.1719 35.7115 27 35.7115C33.8328 35.7115 39.3846 30.1032 39.3846 23.2069C39.3846 16.3153 33.8328 10.7118 27 10.7118Z" fill="url(#paint1_linear_349_12)"/>
</g>
<defs>
<filter id="filter0_d_349_12" x="0" y="0" width="54" height="58" filterUnits="userSpaceOnUse" color-interpolation-filters="sRGB">
<feFlood flood-opacity="0" result="BackgroundImageFix"/>
<feColorMatrix in="SourceAlpha" type="matrix" values="0 0 0 0 0 0 0 0 0 0 0 0 0 0 0 0 0 0 127 0" result="hardAlpha"/>
<feOffset dy="4"/>
<feGaussianBlur stdDeviation="2"/>
<feComposite in2="hardAlpha" operator="out"/>
<feColorMatrix type="matrix" values="0 0 0 0 0 0 0 0 0 0 0 0 0 0 0 0 0 0 0.25 0"/>
<feBlend mode="normal" in2="BackgroundImageFix" result="effect1_dropShadow_349_12"/>
<feBlend mode="normal" in="SourceGraphic" in2="effect1_dropShadow_349_12" result="shape"/>
</filter>
<linearGradient id="paint0_linear_349_12" x1="-3.39538" y1="51.4627" x2="53.7444" y2="-5.1514" gradientUnits="userSpaceOnUse">
<stop stop-color="#B721FF"/>
<stop offset="1" stop-color="#21D4FD"/>
</linearGradient>
<linearGradient id="paint1_linear_349_12" x1="-2.19231" y1="52.6756" x2="54.9474" y2="-3.93737" gradientUnits="userSpaceOnUse">
<stop stop-color="#B721FF"/>
<stop offset="1" stop-color="#21D4FD"/>
</linearGradient>
</defs>
</svg>
