<svg width="50" height="50" viewBox="0 0 50 50" fill="none" xmlns="http://www.w3.org/2000/svg">
<path d="M44.816 44.0477H5.18398C4.07109 44.0477 3.16895 43.1455 3.16895 42.0326V17.2062C3.16895 16.0933 4.07109 15.1911 5.18398 15.1911H44.8159C45.9288 15.1911 46.831 16.0933 46.831 17.2062V42.0326C46.831 43.1455 45.9288 44.0477 44.816 44.0477Z" fill="#54469C"/>
<path d="M44.8189 15.1911H41.8008C42.912 15.1911 43.8129 16.0945 43.8129 17.2091V42.0297C43.8129 43.1441 42.912 44.0477 41.8008 44.0477H44.8188C45.9301 44.0477 46.831 43.1442 46.831 42.0297V17.2091C46.831 16.0946 45.9302 15.1911 44.8189 15.1911Z" fill="#463B84"/>
<path d="M6.18711 40.7411V18.4977C6.18711 18.4235 6.21658 18.3523 6.26903 18.2999C6.32148 18.2474 6.39262 18.218 6.4668 18.218H43.5332C43.6074 18.218 43.6785 18.2474 43.731 18.2999C43.7834 18.3523 43.8129 18.4235 43.8129 18.4977V40.741C43.8129 40.8152 43.7834 40.8863 43.731 40.9388C43.6785 40.9912 43.6074 41.0207 43.5332 41.0207H6.4668C6.43007 41.0207 6.39371 41.0135 6.35977 40.9994C6.32584 40.9854 6.29501 40.9648 6.26903 40.9388C6.24306 40.9129 6.22246 40.8821 6.2084 40.8481C6.19434 40.8142 6.18711 40.7778 6.18711 40.7411Z" fill="#99E6FC"/>
<path d="M43.5336 18.2181H40.5155C40.5523 18.2181 40.5886 18.2254 40.6225 18.2395C40.6564 18.2536 40.6872 18.2743 40.7131 18.3003C40.7391 18.3263 40.7596 18.3571 40.7736 18.3911C40.7876 18.425 40.7948 18.4614 40.7947 18.4981V40.7407C40.7948 40.7774 40.7876 40.8138 40.7736 40.8478C40.7596 40.8817 40.7391 40.9126 40.7131 40.9386C40.6872 40.9646 40.6564 40.9853 40.6225 40.9994C40.5886 41.0135 40.5523 41.0207 40.5155 41.0208H43.5336C43.5703 41.0207 43.6067 41.0135 43.6406 40.9994C43.6745 40.9853 43.7053 40.9646 43.7312 40.9386C43.7571 40.9126 43.7777 40.8817 43.7917 40.8478C43.8057 40.8138 43.8129 40.7774 43.8128 40.7407V18.4981C43.8129 18.4614 43.8058 18.425 43.7918 18.391C43.7778 18.3571 43.7572 18.3262 43.7313 18.3002C43.7054 18.2742 43.6745 18.2535 43.6406 18.2394C43.6067 18.2253 43.5703 18.2181 43.5336 18.2181Z" fill="#8AC9FE"/>
<path d="M47.9173 50H2.08271C0.932422 50 0 49.0676 0 47.9173V44.9155C0 44.3898 0.426172 43.9637 0.951855 43.9637H49.0482C49.5739 43.9637 50.0001 44.3898 50.0001 44.9155V47.9173C50 49.0676 49.0676 50 47.9173 50Z" fill="#A2AEE6"/>
<path d="M49.0481 43.9638H46.0301C46.5558 43.9638 46.9819 44.3899 46.9819 44.9155V47.9173C46.9819 49.0675 46.0495 50 44.8992 50H47.9173C49.0675 50 50 49.0676 50 47.9173V44.9155C50 44.3899 49.5738 43.9638 49.0481 43.9638Z" fill="#8795DE"/>
<path d="M18.4607 43.9638H31.5393V45.5758C31.5393 46.2412 30.9998 46.7807 30.3344 46.7807H19.6657C19.0003 46.7807 18.4608 46.2412 18.4608 45.5758L18.4607 43.9638Z" fill="#6C7FD8"/>
<path d="M15.0757 36.9486H11.0458C10.9392 36.9486 10.8337 36.9277 10.7352 36.8869C10.6367 36.8461 10.5472 36.7863 10.4719 36.7109C10.3965 36.6356 10.3367 36.5461 10.2959 36.4476C10.2552 36.3491 10.2342 36.2436 10.2342 36.137V25.5771C10.2342 25.4706 10.2552 25.365 10.2959 25.2665C10.3367 25.1681 10.3965 25.0786 10.4719 25.0032C10.5472 24.9278 10.6367 24.8681 10.7352 24.8273C10.8337 24.7865 10.9392 24.7655 11.0458 24.7655H15.0757C15.1823 24.7655 15.2878 24.7865 15.3863 24.8273C15.4848 24.8681 15.5742 24.9278 15.6496 25.0032C15.725 25.0786 15.7848 25.1681 15.8256 25.2665C15.8663 25.365 15.8873 25.4706 15.8873 25.5771V36.137C15.8873 36.2436 15.8663 36.3491 15.8256 36.4476C15.7848 36.5461 15.725 36.6356 15.6496 36.7109C15.5742 36.7863 15.4848 36.8461 15.3863 36.8869C15.2878 36.9277 15.1823 36.9486 15.0757 36.9486Z" fill="#E759AA"/>
<path d="M15.0757 24.7655H12.0576C12.1642 24.7655 12.2697 24.7865 12.3682 24.8273C12.4667 24.8681 12.5562 24.9278 12.6315 25.0032C12.7069 25.0786 12.7667 25.1681 12.8075 25.2665C12.8483 25.365 12.8693 25.4706 12.8692 25.5771V36.137C12.8693 36.2436 12.8483 36.3491 12.8075 36.4476C12.7667 36.5461 12.7069 36.6356 12.6315 36.7109C12.5562 36.7863 12.4667 36.8461 12.3682 36.8869C12.2697 36.9277 12.1642 36.9486 12.0576 36.9486H15.0757C15.1823 36.9486 15.2878 36.9277 15.3863 36.8869C15.4848 36.8461 15.5742 36.7863 15.6496 36.7109C15.725 36.6356 15.7848 36.5461 15.8256 36.4476C15.8663 36.3491 15.8873 36.2436 15.8873 36.137V25.5771C15.8873 25.4706 15.8663 25.365 15.8256 25.2665C15.7848 25.1681 15.725 25.0786 15.6496 25.0032C15.5742 24.9278 15.4848 24.8681 15.3863 24.8273C15.2878 24.7865 15.1823 24.7655 15.0757 24.7655Z" fill="#9857BD"/>
<path d="M5.22617 46.3852H4.27158C4.07733 46.3852 3.89104 46.4623 3.75368 46.5997C3.61633 46.737 3.53916 46.9233 3.53916 47.1176C3.53916 47.3118 3.61633 47.4981 3.75368 47.6355C3.89104 47.7728 4.07733 47.85 4.27158 47.85H5.22617C5.42042 47.85 5.60672 47.7728 5.74407 47.6355C5.88143 47.4981 5.95859 47.3118 5.95859 47.1176C5.95859 46.9233 5.88143 46.737 5.74407 46.5997C5.60672 46.4623 5.42042 46.3852 5.22617 46.3852ZM9.25029 46.3852H8.2958C8.10155 46.3852 7.91526 46.4623 7.7779 46.5997C7.64054 46.737 7.56338 46.9233 7.56338 47.1176C7.56338 47.3118 7.64054 47.4981 7.7779 47.6355C7.91526 47.7728 8.10155 47.85 8.2958 47.85H9.25029C9.44454 47.85 9.63084 47.7728 9.76819 47.6355C9.90555 47.4981 9.98271 47.3118 9.98271 47.1176C9.98271 46.9233 9.90555 46.737 9.76819 46.5997C9.63084 46.4623 9.44454 46.3852 9.25029 46.3852Z" fill="black"/>
<path d="M19.585 29.5089H25.3098C25.504 29.5089 25.6903 29.4317 25.8277 29.2944C25.965 29.157 26.0422 28.9707 26.0422 28.7765C26.0422 28.5822 25.965 28.3959 25.8277 28.2586C25.6903 28.1212 25.504 28.044 25.3098 28.044H19.585C19.3907 28.044 19.2044 28.1212 19.0671 28.2586C18.9297 28.3959 18.8525 28.5822 18.8525 28.7765C18.8525 28.9707 18.9297 29.157 19.0671 29.2944C19.2044 29.4317 19.3907 29.5089 19.585 29.5089ZM19.585 32.3632H30.0684C30.2626 32.3632 30.4489 32.286 30.5863 32.1487C30.7236 32.0113 30.8008 31.825 30.8008 31.6308C30.8008 31.4365 30.7236 31.2502 30.5863 31.1129C30.4489 30.9755 30.2626 30.8983 30.0684 30.8983H19.585C19.3907 30.8983 19.2044 30.9755 19.0671 31.1129C18.9297 31.2502 18.8525 31.4365 18.8525 31.6308C18.8525 31.825 18.9297 32.0113 19.0671 32.1487C19.2044 32.286 19.3907 32.3632 19.585 32.3632ZM30.0684 33.4541H19.585C19.3907 33.4541 19.2044 33.5313 19.0671 33.6686C18.9297 33.806 18.8525 33.9923 18.8525 34.1865C18.8525 34.3808 18.9297 34.5671 19.0671 34.7044C19.2044 34.8418 19.3907 34.9189 19.585 34.9189H30.0684C30.2626 34.9189 30.4489 34.8418 30.5863 34.7044C30.7236 34.5671 30.8008 34.3808 30.8008 34.1865C30.8008 33.9923 30.7236 33.806 30.5863 33.6686C30.4489 33.5313 30.2626 33.4541 30.0684 33.4541ZM30.0684 36.0099H19.585C19.3907 36.0099 19.2044 36.087 19.0671 36.2244C18.9297 36.3617 18.8525 36.548 18.8525 36.7423C18.8525 36.9365 18.9297 37.1228 19.0671 37.2602C19.2044 37.3975 19.3907 37.4747 19.585 37.4747H30.0684C30.2626 37.4747 30.4489 37.3975 30.5863 37.2602C30.7236 37.1228 30.8008 36.9365 30.8008 36.7423C30.8008 36.548 30.7236 36.3617 30.5863 36.2244C30.4489 36.087 30.2626 36.0099 30.0684 36.0099Z" fill="black"/>
<path d="M39.3628 30.3429C39.2254 30.2055 39.0392 30.1284 38.8449 30.1284C38.6507 30.1284 38.4644 30.2055 38.327 30.3429L36.1201 32.5498L34.6832 31.1129C34.5458 30.9756 34.3596 30.8984 34.1653 30.8984C33.9711 30.8984 33.7848 30.9756 33.6475 31.1129C33.5101 31.2502 33.433 31.4365 33.433 31.6308C33.433 31.825 33.5101 32.0113 33.6475 32.1486L35.6023 34.1035C35.7453 34.2465 35.9328 34.3181 36.1202 34.3181C36.3076 34.3181 36.4951 34.2466 36.6381 34.1035L39.3629 31.3787C39.4309 31.3107 39.4848 31.2299 39.5217 31.1411C39.5585 31.0522 39.5774 30.957 39.5774 30.8608C39.5774 30.7646 39.5584 30.6693 39.5216 30.5805C39.4848 30.4916 39.4308 30.4109 39.3628 30.3429Z" fill="#97DA7B"/>
<path d="M40.4869 1.41123V19.9609C40.4869 20.7403 39.8551 21.3722 39.0757 21.3722H27.6476C27.5926 21.3722 27.5386 21.3871 27.4914 21.4152C27.4442 21.4434 27.4054 21.4837 27.3792 21.532L25.3109 25.3539C25.1772 25.601 24.8227 25.601 24.689 25.3539L22.6207 21.532C22.5946 21.4836 22.5558 21.4432 22.5086 21.4151C22.4613 21.3869 22.4073 21.3721 22.3523 21.3722H10.9243C10.1449 21.3722 9.51309 20.7403 9.51309 19.9609V1.41123C9.51309 0.631836 10.1449 0 10.9243 0H39.0757C39.8551 0 40.4869 0.631836 40.4869 1.41123Z" fill="#EAF6FF"/>
<path d="M39.0757 0H36.0576C36.837 0 37.4688 0.631836 37.4688 1.41123V19.961C37.4688 20.7404 36.837 21.3723 36.0576 21.3723H39.0757C39.8551 21.3723 40.4869 20.7404 40.4869 19.961V1.41123C40.4869 0.631836 39.8551 0 39.0757 0Z" fill="#D8ECFE"/>
<path d="M28.059 16.8538V13.2435C28.059 13.1771 28.0854 13.1134 28.1323 13.0665C28.1792 13.0195 28.2429 12.9932 28.3093 12.9932H37.2415C37.3079 12.9932 37.3715 13.0195 37.4185 13.0665C37.4654 13.1134 37.4918 13.1771 37.4918 13.2435V16.8538C37.4918 16.9202 37.4654 16.9839 37.4185 17.0308C37.3715 17.0777 37.3079 17.1041 37.2415 17.1041H28.3093C28.2429 17.1041 28.1793 17.0777 28.1323 17.0308C28.0854 16.9838 28.059 16.9202 28.059 16.8538Z" fill="#FEF056"/>
<path d="M37.2416 12.9932H34.2235C34.2899 12.9932 34.3536 13.0195 34.4005 13.0665C34.4475 13.1134 34.4738 13.1771 34.4738 13.2435V16.8538C34.4738 16.9202 34.4475 16.9839 34.4005 17.0308C34.3536 17.0777 34.2899 17.1041 34.2235 17.1041H37.2416C37.308 17.1041 37.3716 17.0777 37.4186 17.0308C37.4655 16.9839 37.4919 16.9202 37.4919 16.8538V13.2435C37.4919 13.1771 37.4655 13.1134 37.4186 13.0665C37.3716 13.0195 37.308 12.9932 37.2416 12.9932Z" fill="#FFD15B"/>
<path d="M17.385 6.12793L17.377 6.10791C17.307 5.93653 17.1874 5.78994 17.0336 5.68688C16.8798 5.58383 16.6987 5.52899 16.5136 5.52939H16.5127C16.3274 5.52914 16.1462 5.58421 15.9924 5.68756C15.8386 5.7909 15.7191 5.93781 15.6493 6.10947L15.6427 6.12617L12.3071 14.8841C12.2716 14.9742 12.2543 15.0705 12.2563 15.1674C12.2583 15.2643 12.2794 15.3598 12.3186 15.4484C12.3577 15.537 12.414 15.617 12.4843 15.6837C12.5546 15.7504 12.6374 15.8025 12.7279 15.837C12.8185 15.8715 12.9149 15.8877 13.0118 15.8846C13.1086 15.8815 13.2039 15.8593 13.2921 15.8191C13.3802 15.779 13.4596 15.7217 13.5255 15.6507C13.5914 15.5797 13.6425 15.4963 13.676 15.4054L14.3271 13.6959H18.6753L19.3196 15.4032C19.3536 15.4932 19.4049 15.5756 19.4707 15.6458C19.5366 15.7159 19.6155 15.7724 19.7032 15.812C19.7908 15.8516 19.8854 15.8736 19.9816 15.8767C20.0777 15.8797 20.1735 15.8638 20.2635 15.8299C20.3535 15.7959 20.4359 15.7446 20.506 15.6788C20.5762 15.613 20.6327 15.534 20.6723 15.4463C20.7119 15.3587 20.7339 15.2641 20.7369 15.168C20.74 15.0718 20.7241 14.976 20.6901 14.886L17.385 6.12793ZM14.8851 12.2312L16.5112 7.96152L18.1226 12.2312H14.8851ZM22.8979 5.52939C22.7036 5.52939 22.5173 5.60656 22.38 5.74392C22.2426 5.88127 22.1654 6.06757 22.1654 6.26182V15.1448C22.1654 15.3391 22.2426 15.5254 22.38 15.6627C22.5173 15.8001 22.7036 15.8772 22.8979 15.8772C23.0921 15.8772 23.2784 15.8001 23.4158 15.6627C23.5531 15.5254 23.6303 15.3391 23.6303 15.1448V6.26182C23.6303 6.06757 23.5531 5.88127 23.4158 5.74392C23.2784 5.60656 23.0921 5.52939 22.8979 5.52939ZM28.9944 4.87783H33.1491C33.3434 4.87783 33.5297 4.80067 33.667 4.66331C33.8044 4.52595 33.8815 4.33966 33.8815 4.14541C33.8815 3.95116 33.8044 3.76487 33.667 3.62751C33.5297 3.49015 33.3434 3.41299 33.1491 3.41299H28.9944C28.8002 3.41299 28.6139 3.49015 28.4765 3.62751C28.3392 3.76487 28.262 3.95116 28.262 4.14541C28.262 4.33966 28.3392 4.52595 28.4765 4.66331C28.6139 4.80067 28.8002 4.87783 28.9944 4.87783ZM28.9944 7.73213H36.6026C36.7969 7.73213 36.9832 7.65496 37.1205 7.51761C37.2579 7.38025 37.3351 7.19396 37.3351 6.99971C37.3351 6.80546 37.2579 6.61916 37.1205 6.48181C36.9832 6.34445 36.7969 6.26729 36.6026 6.26729H28.9944C28.8002 6.26729 28.6139 6.34445 28.4765 6.48181C28.3392 6.61916 28.262 6.80546 28.262 6.99971C28.262 7.19396 28.3392 7.38025 28.4765 7.51761C28.6139 7.65496 28.8002 7.73213 28.9944 7.73213ZM36.6026 8.82305H28.9944C28.8002 8.82305 28.6139 8.90021 28.4765 9.03757C28.3392 9.17492 28.262 9.36122 28.262 9.55547C28.262 9.74972 28.3392 9.93601 28.4765 10.0734C28.6139 10.2107 28.8002 10.2879 28.9944 10.2879H36.6026C36.7969 10.2879 36.9832 10.2107 37.1205 10.0734C37.2579 9.93601 37.3351 9.74972 37.3351 9.55547C37.3351 9.36122 37.2579 9.17492 37.1205 9.03757C36.9832 8.90021 36.7969 8.82305 36.6026 8.82305Z" fill="black"/>
</svg>
