<?xml version="1.0" encoding="utf-8"?>
<svg width="50" height="50" viewBox="0 0 50 50" fill="none" xmlns="http://www.w3.org/2000/svg">
  <g>
    <path d="M3.21199 0L0 0L0 13.9862L6.42398 13.9862C6.42398 13.9862 6.42398 3.01811 6.42398 3.01811C6.42398 1.35121 4.98597 0 3.21199 0C3.21199 0 3.21199 0 3.21199 0Z" fill="#921FB2" transform="matrix(1 0 0 1 41.97 4.527)" />
    <path d="M40.364 4.52716L23.394 4.52716C23.394 4.52716 19.5168 0.884004 19.5168 0.884004C18.9145 0.317996 18.0975 1.07456e-05 17.2456 0C17.2456 0 3.21199 0 3.21199 0C1.43801 1.91886e-07 0 1.35121 0 3.01811C0 3.01811 0 18.5134 0 18.5134L35.546 18.5134C35.546 18.5134 43.576 7.54527 43.576 7.54527C43.576 5.87837 42.138 4.52716 40.364 4.52716C40.364 4.52716 40.364 4.52716 40.364 4.52716Z" fill="#C9139D" transform="matrix(1 0 0 1 1.606 0)" />
    <path d="M3.21199 0L0 9.05433L6.42398 3.01811L6.42398 0L3.21199 0Z" fill="#6CE1FF" transform="matrix(1 0 0 1 38.758 7.545)" />
    <path d="M0 0L0 3.01811L37.152 9.05433L37.152 0L0 0Z" fill="#C4F3FF" transform="translate(4.818 7.545)" />
    <path d="M3.21199 0L0 9.05433L6.42398 9.05433L6.42398 0L3.21199 0Z" fill="#C4F3FF" transform="matrix(1 0 0 1 38.758 10.563)" />
    <path d="M0 0L37.152 0L37.152 9.05433L0 9.05433L0 0Z" fill="#FFFFFF" transform="matrix(1 0 0 1 4.818 10.563)" />
    <path d="M3.21199 0L0 0L0 25.8551C0 25.8551 3.21199 25.8551 3.21199 25.8551C4.98597 25.8551 6.42398 24.5039 6.42398 22.837C6.42398 22.837 6.42398 3.01811 6.42398 3.01811C6.42398 1.35121 4.98597 0 3.21199 0C3.21199 0 3.21199 0 3.21199 0Z" fill="#C9139D" transform="matrix(1 0 0 1 43.576 13.581)" />
    <path d="M43.576 0C43.576 0 3.21199 0 3.21199 0C1.43801 0 0 1.35121 0 3.01811C0 3.01811 0 22.837 0 22.837C0 24.5039 1.43801 25.8551 3.21199 25.8551C3.21199 25.8551 6.42398 25.8551 6.42398 25.8551C7.31092 25.8551 8.02998 26.5308 8.02998 27.3642C8.02998 27.3642 8.02998 33.4004 8.02998 33.4004C8.02998 34.2338 8.74904 34.9095 9.63597 34.9095C10.5229 34.9095 11.242 34.2338 11.242 33.4004C11.242 33.4004 11.242 27.3642 11.242 27.3642C11.242 26.5308 11.961 25.8551 12.848 25.8551C12.848 25.8551 15.364 25.8551 15.364 25.8551C16.251 25.8551 16.97 26.5308 16.97 27.3642C16.97 27.3642 16.97 30.3823 16.97 30.3823C16.97 31.2157 17.6891 31.8913 18.576 31.8913C19.463 31.8913 20.182 31.2157 20.182 30.3823C20.182 30.3823 20.182 27.3642 20.182 27.3642C20.182 26.5308 20.9011 25.8551 21.788 25.8551C22.6749 25.8551 23.394 26.5308 23.394 27.3642C23.394 27.3642 23.394 34.9095 23.394 34.9095C23.394 35.7429 24.1131 36.4185 25 36.4185C25.8869 36.4185 26.606 35.7429 26.606 34.9095C26.606 34.9095 26.606 27.3642 26.606 27.3642C26.606 26.5308 27.3251 25.8551 28.212 25.8551C29.0989 25.8551 29.818 26.5308 29.818 27.3642C29.818 27.3642 29.818 30.3823 29.818 30.3823C29.818 31.2157 30.537 31.8913 31.424 31.8913C32.3109 31.8913 33.03 31.2157 33.03 30.3823C33.03 30.3823 33.03 27.3642 33.03 27.3642C33.03 26.5308 33.749 25.8551 34.636 25.8551C34.636 25.8551 37.152 25.8551 37.152 25.8551C38.039 25.8551 38.758 26.5308 38.758 27.3642C38.758 27.3642 38.758 33.4004 38.758 33.4004C38.758 34.2338 39.4771 34.9095 40.364 34.9095C41.251 34.9095 41.97 34.2338 41.97 33.4004C41.97 33.4004 41.97 27.3642 41.97 27.3642C41.97 26.5308 42.6891 25.8551 43.576 25.8551C45.35 25.8551 46.788 24.5039 46.788 22.837C46.788 22.837 46.788 3.01811 46.788 3.01811C46.788 1.35121 45.35 0 43.576 0C43.576 0 43.576 0 43.576 0Z" fill="#FF0787" transform="matrix(1 0 0 1 0 13.581)" />
  </g>
</svg>