<svg width="50" height="50" viewBox="0 0 50 50" fill="none" xmlns="http://www.w3.org/2000/svg">
<path d="M4.99766 24.9978C4.99766 22.9021 5.53268 20.8441 6.54646 19.037C7.55701 17.232 9.01373 15.7413 10.7653 14.7195C12.5123 13.7 14.4905 13.187 16.4932 13.2341C18.496 13.2812 20.4498 13.8867 22.1507 14.9873C20.1663 16.1212 18.4818 17.7472 17.2468 19.7209C16.0066 21.6987 15.252 23.9629 15.0492 26.3148H20.0744C20.3803 24.0775 21.4701 22.0367 23.1345 20.5841C24.7927 19.1373 26.9094 18.3842 29.0722 18.4715C31.2361 18.5607 33.2905 19.4849 34.8349 21.0638C36.3849 22.6481 37.3182 24.7715 37.4562 27.0272C38.4557 26.4163 39.6289 26.1876 40.7733 26.3806C41.9176 26.5736 42.9613 27.1761 43.7239 28.0841C44.2334 28.688 44.6026 29.4056 44.8029 30.1815C45.0032 30.9575 45.0292 31.7709 44.879 32.5589C44.7324 33.3471 44.4124 34.0894 43.9439 34.7274C43.4764 35.3645 42.8751 35.8819 42.1864 36.2368C41.4985 36.5913 40.7415 36.7764 39.9738 36.7776H16.2405C14.7629 36.7788 13.2997 36.4739 11.9366 35.8806C10.5713 35.2881 9.33181 34.4213 8.28902 33.3299C7.24481 32.2342 6.41674 30.9366 5.85144 29.5103C5.2863 28.0812 4.99582 26.5508 4.99641 25.0056L4.99766 24.9978ZM1.29673e-07 25.0056C-0.000543869 29.5079 1.71055 33.8278 4.76015 37.0233C6.2639 38.5993 8.05251 39.8503 10.023 40.7044C11.9935 41.5585 14.107 41.9988 16.2418 42H39.9763C42.546 42.0063 45.0187 40.9797 46.8778 39.1346C48.744 37.2816 49.8565 34.7553 49.9866 32.0753C50.1194 29.395 49.2606 26.7635 47.5865 24.7209C45.9192 22.6854 43.5605 21.3981 41.0026 21.1275C39.4675 17.9402 36.845 15.4626 33.6473 14.1787C30.457 12.9003 26.9217 12.9124 23.7395 14.2125V9.91582C21.2657 8.56954 18.4987 7.9127 15.7082 8.00931C12.9177 8.10591 10.1988 8.95266 7.8165 10.467C5.42842 11.986 3.45671 14.119 2.09132 16.6605C0.721647 19.2085 0.00210629 22.0787 0.00125017 24.9978" fill="url(#paint0_linear_368_16)"/>
<defs>
<linearGradient id="paint0_linear_368_16" x1="46.4303" y1="19.1943" x2="-11.3561" y2="40.2365" gradientUnits="userSpaceOnUse">
<stop stop-color="#0083FF"/>
<stop offset="0.5" stop-color="#3ED56C"/>
<stop offset="0.63" stop-color="#4EDC8E"/>
<stop offset="0.79" stop-color="#5CE3AE"/>
<stop offset="0.91" stop-color="#65E7C1"/>
<stop offset="1" stop-color="#68E9C8"/>
</linearGradient>
</defs>
</svg>
