<svg width="50" height="50" viewBox="0 0 50 50" fill="none" xmlns="http://www.w3.org/2000/svg">
<path d="M10.7174 7C15.4783 7 17.4565 9.11765 19.7174 9.11765C17.4674 9.11765 5.03261 9.99647 3.30434 13.9671C4.88043 9.96471 7.22826 7 10.7174 7Z" fill="url(#paint0_linear_327_57)"/>
<path d="M46.3587 13.1729C44.4674 9.64706 32.663 9.11765 30.4348 9.11765C32.6957 9.11765 34.5217 7 39.2826 7C42.5326 7 44.7935 9.58353 46.3587 13.1729Z" fill="url(#paint1_linear_327_57)"/>
<path d="M50 35.5882C50 39.4434 48.137 41.9412 44.5652 41.9412C40.9935 41.9412 36.2837 31.3529 31.5217 31.3529C26.7598 31.3529 23.1891 31.3529 18.4272 31.3529C13.6652 31.3529 9.00652 43 5.43478 43C1.86304 43 0 39.4434 0 35.5882C0 34.5294 0 22.3529 3.26087 14.0475C4.84783 10.0049 17.4587 9.11765 19.7207 9.11765C24.6011 9.11765 25.5533 9.11765 30.4348 9.11765C32.6967 9.11765 44.8717 9.66506 46.4522 13.3529C49.9978 21.6255 50 35.5882 50 35.5882Z" fill="url(#paint2_linear_327_57)"/>
<path d="M3.26087 14.0518C3.27174 14.02 3.28261 13.9988 3.30435 13.9671C3.25 14.0941 3.19565 14.2212 3.15218 14.3482C3.18478 14.2424 3.21739 14.1471 3.26087 14.0518Z" fill="url(#paint3_linear_327_57)"/>
<path d="M46.4565 13.3529C46.5109 13.4694 46.5544 13.5965 46.5978 13.7129C46.5217 13.5224 46.4457 13.3529 46.3587 13.1729C46.4022 13.2365 46.4348 13.2894 46.4565 13.3529Z" fill="url(#paint4_linear_327_57)"/>
<path opacity="0.35" d="M18.4783 30.2941C21.4798 30.2941 23.913 27.9239 23.913 25C23.913 22.0761 21.4798 19.7059 18.4783 19.7059C15.4767 19.7059 13.0435 22.0761 13.0435 25C13.0435 27.9239 15.4767 30.2941 18.4783 30.2941Z" fill="white"/>
<path d="M22.8261 25C22.8261 25.3706 22.7826 25.72 22.6739 26.0588C22.6522 26.1753 22.6087 26.2918 22.5652 26.4082C22.1413 27.6153 21.163 28.5682 19.9239 28.9812C19.8043 29.0235 19.6848 29.0659 19.5652 29.0871C19.2174 29.1929 18.8587 29.2353 18.4783 29.2353C18.0978 29.2353 17.7391 29.1929 17.3913 29.0871C17.2717 29.0659 17.1522 29.0235 17.0326 28.9812C15.7935 28.5682 14.8152 27.6153 14.3913 26.4082C14.3478 26.2918 14.3043 26.1753 14.2826 26.0588C14.1739 25.72 14.1304 25.3706 14.1304 25C14.1304 24.6294 14.1739 24.28 14.2826 23.9412C14.3043 23.8247 14.3478 23.7082 14.3913 23.5918C14.8152 22.3847 15.7935 21.4318 17.0326 21.0188C17.1522 20.9765 17.2717 20.9341 17.3913 20.9129C17.7391 20.8071 18.0978 20.7647 18.4783 20.7647C18.8587 20.7647 19.2174 20.8071 19.5652 20.9129C19.6848 20.9341 19.8043 20.9765 19.9239 21.0188C21.163 21.4318 22.1413 22.3847 22.5652 23.5918C22.6087 23.7082 22.6522 23.8247 22.6739 23.9412C22.7826 24.28 22.8261 24.6294 22.8261 25Z" fill="url(#paint5_radial_327_57)"/>
<path opacity="0.35" d="M42.9348 19.7059C44.4356 19.7059 45.6522 18.5208 45.6522 17.0588C45.6522 15.5969 44.4356 14.4118 42.9348 14.4118C41.434 14.4118 40.2174 15.5969 40.2174 17.0588C40.2174 18.5208 41.434 19.7059 42.9348 19.7059Z" fill="white"/>
<path opacity="0.35" d="M39.6739 16.5294C41.1747 16.5294 42.3913 15.3443 42.3913 13.8824C42.3913 12.4204 41.1747 11.2353 39.6739 11.2353C38.1731 11.2353 36.9565 12.4204 36.9565 13.8824C36.9565 15.3443 38.1731 16.5294 39.6739 16.5294Z" fill="white"/>
<path opacity="0.35" d="M39.6739 22.8824C41.1747 22.8824 42.3913 21.6972 42.3913 20.2353C42.3913 18.7734 41.1747 17.5882 39.6739 17.5882C38.1731 17.5882 36.9565 18.7734 36.9565 20.2353C36.9565 21.6972 38.1731 22.8824 39.6739 22.8824Z" fill="white"/>
<path opacity="0.35" d="M36.413 19.7059C37.9138 19.7059 39.1304 18.5208 39.1304 17.0588C39.1304 15.5969 37.9138 14.4118 36.413 14.4118C34.9123 14.4118 33.6956 15.5969 33.6956 17.0588C33.6956 18.5208 34.9123 19.7059 36.413 19.7059Z" fill="white"/>
<path d="M41.2924 13.8824C41.2924 14.7559 40.562 15.4706 39.6685 15.4706C38.775 15.4706 38.0435 14.7559 38.0435 13.8824C38.0435 13.0088 38.7739 12.2941 39.6674 12.2941C40.5609 12.2941 41.2924 13.0088 41.2924 13.8824Z" fill="url(#paint6_radial_327_57)"/>
<path d="M41.3043 20.2353C41.3043 21.1088 40.5739 21.8235 39.6804 21.8235C38.787 21.8235 38.0565 21.1088 38.0565 20.2353C38.0565 19.3618 38.787 18.6471 39.6804 18.6471C40.5739 18.6471 41.3043 19.3618 41.3043 20.2353Z" fill="url(#paint7_radial_327_57)"/>
<path d="M41.3163 17.0588C41.3163 16.1853 42.0467 15.4706 42.9402 15.4706C43.8337 15.4706 44.5652 16.1853 44.5652 17.0588C44.5652 17.9324 43.8348 18.6471 42.9413 18.6471C42.0478 18.6471 41.3163 17.9324 41.3163 17.0588Z" fill="url(#paint8_radial_327_57)"/>
<path d="M38.0315 17.0588C38.0315 17.9324 37.3011 18.6471 36.4076 18.6471C35.513 18.6471 34.7826 17.9324 34.7826 17.0588C34.7826 16.1853 35.513 15.4706 36.4065 15.4706C37.3 15.4706 38.0315 16.1853 38.0315 17.0588Z" fill="url(#paint9_radial_327_57)"/>
<path d="M14.2826 23.9412C14.1739 24.28 14.1304 24.6294 14.1304 25C14.1304 25.3706 14.1739 25.72 14.2826 26.0588H17.3913V23.9412H14.2826ZM17.3913 26.0588V29.0871C17.7391 29.1929 18.0978 29.2353 18.4783 29.2353C18.8587 29.2353 19.2174 29.1929 19.5652 29.0871V26.0588H17.3913ZM22.6739 23.9412H19.5652V26.0588H22.6739C22.7826 25.72 22.8261 25.3706 22.8261 25C22.8261 24.6294 22.7826 24.28 22.6739 23.9412ZM18.4783 20.7647C18.0978 20.7647 17.7391 20.8071 17.3913 20.9129V23.9412H19.5652V20.9129C19.2174 20.8071 18.8587 20.7647 18.4783 20.7647Z" fill="#64717C"/>
<path opacity="0.35" d="M10.8696 20.7647C13.2708 20.7647 15.2174 18.8685 15.2174 16.5294C15.2174 14.1903 13.2708 12.2941 10.8696 12.2941C8.46832 12.2941 6.52174 14.1903 6.52174 16.5294C6.52174 18.8685 8.46832 20.7647 10.8696 20.7647Z" fill="white"/>
<path opacity="0.35" d="M31.5217 29.2353C33.923 29.2353 35.8696 27.3391 35.8696 25C35.8696 22.6609 33.923 20.7647 31.5217 20.7647C29.1205 20.7647 27.1739 22.6609 27.1739 25C27.1739 27.3391 29.1205 29.2353 31.5217 29.2353Z" fill="white"/>
<path d="M10.8696 19.7059C12.6705 19.7059 14.1304 18.2837 14.1304 16.5294C14.1304 14.7751 12.6705 13.3529 10.8696 13.3529C9.06864 13.3529 7.6087 14.7751 7.6087 16.5294C7.6087 18.2837 9.06864 19.7059 10.8696 19.7059Z" fill="url(#paint10_radial_327_57)"/>
<path d="M31.5217 28.1765C33.3227 28.1765 34.7826 26.7543 34.7826 25C34.7826 23.2457 33.3227 21.8235 31.5217 21.8235C29.7208 21.8235 28.2609 23.2457 28.2609 25C28.2609 26.7543 29.7208 28.1765 31.5217 28.1765Z" fill="url(#paint11_radial_327_57)"/>
<path opacity="0.35" d="M25 17.5882C26.8009 17.5882 28.2609 16.1661 28.2609 14.4118C28.2609 12.6574 26.8009 11.2353 25 11.2353C23.1991 11.2353 21.7391 12.6574 21.7391 14.4118C21.7391 16.1661 23.1991 17.5882 25 17.5882Z" fill="white"/>
<path d="M27.1739 14.4118C27.1739 14.7506 27.087 15.0788 26.9348 15.3647C26.8478 15.5447 26.7283 15.7035 26.5978 15.8412C26.1957 16.2647 25.6304 16.5294 25 16.5294C24.3696 16.5294 23.8043 16.2647 23.4022 15.8412C23.2717 15.7035 23.1522 15.5447 23.0652 15.3647C22.913 15.0788 22.8261 14.7506 22.8261 14.4118C22.8261 13.8188 23.087 13.2682 23.5 12.8871C23.6848 12.7071 23.9022 12.5694 24.1413 12.4741C24.4022 12.3576 24.6957 12.2941 25 12.2941C25.3043 12.2941 25.5978 12.3576 25.8587 12.4741C26.0978 12.5694 26.3152 12.7071 26.5 12.8871C26.913 13.2682 27.1739 13.8188 27.1739 14.4118Z" fill="url(#paint12_radial_327_57)"/>
<path d="M26.9348 15.3647C26.8478 15.5447 26.7283 15.7035 26.5978 15.8412C26.3587 15.4282 25.8913 14.8247 25 14.0412C24.7826 13.8612 24.5435 13.66 24.2826 13.4588C24.0435 13.2788 23.7826 13.0882 23.5 12.8871C23.6848 12.7071 23.9022 12.5694 24.1413 12.4741C24.3804 12.5694 24.6848 12.7071 25 12.9082C25.2283 13.0565 25.4783 13.2365 25.7174 13.4588C26.2174 13.9141 26.6739 14.5282 26.9348 15.3647Z" fill="white"/>
<path d="M26.5 12.8871C26.2174 13.0882 25.9565 13.2788 25.7174 13.4588C25.4565 13.66 25.2174 13.8612 25 14.0412C24.1087 14.8247 23.6413 15.4282 23.4022 15.8412C23.2717 15.7035 23.1522 15.5447 23.0652 15.3647C23.3261 14.5282 23.7826 13.9141 24.2826 13.4588C24.5217 13.2365 24.7717 13.0565 25 12.9082C25.3152 12.7071 25.6196 12.5694 25.8587 12.4741C26.0978 12.5694 26.3152 12.7071 26.5 12.8871Z" fill="white"/>
<defs>
<linearGradient id="paint0_linear_327_57" x1="11.5109" y1="7" x2="11.5109" y2="13.9671" gradientUnits="userSpaceOnUse">
<stop stop-color="#F0F0F0"/>
<stop offset="1" stop-color="#BBC1C4"/>
</linearGradient>
<linearGradient id="paint1_linear_327_57" x1="38.3967" y1="7" x2="38.3967" y2="13.1729" gradientUnits="userSpaceOnUse">
<stop stop-color="#F0F0F0"/>
<stop offset="1" stop-color="#BBC1C4"/>
</linearGradient>
<linearGradient id="paint2_linear_327_57" x1="25" y1="9.11765" x2="25" y2="43" gradientUnits="userSpaceOnUse">
<stop stop-color="#F0F0F0"/>
<stop offset="1" stop-color="#BBC1C4"/>
</linearGradient>
<linearGradient id="paint3_linear_327_57" x1="3.22826" y1="13.9671" x2="3.22826" y2="14.3482" gradientUnits="userSpaceOnUse">
<stop stop-color="#F0F0F0"/>
<stop offset="1" stop-color="#BBC1C4"/>
</linearGradient>
<linearGradient id="paint4_linear_327_57" x1="46.4783" y1="13.1729" x2="46.4783" y2="13.7129" gradientUnits="userSpaceOnUse">
<stop stop-color="#F0F0F0"/>
<stop offset="1" stop-color="#BBC1C4"/>
</linearGradient>
<radialGradient id="paint5_radial_327_57" cx="0" cy="0" r="1" gradientUnits="userSpaceOnUse" gradientTransform="translate(18.4783 25) scale(4.34783 4.23529)">
<stop stop-color="#8795A1"/>
<stop offset="1" stop-color="#6D7882"/>
</radialGradient>
<radialGradient id="paint6_radial_327_57" cx="0" cy="0" r="1" gradientUnits="userSpaceOnUse" gradientTransform="translate(39.6674 13.8824) scale(1.62717 1.58506)">
<stop stop-color="#FEE100"/>
<stop offset="1" stop-color="#F7A511"/>
</radialGradient>
<radialGradient id="paint7_radial_327_57" cx="0" cy="0" r="1" gradientUnits="userSpaceOnUse" gradientTransform="translate(39.6804 20.2353) scale(1.62717 1.58506)">
<stop stop-color="#1AD674"/>
<stop offset="0.485" stop-color="#13C266"/>
<stop offset="1" stop-color="#0AA854"/>
</radialGradient>
<radialGradient id="paint8_radial_327_57" cx="0" cy="0" r="1" gradientUnits="userSpaceOnUse" gradientTransform="translate(42.9413 17.0588) scale(1.62717 1.58506)">
<stop stop-color="#FF80A9"/>
<stop offset="1" stop-color="#FF3B78"/>
</radialGradient>
<radialGradient id="paint9_radial_327_57" cx="0" cy="0" r="1" gradientUnits="userSpaceOnUse" gradientTransform="translate(36.4065 17.0588) scale(1.62717 1.58506)">
<stop stop-color="#46C3F0"/>
<stop offset="1" stop-color="#15A2EB"/>
</radialGradient>
<radialGradient id="paint10_radial_327_57" cx="0" cy="0" r="1" gradientUnits="userSpaceOnUse" gradientTransform="translate(10.8696 16.5294) scale(3.26087 3.17647)">
<stop stop-color="#8795A1"/>
<stop offset="1" stop-color="#6D7882"/>
</radialGradient>
<radialGradient id="paint11_radial_327_57" cx="0" cy="0" r="1" gradientUnits="userSpaceOnUse" gradientTransform="translate(31.5217 25) scale(3.26087 3.17647)">
<stop stop-color="#8795A1"/>
<stop offset="1" stop-color="#6D7882"/>
</radialGradient>
<radialGradient id="paint12_radial_327_57" cx="0" cy="0" r="1" gradientUnits="userSpaceOnUse" gradientTransform="translate(25 14.4118) scale(2.17391 2.11765)">
<stop stop-color="#8795A1"/>
<stop offset="1" stop-color="#6D7882"/>
</radialGradient>
</defs>
</svg>
