<svg width="50" height="50" viewBox="0 0 50 50" fill="none" xmlns="http://www.w3.org/2000/svg">
<mask id="mask0_326_10" style="mask-type:luminance" maskUnits="userSpaceOnUse" x="0" y="0" width="50" height="50">
<path d="M0 0H50V50H0V0Z" fill="white"/>
</mask>
<g mask="url(#mask0_326_10)">
<path d="M15.3217 28.6849V16.7993C13.9375 21.6033 11.4634 29.7999 11.4634 29.7999C11.4634 29.7999 6.98357 15.4596 6.53646 13.5701C6.5117 13.4663 6.42521 13.3948 6.32686 13.3967H-7.45059e-07L1.69707 15.2486C1.69707 16.5807 1.69707 38.7106 1.67788 38.779L-7.45059e-07 40.6042H8.38001L6.68678 38.7676C6.67457 38.703 6.6676 26.0605 6.6676 26.0605L11.4564 40.6061L15.3217 28.6849ZM21.7239 50L16.7203 40.6061V11.1073H13.7767L21.7239 0.000348077V50ZM33.315 40.6118L28.3113 49.9753V11.1111H25.3678L33.315 0.000348077V40.6118ZM45.3141 38.3281L38.3535 25.4723L44.3452 15.5759L47.3989 13.4062H38.584L39.6837 15.2258L34.7114 23.4509V31.4826L35.6297 29.96C35.6297 29.96 40.4956 38.9048 41.3825 40.5643H47.6134L45.3141 38.3281ZM49.3768 40.0978L48.8847 38.9466H48.7256V40.57H48.8847V39.3367L49.2983 40.3149H49.4347L49.8413 39.3367V40.57H50V38.9466H49.8413L49.3768 40.0978ZM47.4373 39.1025H47.8666V40.57H48.0274V39.1025H48.4585V38.9466H47.4391V39.1025H47.4373Z" fill="#FBA919"/>
</g>
</svg>
